<svg height="32" viewBox="0 0 32 32" width="32" xmlns="http://www.w3.org/2000/svg" xmlns:xlink="http://www.w3.org/1999/xlink"><defs><linearGradient id="a" gradientUnits="userSpaceOnUse" x1="16" x2="16" y1="0" y2="30"><stop offset="0" stop-color="#fff" stop-opacity=".5"/><stop offset="1" stop-opacity=".5"/></linearGradient><circle id="b" cx="16" cy="15" r="15"/><filter id="c" height="111.7%" width="111.7%" x="-5.8%" y="-4.2%"><feOffset dy=".5" in="SourceAlpha" result="shadowOffsetOuter1"/><feGaussianBlur in="shadowOffsetOuter1" result="shadowBlurOuter1" stdDeviation=".5"/><feComposite in="shadowBlurOuter1" in2="SourceAlpha" operator="out" result="shadowBlurOuter1"/><feColorMatrix in="shadowBlurOuter1" values="0 0 0 0 0   0 0 0 0 0   0 0 0 0 0  0 0 0 0.199473505 0"/></filter><filter id="d" height="115.9%" width="129.2%" x="-14.6%" y="-5.7%"><feOffset dy=".5" in="SourceAlpha" result="shadowOffsetOuter1"/><feGaussianBlur in="shadowOffsetOuter1" result="shadowBlurOuter1" stdDeviation=".5"/><feColorMatrix in="shadowBlurOuter1" values="0 0 0 0 0   0 0 0 0 0   0 0 0 0 0  0 0 0 0.204257246 0"/></filter></defs><use filter="url(#c)" height="100%" width="100%" xlink:href="#b"/><use fill="#f4b731" fill-rule="evenodd" height="100%" width="100%" xlink:href="#b"/><use fill="url(#a)" fill-rule="evenodd" height="100%" width="100%" xlink:href="#b"/><circle cx="16" cy="15" fill="none" r="14.5" stroke="#000" stroke-opacity=".097"/><g fill="#fff" stroke-width=".083587"><path d="m24.397714 12.630048h-1.655037s-1.295609-4.4552234-6.895984-4.4552234h-5.433198v4.4552234h-1.8974413v1.579807h1.8890823v1.579807h-1.8890823v1.579807h1.8890823v4.455225h5.433199s5.174077.142099 6.895984-4.455225h1.663395v-1.579807h-1.36248s.07523-.434655.07523-.794082-.07523-.794083-.07523-.794083h1.36248zm-12.362618-2.9422873h3.945338c3.293354 0 4.672551 1.9726703 5.149001 2.9422873h-9.094339zm3.945338 10.6323543h-3.945338v-2.942286h9.08598c-1.521295 3.034233-5.140642 2.942286-5.140642 2.942286zm-3.945338-4.522093v-1.588167h9.545713c.03343.234046.05015.501527.05015.794083 0 .292557-.01672.55168-.05015.794084z" filter="url(#d)"/><path d="m24.397714 12.630048h-1.655037s-1.295609-4.4552234-6.895984-4.4552234h-5.433198v4.4552234h-1.8974413v1.579807h1.8890823v1.579807h-1.8890823v1.579807h1.8890823v4.455225h5.433199s5.174077.142099 6.895984-4.455225h1.663395v-1.579807h-1.36248s.07523-.434655.07523-.794082-.07523-.794083-.07523-.794083h1.36248zm-12.362618-2.9422873h3.945338c3.293354 0 4.672551 1.9726703 5.149001 2.9422873h-9.094339zm3.945338 10.6323543h-3.945338v-2.942286h9.08598c-1.521295 3.034233-5.140642 2.942286-5.140642 2.942286zm-3.945338-4.522093v-1.588167h9.545713c.03343.234046.05015.501527.05015.794083 0 .292557-.01672.55168-.05015.794084z"/></g></svg>