<?xml version="1.0" encoding="utf-8"?>
<!-- Generator: Adobe Illustrator 18.1.1, SVG Export Plug-In . SVG Version: 6.00 Build 0)  -->
<svg version="1.1" xmlns="http://www.w3.org/2000/svg" xmlns:xlink="http://www.w3.org/1999/xlink" x="0px" y="0px"
	 viewBox="0 0 4069.9 4728" enable-background="new 0 0 4069.9 4728" xml:space="preserve">
<g id="Layer_3">
	<g>
		<linearGradient id="SVGID_1_" gradientUnits="userSpaceOnUse" x1="877.8735" y1="2847.5581" x2="3567.4336" y2="2847.5581">
			<stop  offset="0" style="stop-color:#F37365"/>
			<stop  offset="0.2684" style="stop-color:#F58A63"/>
			<stop  offset="0.8559" style="stop-color:#FDC54C"/>
			<stop  offset="1" style="stop-color:#FFD340"/>
		</linearGradient>
		<path fill="url(#SVGID_1_)" d="M3534.9,2422.7l-2242.3-1334c-5.9,0.9-11.7,1.4-17.5,1.6v3.4c0.4,1.7,0.8,3.4,1.1,5.2l2250,1338.6
			c14.9,8.9,24,24.5,24.2,41.9c0.2,17.4-8.5,33.3-23.2,42.5L1168.3,3999.8c-19.8,12.4-31.5,33.8-31.3,57.2
			c0.1,23.4,12.2,44.6,32.2,56.7l774.6,469.8c25.2,15.3,53.8,22.9,82.3,22.9c30.4,0,60.9-8.7,87.1-25.9l399-262l-9.3-14.3l-399,262
			c-45.5,29.8-104.9,30.8-151.3,2.7L1178,4099c-14.8-9-23.7-24.8-23.9-42.2c-0.1-17.4,8.5-33.3,23.3-42.5l2358.8-1477.9
			c19.8-12.4,31.5-33.8,31.2-57.2C3567.2,2455.7,3554.9,2434.6,3534.9,2422.7z"/>
		<linearGradient id="SVGID_2_" gradientUnits="userSpaceOnUse" x1="877.8735" y1="1079.6299" x2="3567.4336" y2="1079.6299">
			<stop  offset="0" style="stop-color:#F37365"/>
			<stop  offset="0.2684" style="stop-color:#F58A63"/>
			<stop  offset="0.8559" style="stop-color:#FDC54C"/>
			<stop  offset="1" style="stop-color:#FFD340"/>
		</linearGradient>
		<path fill="url(#SVGID_2_)" d="M1275.1,1078.3v2.6c1.3,0,2.7-0.1,4-0.2L1275.1,1078.3z"/>
	</g>
</g>
<g id="Layer_1">
	<g>
		<g>
			<path opacity="0.43" fill="#30459A" d="M1874.9,3018.6l-593.3-345.3c-58.6-34.1-130.9-34.2-189.7-0.2L332.1,3113l668,397.5h287.2
				l589.3-363.9C1924.5,3117,1923.6,3046.9,1874.9,3018.6z"/>
			<linearGradient id="SVGID_3_" gradientUnits="userSpaceOnUse" x1="141.832" y1="3109.5852" x2="1751.3535" y2="3109.5852">
				<stop  offset="0.2919" style="stop-color:#E9E9F5"/>
				<stop  offset="0.3897" style="stop-color:#E2E1F1"/>
				<stop  offset="0.5295" style="stop-color:#CFCEE7"/>
				<stop  offset="0.627" style="stop-color:#BFBDDF"/>
			</linearGradient>
			<path fill="url(#SVGID_3_)" d="M1708.7,2705.4v371.3c0,18.1-9,36.2-26.9,46.6l-631.3,365.5c-57.7,33.4-128.8,33.4-186.5,0
				l-629.2-364.3c-18.2-10.5-26.7-29.4-25.7-47.8h-3.9v-371.3H1708.7z"/>
			<path fill="#F1F0F8" d="M1049.8,3113.5l631.3-365.5c35.8-20.7,35.8-72.5,0-93.2l-634.8-367.5c-52.5-30.4-117.1-30.4-169.6,0
				L234,2659.4c-34.5,20-34.5,69.8,0,89.8l629.3,364.3C921,3146.9,992.1,3146.9,1049.8,3113.5z"/>
		</g>
		<g>
			<path opacity="0.43" fill="#30459A" d="M3193.6,3327.1L2376,2851.3c-80.8-47-180.5-47.1-261.3-0.3l-781.2,684.2L1988,4005h395.8
				l812.1-501.5C3261.9,3462.8,3260.6,3366.1,3193.6,3327.1z"/>
			<g>
				<g>
					
						<linearGradient id="SVGID_4_" gradientUnits="userSpaceOnUse" x1="1101.132" y1="2606.3303" x2="2813.064" y2="2606.3303" gradientTransform="matrix(1 0 0 1 -2.5162 0)">
						<stop  offset="0.2919" style="stop-color:#E9E9F5"/>
						<stop  offset="0.3897" style="stop-color:#E2E1F1"/>
						<stop  offset="0.5295" style="stop-color:#CFCEE7"/>
						<stop  offset="0.627" style="stop-color:#BFBDDF"/>
					</linearGradient>
					<path fill="url(#SVGID_4_)" d="M2810.5,1195.5H1098.6v2323.8c0.1,20.6,10.2,41.3,30.6,53.1l718.9,416.2
						c65.7,38,146.6,38,212.3,0l716.5-414.8c20.7-12,30.4-33.5,29.2-54.4h4.4V1195.5z"/>
					<path fill="#F1F0F8" d="M1848.9,1668.1l-718.9-416.2c-40.7-23.6-40.7-82.5,0-106.1l722.8-418.4c59.7-34.6,133.3-34.6,193.1,0
						l731.8,423.7c39.2,22.7,39.2,79.5,0,102.2l-716.5,414.8C1995.6,1706.1,1914.6,1706.1,1848.9,1668.1z"/>
				</g>
			</g>
		</g>
		<g>
			<path opacity="0.43" fill="#30459A" d="M4022.8,3927.9l-754.4-433.1c-74.5-42.8-166.5-42.9-241.2-0.3l-736.9,420.8v265.6
				l620,363.9h365.2l749.3-456.4C4085.8,4051.3,4084.7,3963.4,4022.8,3927.9z"/>
			<g>
				
					<linearGradient id="SVGID_5_" gradientUnits="userSpaceOnUse" x1="2452.1787" y1="3685.6826" x2="4076.8662" y2="3685.6826" gradientTransform="matrix(1 0 0 1 -515.401 0)">
					<stop  offset="0.2919" style="stop-color:#E9E9F5"/>
					<stop  offset="0.3897" style="stop-color:#E2E1F1"/>
					<stop  offset="0.5295" style="stop-color:#CFCEE7"/>
					<stop  offset="0.627" style="stop-color:#BFBDDF"/>
				</linearGradient>
				<path fill="url(#SVGID_5_)" d="M2124.6,2828.4v1257.9c0.1,18.9,9.4,37.9,28.1,48.7l659.5,381.8c60.3,34.9,134.5,34.9,194.8,0
					l657.3-380.5c19-11,27.9-30.7,26.8-49.9h4.1v-1253L2124.6,2828.4z"/>
				<path fill="#F1F0F8" d="M2812.9,3256.4l-659.5-381.8c-37.4-21.6-37.4-75.7,0-97.3l663.1-383.9c54.8-31.7,122.3-31.7,177.1,0
					l671.4,388.7c36,20.8,36,72.9,0,93.8l-657.3,380.5C2947.4,3291.3,2873.2,3291.3,2812.9,3256.4z"/>
			</g>
		</g>
	</g>
	<g>
		<path opacity="0.43" fill="#30459A" d="M2530.2,2865.7l230.6-134.2c22.8-13.3,50.9-13.3,73.7-0.1l295.4,171l-259.7,154.5h-111.7
			l-229.1-141.4C2511,2903.9,2511.3,2876.7,2530.2,2865.7z"/>
		
			<linearGradient id="SVGID_6_" gradientUnits="userSpaceOnUse" x1="3968.3145" y1="2901.0686" x2="4572.9087" y2="2901.0686" gradientTransform="matrix(1 0 0 1 -1443.3691 0)">
			<stop  offset="0.2919" style="stop-color:#E9E9F5"/>
			<stop  offset="0.3897" style="stop-color:#E2E1F1"/>
			<stop  offset="0.5295" style="stop-color:#CFCEE7"/>
			<stop  offset="0.627" style="stop-color:#BFBDDF"/>
		</linearGradient>
		<path fill="url(#SVGID_6_)" d="M2594.8,2743.9v144.3c0,7,3.5,14.1,10.4,18.1l245.4,142.1c22.4,13,50.1,13,72.5,0l244.6-141.6
			c7.1-4.1,10.4-11.4,10-18.6c1.5,0,1.5-144.3,1.5-144.3H2594.8z"/>
		<path fill="#FFFFFF" d="M2851,2902.6l-245.4-142.1c-13.9-8-13.9-28.2,0-36.2l246.7-142.8c20.4-11.8,45.5-11.8,65.9,0l249.8,144.6
			c13.4,7.8,13.4,27.1,0,34.9l-244.6,141.6C2901,2915.6,2873.4,2915.6,2851,2902.6z"/>
		<g>
			
				<linearGradient id="SVGID_7_" gradientUnits="userSpaceOnUse" x1="3827.21" y1="2431.2681" x2="4256.1011" y2="2431.2681" gradientTransform="matrix(1 0 0 1 -1417.8203 0)">
				<stop  offset="0" style="stop-color:#FAA65B"/>
				<stop  offset="1" style="stop-color:#EE2F71"/>
			</linearGradient>
			<path fill="url(#SVGID_7_)" d="M2516.2,2549.7l-94.5-54.7c-7.8-4.5-12.3-10.7-12.3-17c0-5.3,3.2-10.1,9.1-13.5l265.1-153.5
				c12.3-7.1,33.8-6.3,47.9,1.9l94.5,54.7c7.8,4.5,12.3,10.7,12.3,17c0,5.3-3.2,10.1-9.1,13.5l-265.1,153.5
				c-5.6,3.2-13.1,4.8-21,4.8C2533.8,2556.4,2523.9,2554.1,2516.2,2549.7z M2826.8,2394c4.3-2.5,6.7-5.8,6.7-9.4
				c0-4.5-3.6-9.2-9.9-12.8L2729,2317c-12.8-7.4-32.1-8.3-43.1-1.9l-265.1,153.5c-4.3,2.5-6.7,5.8-6.7,9.4c0,4.5,3.6,9.2,10,12.8
				l94.5,54.7c12.8,7.4,32.1,8.3,43.1,1.9L2826.8,2394z"/>
		</g>
		<path fill="#F5959C" d="M2649.1,2421.7c-5.4-5.5-14.3-5.5-19.8-0.1c-5.5,5.4-5.5,14.4-0.1,19.8l15.6,15.8
			c5.4,5.5,14.3,5.5,19.8,0.1c5.5-5.4,5.5-14.4,0.1-19.8L2649.1,2421.7z"/>
		<path fill="#F5959C" d="M2717.1,2403.9c-5.4-5.5-14.3-5.5-19.8-0.1c-5.5,5.4-5.5,14.4-0.1,19.8l15.6,15.8
			c5.4,5.5,14.3,5.5,19.8,0.1c5.5-5.4,5.5-14.4,0.1-19.8L2717.1,2403.9z"/>
		<g>
			
				<linearGradient id="SVGID_8_" gradientUnits="userSpaceOnUse" x1="4128.7402" y1="2443.3516" x2="4324.7012" y2="2443.3516" gradientTransform="matrix(1 0 0 1 -1417.8203 0)">
				<stop  offset="0.5459" style="stop-color:#F37365"/>
				<stop  offset="0.6678" style="stop-color:#F58A63"/>
				<stop  offset="0.9346" style="stop-color:#FDC54C"/>
				<stop  offset="1" style="stop-color:#FFD340"/>
			</linearGradient>
			<path fill="url(#SVGID_8_)" d="M2718,2444.8c17.6,9.9,35.1,19.8,52.7,29.7c15.1,8.5,34.9,24.4,53.3,23.5
				c22-1,32.3-20.9,43.5-36.8c12.2-17.2,24.4-34.5,36.6-51.7c10.8-15.3-14.3-29.8-25-14.7c-9,12.7-18,25.5-27.1,38.2
				c-7.8,11-19.1,37.8-35.2,34.2c-15.1-3.4-33-18.6-46.4-26.2c-12.7-7.1-25.3-14.3-38-21.4C2716.4,2410.6,2701.8,2435.6,2718,2444.8
				L2718,2444.8z"/>
		</g>
		<g>
			
				<linearGradient id="SVGID_9_" gradientUnits="userSpaceOnUse" x1="4138.4395" y1="2623.0288" x2="4345.8555" y2="2623.0288" gradientTransform="matrix(1 0 0 1 -1417.8203 0)">
				<stop  offset="1.081080e-02" style="stop-color:#2B4197"/>
				<stop  offset="0.1643" style="stop-color:#2F3B8A"/>
				<stop  offset="0.474" style="stop-color:#34327A"/>
				<stop  offset="0.7606" style="stop-color:#362D71"/>
				<stop  offset="1" style="stop-color:#362C6D"/>
			</linearGradient>
			<path fill="url(#SVGID_9_)" d="M2794.6,2569.6c41.9,19.6,81.7,46.1,122.1,68.8c26,14.7,2.6,54.8-23.4,40.1
				c-35.2-19.9-70.5-39.7-105.7-59.6c-2.3-1.3-5.4-3.6-8.5-5.5c-0.2-2-2-2.7-7.7-3.6c2.3,0.4,5,1.9,7.7,3.6c0.1,1.8-1.1,4.5-2.3,9.5
				c-0.2,0.9-0.4,1.9-0.6,2.8l-55.6,32C2728.1,2598.2,2748.2,2547.9,2794.6,2569.6z"/>
			<path fill="#2B4381" d="M2779.2,2613.4c-2.7-1.7-5.4-3.2-7.7-3.6C2777.2,2610.7,2779,2611.4,2779.2,2613.4z"/>
		</g>
		<g>
			<path fill="#202F60" d="M2896.8,2271.1c-3.4-1.6-7.5-2.4-9.9-5.4c-2-2.5-2.3-6.1-4.5-8.5c-5.4-5.8-16.1,0.8-22.9-3.3
				c-1.8-1.1-3.2-2.8-5.1-3.6c-6.7-2.6-12.7,7.8-19.7,6.4c-1.9-0.4-3.6-1.6-5.6-1.5c-1.6,0.1-3.1,1.1-4.3,2.2
				c-2.5,2.3-4.9,6-6.6,10.2c-1.5,0.8-2.9,1.8-3.7,3.2c-0.7,1.3-1,2.9-1,4.4c-0.2,4.8,1.4,10.5,4.2,15.5c0.3,2.2,1,4.3,1.9,6.4
				c2.4,5.6,6.5,10.6,10.3,13.5c1.8,1.4,3.8,2.7,5.7,4.1v7.9c0,1.7,1.4,3,3,3c1.7-1.4,1.6-2.3,1.6-3.1c0-5.8,2.5-10.4,5.6-10.4
				c3.1,0,5.6,4.7,5.6,10.4c0,3-0.7,5.8-1.9,7.7c1.9,4.3,3.4,8.8,5.7,12.8c3.3,5.6,10,10.1,15.5,7.1c0.9-0.5,1.8-1.3,2.7-2.2
				c1.2-1.2,2.4-2.6,3.6-4.4c0.9-0.4,1.8-0.9,2.4-1.8c1.1-1.5,1.4-3.4,2.4-4.9c2.3-3.6,8-4.6,9.1-8.8c0.7-2.6-0.8-5.3-0.2-7.9
				c0.9-4,6.2-5.6,7.9-9.3c1.6-3.6-0.5-7.6-1.2-11.5c-1.3-6.7,1.6-13.3,4.5-19.5C2903.5,2276.6,2900.2,2272.8,2896.8,2271.1z"/>
			<path fill="#F5959C" d="M2870.8,2350.3c-5.5,3-12.1-1.5-15.5-7.1c-2.4-4-3.8-8.5-5.7-12.8c1.1-1.9,1.9-4.6,1.9-7.7
				c0-5.8-2.5-10.4-5.6-10.4c-3.1,0-5.6,4.7-5.6,10.4c0,0.9,0.1,1.7,0.2,2.5c-3.5,0.6-4.8-0.7-4.8-2.4v-7.9
				c-1.9-1.3-3.8-2.7-5.7-4.1c-3.8-2.9-7.9-7.9-10.3-13.5v25.5c0,17.1,13,31.1,29.7,32.7c-0.2,10.7-0.4,21.4-0.6,32.1
				c-0.2,9.9,23.9,9.9,24.1,0c0.3-13.1,0.5-26.2,0.8-39.4C2872.6,2349,2871.7,2349.8,2870.8,2350.3z"/>
		</g>
		<path fill="#F9AA83" d="M2848.1,2398.9c-5.5-3.2-4.8-8.8,1.6-12.5l8.2-4.8c6.4-3.7,16.1-4.1,21.6-0.9c5.5,3.2,4.8,8.8-1.5,12.5
			l-8.2,4.8C2863.4,2401.7,2853.6,2402.1,2848.1,2398.9z"/>
		<path fill="#17274F" d="M2747.8,2196.2l-515.1,298.2c-15.5,8.9-34.8-2.2-34.8-20.1v-294.4c0-15.4,8.2-29.6,21.5-37.3l530.1-306.9
			c4.4-2.6,9.9,0.6,9.9,5.7V2176C2759.4,2184.3,2755,2192,2747.8,2196.2z"/>
		<g>
			<polygon fill="#78D1F6" points="2679.2,1963.1 2739.7,1928.1 2739.7,1934.4 2679.2,1969.5 			"/>
			<polygon fill="#78D1F6" points="2679.2,1985.9 2739.7,1950.8 2739.7,1957.1 2679.2,1992.2 			"/>
			<polygon fill="#78D1F6" points="2739.7,1891.1 2739.7,1897.4 2718.6,1909.6 2718.6,1903.3 			"/>
			<polygon fill="#78D1F6" points="2739.7,1903.4 2739.7,1909.7 2718.6,1922 2718.6,1915.7 			"/>
			<polygon fill="#78D1F6" points="2739.7,1990.5 2739.7,1996.8 2722,2007.1 2722,2000.7 			"/>
			<polygon fill="#78D1F6" points="2739.7,2002.8 2739.7,2009.1 2722,2019.4 2722,2013.1 			"/>
			<polygon fill="#78D1F6" points="2739.7,2039.8 2739.7,2046.1 2698.7,2069.9 2698.7,2063.6 			"/>
			<polygon fill="#78D1F6" points="2739.7,2064.5 2739.7,2070.8 2698.7,2094.6 2698.7,2088.3 			"/>
			<polygon fill="#78D1F6" points="2739.7,2077.7 2739.7,2084 2724.3,2092.9 2724.3,2086.6 			"/>
			<polygon fill="#78D1F6" points="2739.7,2114.7 2739.7,2121 2724.3,2129.9 2724.3,2123.6 			"/>
			<polygon fill="#78D1F6" points="2739.7,2139.4 2739.7,2145.7 2724.3,2154.6 2724.3,2148.3 			"/>
		</g>
		<g>
			<path fill="#2B4381" d="M2714.3,2645c-1.5-0.8-3-1.5-4.4-1.8C2713.4,2644,2714.6,2643.7,2714.3,2645z"/>
			
				<linearGradient id="SVGID_10_" gradientUnits="userSpaceOnUse" x1="4067.8621" y1="2658.3308" x2="4288.1299" y2="2658.3308" gradientTransform="matrix(1 0 0 1 -1417.8203 0)">
				<stop  offset="1.081080e-02" style="stop-color:#2B4197"/>
				<stop  offset="0.1643" style="stop-color:#2F3B8A"/>
				<stop  offset="0.474" style="stop-color:#34327A"/>
				<stop  offset="0.7606" style="stop-color:#362D71"/>
				<stop  offset="1" style="stop-color:#362C6D"/>
			</linearGradient>
			<path fill="url(#SVGID_10_)" d="M2860,2677.5c-28.2-16.5-56.1-34.6-84.5-51.3c-14.2-8.3-28.5-16.4-43.1-23.5
				c-45.9-22.5-63.3,26.9-73.8,61.5c-3.4,11.3-6.2,22.7-8.6,34.2l57-32.8c1.4-4.1,2.6-8.3,4.1-12.4c1.8-4.9,3-7,3.2-8.1
				c-1.5-0.8-3-1.5-4.4-1.8c3.5,0.8,4.7,0.5,4.4,1.8c4.2,2.2,8.6,5.8,11.9,7.8c37.7,22.1,69.9,42.2,106.2,63.5
				C2858.2,2731.4,2885.8,2692.6,2860,2677.5z"/>
		</g>
		
			<linearGradient id="SVGID_11_" gradientUnits="userSpaceOnUse" x1="4212.4727" y1="2682.4272" x2="4204.041" y2="2453.0771" gradientTransform="matrix(1 0 0 1 -1417.8203 0)">
			<stop  offset="0.5459" style="stop-color:#F37365"/>
			<stop  offset="0.6678" style="stop-color:#F58A63"/>
			<stop  offset="0.9346" style="stop-color:#FDC54C"/>
			<stop  offset="1" style="stop-color:#FFD340"/>
		</linearGradient>
		<path fill="url(#SVGID_11_)" d="M2925.1,2467.6c-2.1-35.3-14.8-98.8-46-89.7c-28.4,8.3-52,14.4-63.1,35.7
			c-0.9,0.8-1.8,1.4-2.6,2.5c-9,12.7-46.2,76-62.3,72.4c-14.8-3.3-13.2-7.5-84.3-47.6c-16.3-9.2-30.9,15.9-14.6,25.1
			c83.7,47.2,88.9,54,106.1,53.3c18-0.8,25.1-9.6,52.1-48.3c1.5,27.4,3.6,79,1.9,191.9c-0.1,9.1-3.8,39.9,1,47.4
			c5.3,8.5,9.1,15,18.6,14.6c9.5-0.4,19-3.3,27.5-7.9c69.6-38,70.2-45.6,72.4-89.1C2934.4,2574.4,2928.3,2520.9,2925.1,2467.6z"/>
		<g>
			<g opacity="0.36">
				<path fill="#A3ADD8" d="M2465.6,2303.9c-58.5,33.9-106.1,6.7-106.1-60.7c0-67.3,47.6-149.7,106.1-183.5
					c58.5-33.9,106.1-6.7,106.1,60.7C2571.7,2187.7,2524.1,2270,2465.6,2303.9z M2465.6,2067.8c-54.7,31.6-99.1,108.5-99.1,171.4
					c0,62.9,44.5,88.3,99.1,56.7c54.7-31.6,99.1-108.6,99.1-171.4C2564.7,2061.5,2520.3,2036.1,2465.6,2067.8z"/>
			</g>
			<g>
				<path opacity="0.36" fill="#A3ADD8" d="M2466.9,2254.9c-35.9,20.8-65.2,4.1-65.2-37.3c0-41.4,29.2-91.9,65.2-112.7
					c35.9-20.8,65.2-4.1,65.2,37.3C2532.1,2183.5,2502.9,2234.1,2466.9,2254.9z M2466.9,2108.9c-34,19.7-61.7,67.6-61.7,106.7
					c0,39.1,27.7,55,61.7,35.3c34-19.7,61.7-67.5,61.7-106.7C2528.6,2105,2500.9,2089.2,2466.9,2108.9z"/>
			</g>
			
				<linearGradient id="SVGID_12_" gradientUnits="userSpaceOnUse" x1="-2919.9006" y1="2037.7166" x2="-2654.5" y2="2037.7166" gradientTransform="matrix(0.866 -0.5 0 1.1547 4880.6953 -1566.6887)">
				<stop  offset="0" style="stop-color:#FAA65B"/>
				<stop  offset="1" style="stop-color:#EE2F71"/>
			</linearGradient>
			<path fill="url(#SVGID_12_)" d="M2581.9,2113.8c0-7.8-5.5-11-12.3-7c-6.8,3.9-12.3,13.5-12.3,21.3
				c-0.6,57.9-40.9,127.2-90.3,155.8c-49.8,28.9-90.4,5.7-90.4-51.7c0-56.8,39.8-126.1,89-155.5c7.7-5.1,12.7-14.1,12.7-21.5
				c0-7.4-5-10.6-11.3-7.5c-64.6,38.8-114.9,126.6-114.9,198.6c0,72.9,51.5,102.3,114.9,65.7c62.7-36.3,113.8-123.9,114.8-196.4
				C2581.8,2115.1,2581.9,2114.4,2581.9,2113.8z"/>
			
				<linearGradient id="SVGID_13_" gradientUnits="userSpaceOnUse" x1="-2869.2485" y1="2037.6985" x2="-2705.3035" y2="2037.6985" gradientTransform="matrix(0.866 -0.5 0 1.1547 4880.6953 -1566.6887)">
				<stop  offset="0" style="stop-color:#FFD340"/>
				<stop  offset="1" style="stop-color:#F37365"/>
			</linearGradient>
			<path fill="url(#SVGID_13_)" d="M2466.9,2098.2c-38.9,22.5-70.6,77.1-71,122c0.1,5.1,3.5,7.1,7.6,4.6c4.2-2.4,7.6-8.3,7.6-13.1
				c0.4-35.8,25.3-78.4,55.8-96.1c30.8-17.8,55.9-3.5,55.9,31.9c0,35.4-25.1,78.8-55.9,96.6c-4.3,2.5-7.7,8.4-7.7,13.2
				s3.4,6.7,7.6,4.3c39.3-22.7,71.1-77.8,71.1-122.9C2537.9,2093.7,2506.1,2075.5,2466.9,2098.2z"/>
		</g>
	</g>
	<g>
		<path fill="#202F60" d="M1871.4,1485.9l-505.7-292.8c-28.7-16.6-28.7-58.1,0-74.6l508.5-294.4c42-24.3,93.8-24.3,135.8,0
			l514.8,298.1c27.6,16,27.6,55.9,0,71.9l-504.1,291.8C1974.5,1512.7,1917.6,1512.7,1871.4,1485.9z"/>
		<linearGradient id="SVGID_14_" gradientUnits="userSpaceOnUse" x1="2471.2878" y1="990.0671" x2="1224.728" y2="990.0671">
			<stop  offset="0.2919" style="stop-color:#E9E9F5"/>
			<stop  offset="0.3379" style="stop-color:#E2E2F2"/>
			<stop  offset="0.4037" style="stop-color:#CFD2EA"/>
			<stop  offset="0.4816" style="stop-color:#B1B8DD"/>
			<stop  offset="0.5679" style="stop-color:#8C98CC"/>
			<stop  offset="0.627" style="stop-color:#7283C0"/>
		</linearGradient>
		<path fill="url(#SVGID_14_)" d="M1365.3,1157.8l509.4-293.7c42.1-24.3,94-24.3,136.1,0l515.8,297.4c6.6,3.8,11.6,9,15,14.8
			c11-18.8,6.1-44.8-15-56.9L2010.8,822c-42.1-24.3-94-24.3-136.1,0l-509.4,293.7c-21.6,12.4-26.9,38.9-16.1,58.3
			C1352.8,1167.6,1358.1,1161.9,1365.3,1157.8z"/>
	</g>
	<g>
		<g opacity="0.9">
			<path opacity="0" fill="#231F5A" d="M1932.6,1367.5c-82,0-160.7-16.2-221.6-45.5c-77.9-37.6-122.6-95-122.6-157.6
				c0-62.6,44.7-120,122.6-157.5c60.9-29.4,139.6-45.5,221.6-45.5c82,0,160.7,16.2,221.6,45.5c77.9,37.6,122.6,95,122.6,157.5
				c0,62.6-44.7,120-122.6,157.5C2093.3,1351.3,2014.6,1367.5,1932.6,1367.5z"/>
			<path opacity="4.761905e-02" fill="#25215D" d="M1716.5,1011.9c59.4-28.6,136.2-44.4,216.1-44.4c80,0,156.8,15.7,216.1,44.4
				c75.6,36.5,118.8,92,118.8,152.5c0,60.5-43.2,116-118.8,152.5c-59.4,28.6-136.2,44.4-216.1,44.4c-80,0-156.8-15.7-216.1-44.4
				c-75.6-36.5-118.8-92-118.8-152.5C1597.6,1104,1640.9,1048.4,1716.5,1011.9z"/>
			<path opacity="9.523810e-02" fill="#272360" d="M1722,1017c57.9-27.9,132.8-43.2,210.6-43.2c77.9,0,152.8,15.3,210.6,43.2
				c73.3,35.3,115.1,89.1,115.1,147.4c0,58.4-41.8,112.1-115.1,147.4c-57.9,27.9-132.8,43.2-210.6,43.2
				c-77.9,0-152.8-15.3-210.6-43.2c-73.3-35.3-115.1-89.1-115.1-147.4C1606.9,1106,1648.7,1052.3,1722,1017z"/>
			<path opacity="0.1429" fill="#2A2563" d="M1727.4,1022.1c56.4-27.2,129.3-42.1,205.2-42.1c75.8,0,148.8,14.9,205.2,42.1
				c71,34.2,111.4,86.1,111.4,142.4c0,56.3-40.4,108.1-111.4,142.4c-56.4,27.2-129.3,42.1-205.2,42.1c-75.8,0-148.8-14.9-205.2-42.1
				c-71-34.2-111.4-86.1-111.4-142.4C1616.1,1108.1,1656.5,1056.3,1727.4,1022.1z"/>
			<path opacity="0.1905" fill="#2C2766" d="M1732.9,1027.1c54.9-26.5,125.9-40.9,199.7-40.9c73.7,0,144.8,14.4,199.7,40.9
				c68.7,33.1,107.6,83.1,107.6,137.3c0,54.2-39,104.2-107.6,137.3c-54.9,26.5-125.9,40.9-199.7,40.9c-73.7,0-144.8-14.4-199.7-40.9
				c-68.7-33.1-107.6-83.1-107.6-137.3C1625.3,1110.2,1664.3,1060.2,1732.9,1027.1z"/>
			<path opacity="0.2381" fill="#2E2968" d="M1738.4,1032.2c53.4-25.7,122.5-39.7,194.2-39.7c71.7,0,140.8,14,194.2,39.7
				c66.3,32,103.9,80.2,103.9,132.2c0,52.1-37.5,100.2-103.9,132.2c-53.4,25.7-122.5,39.7-194.2,39.7c-71.7,0-140.8-14-194.2-39.7
				c-66.3-32-103.9-80.2-103.9-132.2C1634.6,1112.3,1672.1,1064.2,1738.4,1032.2z"/>
			<path opacity="0.2857" fill="#312B6B" d="M1743.9,1037.2c51.9-25,119.1-38.6,188.7-38.6c69.6,0,136.8,13.6,188.7,38.6
				c64,30.9,100.1,77.2,100.1,127.2c0,50-36.1,96.3-100.1,127.2c-51.9,25-119.1,38.6-188.7,38.6c-69.6,0-136.8-13.6-188.7-38.6
				c-64-30.9-100.1-77.2-100.1-127.2C1643.8,1114.4,1679.9,1068.1,1743.9,1037.2z"/>
			<path opacity="0.3333" fill="#332D6E" d="M1749.4,1042.3c50.4-24.3,115.7-37.4,183.2-37.4c67.5,0,132.8,13.1,183.2,37.4
				c61.7,29.8,96.4,74.2,96.4,122.1c0,47.9-34.7,92.4-96.4,122.1c-50.4,24.3-115.7,37.4-183.2,37.4c-67.5,0-132.8-13.1-183.2-37.4
				c-61.7-29.8-96.4-74.2-96.4-122.1C1653,1116.5,1687.7,1072.1,1749.4,1042.3z"/>
			<path opacity="0.381" fill="#353071" d="M1754.9,1047.4c48.9-23.6,112.3-36.3,177.7-36.3c65.4,0,128.8,12.7,177.7,36.3
				c59.4,28.6,92.7,71.3,92.7,117.1c0,45.8-33.2,88.4-92.7,117.1c-48.9,23.6-112.3,36.3-177.7,36.3c-65.4,0-128.8-12.7-177.7-36.3
				c-59.4-28.6-92.7-71.3-92.7-117.1C1662.3,1118.6,1695.5,1076,1754.9,1047.4z"/>
			<path opacity="0.4286" fill="#373274" d="M1760.4,1052.4c47.4-22.8,108.8-35.1,172.2-35.1c63.4,0,124.8,12.3,172.2,35.1
				c57.1,27.5,88.9,68.3,88.9,112c0,43.7-31.8,84.5-88.9,112c-47.4,22.8-108.8,35.1-172.2,35.1c-63.4,0-124.8-12.3-172.2-35.1
				c-57.1-27.5-88.9-68.3-88.9-112C1671.5,1120.7,1703.3,1080,1760.4,1052.4z"/>
			<path opacity="0.4762" fill="#3A3478" d="M1765.9,1057.5c45.9-22.1,105.4-34,166.7-34c61.3,0,120.8,11.8,166.7,34
				c54.8,26.4,85.2,65.3,85.2,106.9c0,41.6-30.4,80.5-85.2,106.9c-45.9,22.1-105.4,34-166.7,34c-61.3,0-120.8-11.8-166.7-34
				c-54.8-26.4-85.2-65.3-85.2-106.9C1680.7,1122.8,1711.1,1083.9,1765.9,1057.5z"/>
			<path opacity="0.5238" fill="#3C367B" d="M1771.4,1062.5c44.4-21.4,102-32.8,161.2-32.8c59.2,0,116.8,11.4,161.2,32.8
				c52.5,25.3,81.4,62.4,81.4,101.9c0,39.5-29,76.6-81.4,101.9c-44.4,21.4-102,32.8-161.2,32.8c-59.2,0-116.8-11.4-161.2-32.8
				c-52.5-25.3-81.4-62.4-81.4-101.9C1690,1124.9,1718.9,1087.8,1771.4,1062.5z"/>
			<path opacity="0.5714" fill="#3E387E" d="M1776.9,1067.6c42.9-20.7,98.6-31.6,155.7-31.6c57.1,0,112.8,11,155.7,31.6
				c50.2,24.2,77.7,59.4,77.7,96.8c0,37.4-27.5,72.6-77.7,96.8c-42.9,20.7-98.6,31.6-155.7,31.6c-57.1,0-112.8-11-155.7-31.6
				c-50.2-24.2-77.7-59.4-77.7-96.8C1699.2,1127,1726.7,1091.8,1776.9,1067.6z"/>
			<path opacity="0.619" fill="#403A81" d="M1782.4,1072.7c41.4-19.9,95.2-30.5,150.2-30.5c55.1,0,108.9,10.5,150.2,30.5
				c47.8,23.1,73.9,56.4,73.9,91.7c0,35.3-26.1,68.7-73.9,91.7c-41.4,19.9-95.2,30.5-150.2,30.5c-55.1,0-108.9-10.5-150.2-30.5
				c-47.8-23.1-73.9-56.4-73.9-91.7C1708.4,1129.1,1734.5,1095.7,1782.4,1072.7z"/>
			<path opacity="0.6667" fill="#423C84" d="M1787.9,1077.7c39.9-19.2,91.7-29.3,144.7-29.3c53,0,104.9,10.1,144.7,29.3
				c45.5,22,70.2,53.5,70.2,86.7c0,33.2-24.7,64.7-70.2,86.7c-39.9,19.2-91.7,29.3-144.7,29.3c-53,0-104.9-10.1-144.7-29.3
				c-45.5-22-70.2-53.5-70.2-86.7C1717.7,1131.2,1742.3,1099.7,1787.9,1077.7z"/>
			<path opacity="0.7143" fill="#453F88" d="M1793.4,1082.8c38.4-18.5,88.3-28.2,139.2-28.2c50.9,0,100.9,9.7,139.2,28.2
				c43.2,20.8,66.5,50.5,66.5,81.6c0,31.1-23.2,60.8-66.5,81.6c-38.4,18.5-88.3,28.2-139.2,28.2c-50.9,0-100.9-9.7-139.2-28.2
				c-43.2-20.8-66.5-50.5-66.5-81.6C1726.9,1133.3,1750.1,1103.6,1793.4,1082.8z"/>
			<path opacity="0.7619" fill="#47418B" d="M1798.9,1087.9c36.9-17.8,84.9-27,133.7-27c48.8,0,96.9,9.2,133.7,27
				c40.9,19.7,62.7,47.5,62.7,76.6c0,29-21.8,56.8-62.7,76.6c-36.9,17.8-84.9,27-133.7,27c-48.8,0-96.9-9.2-133.7-27
				c-40.9-19.7-62.7-47.5-62.7-76.6C1736.1,1135.4,1758,1107.6,1798.9,1087.9z"/>
			<path opacity="0.8095" fill="#49438F" d="M1804.4,1092.9c35.4-17,81.5-25.9,128.2-25.9c46.8,0,92.9,8.8,128.2,25.9
				c38.6,18.6,59,44.6,59,71.5c0,26.9-20.4,52.9-59,71.5c-35.4,17-81.5,25.9-128.2,25.9c-46.8,0-92.9-8.8-128.2-25.9
				c-38.6-18.6-59-44.6-59-71.5C1745.4,1137.5,1765.8,1111.5,1804.4,1092.9z"/>
			<path opacity="0.8571" fill="#4B4592" d="M1809.8,1098c33.9-16.3,78.1-24.7,122.8-24.7c44.7,0,88.9,8.4,122.8,24.7
				c36.3,17.5,55.2,41.6,55.2,66.4c0,24.8-19,48.9-55.2,66.4c-33.9,16.3-78.1,24.7-122.8,24.7c-44.7,0-88.9-8.4-122.8-24.7
				c-36.3-17.5-55.2-41.6-55.2-66.4C1754.6,1139.6,1773.6,1115.5,1809.8,1098z"/>
			<path opacity="0.9048" fill="#4E4896" d="M1815.3,1103c32.3-15.6,74.6-23.5,117.3-23.5c42.6,0,84.9,7.9,117.3,23.5
				c34,16.4,51.5,38.6,51.5,61.4c0,22.7-17.5,45-51.5,61.4c-32.3,15.6-74.6,23.5-117.3,23.5c-42.6,0-84.9-7.9-117.3-23.5
				c-34-16.4-51.5-38.6-51.5-61.4C1763.8,1141.7,1781.4,1119.4,1815.3,1103z"/>
			<path opacity="0.9524" fill="#504A9A" d="M1820.8,1108.1c30.8-14.9,71.2-22.4,111.8-22.4c40.5,0,80.9,7.5,111.8,22.4
				c31.7,15.3,47.8,35.7,47.8,56.3s-16.1,41-47.8,56.3c-30.8,14.9-71.2,22.4-111.8,22.4c-40.5,0-80.9-7.5-111.8-22.4
				c-31.7-15.3-47.8-35.7-47.8-56.3C1773.1,1143.8,1789.2,1123.4,1820.8,1108.1z"/>
			<path fill="#534DA0" d="M2038.9,1215.7c-58.7,28.3-153.8,28.3-212.5,0c-58.7-28.3-58.7-74.2,0-102.5
				c58.7-28.3,153.8-28.3,212.5,0C2097.6,1141.5,2097.6,1187.4,2038.9,1215.7z"/>
		</g>
		<radialGradient id="SVGID_15_" cx="1960.2319" cy="580.9848" r="637.6589" gradientUnits="userSpaceOnUse">
			<stop  offset="0" style="stop-color:#A5B1DA"/>
			<stop  offset="0.8051" style="stop-color:#7166AE"/>
			<stop  offset="0.9452" style="stop-color:#7368AE"/>
			<stop  offset="1" style="stop-color:#756AB0"/>
		</radialGradient>
		<path fill="url(#SVGID_15_)" d="M2254.1,612.9c298.5,414.9-160.4,873.9-575.3,575.3c-9.1-6.6-17.1-14.6-23.7-23.7
			c-298.5-414.9,160.4-873.9,575.3-575.3C2239.5,595.8,2247.5,603.8,2254.1,612.9z"/>
		<linearGradient id="SVGID_16_" gradientUnits="userSpaceOnUse" x1="1714.2089" y1="628.4599" x2="2194.9548" y2="628.4599">
			<stop  offset="0" style="stop-color:#E9E6F2"/>
			<stop  offset="0.584" style="stop-color:#E5E2F0"/>
			<stop  offset="1" style="stop-color:#DDDAED"/>
		</linearGradient>
		<path fill="url(#SVGID_16_)" d="M2124.6,726.6c-93.9,54.2-246.1,54.2-339.9,0c-93.9-54.2-93.9-142.1,0-196.3
			c93.9-54.2,246.1-54.2,339.9,0C2218.4,584.5,2218.4,672.4,2124.6,726.6z"/>
		<linearGradient id="SVGID_17_" gradientUnits="userSpaceOnUse" x1="1759.7263" y1="628.4599" x2="2149.4373" y2="628.4599">
			<stop  offset="0" style="stop-color:#2D2B73"/>
			<stop  offset="1" style="stop-color:#3A85B7"/>
		</linearGradient>
		<path fill="url(#SVGID_17_)" d="M2092.4,708c-76.1,43.9-199.5,43.9-275.6,0c-76.1-43.9-76.1-115.2,0-159.1
			c76.1-43.9,199.5-43.9,275.6,0C2168.5,592.8,2168.5,664.1,2092.4,708z"/>
		<linearGradient id="SVGID_18_" gradientUnits="userSpaceOnUse" x1="1759.7412" y1="628.4661" x2="2149.4221" y2="628.4661">
			<stop  offset="0" style="stop-color:#7166AE"/>
			<stop  offset="1" style="stop-color:#8F90C7"/>
		</linearGradient>
		<path fill="url(#SVGID_18_)" d="M2143.9,655.1c-8.1,19.4-25.3,37.8-51.5,52.9c-76.1,44-199.5,44-275.6,0
			c-26.2-15.1-43.4-33.5-51.5-52.9c-15.5-36.8,1.7-77.4,51.5-106.1c76.1-43.9,199.5-43.9,275.6,0
			C2142.2,577.7,2159.4,618.2,2143.9,655.1z"/>
		<path opacity="0.8" fill="#EFCEE3" d="M2143.9,655.1c-1.9,4.4-4.2,8.8-7,13.1c-9.4,14.6-24.3,28.2-44.5,39.9
			c-76.1,44-199.5,44-275.6,0c-20.2-11.7-35.1-25.3-44.5-39.9c-2.9-4.3-5.2-8.7-7-13.1c8.1-19.4,25.3-37.8,51.5-53
			c76.1-43.9,199.5-43.9,275.6,0C2118.6,617.2,2135.8,635.6,2143.9,655.1z"/>
		<path opacity="0.8" fill="#EFCEE3" d="M2136.9,668.1c-1.5,2.3-3.1,4.5-4.8,6.7c-9.3,12-22.6,23.2-39.7,33.1
			c-76.1,44-199.5,44-275.6,0c-17.1-9.9-30.3-21.1-39.7-33.1c-1.8-2.2-3.4-4.5-4.8-6.8c9.5-14.5,24.3-28.1,44.5-39.8
			c76.1-43.9,199.5-43.9,275.6,0C2112.6,640,2127.4,653.6,2136.9,668.1z"/>
		<path opacity="0.8" fill="#EFCEE3" d="M2132,674.9c-9.3,12-22.6,23.2-39.7,33.1c-76.1,44-199.5,44-275.6,0
			c-17.1-9.9-30.3-21.1-39.7-33.1c9.3-12,22.6-23.2,39.7-33.1c76.1-43.9,199.5-43.9,275.6,0C2109.4,651.6,2122.7,662.9,2132,674.9z"
			/>
		<g opacity="0.8">
			<path fill="#7155A3" d="M1954.6,706.8c-46.5,0-93-10.2-128.4-30.7c-22.9-13.2-39.5-29.8-48.1-48.1
				c-17.7-38.1,0.7-78.7,48.1-106.1c70.8-40.9,186-40.9,256.8,0c47.4,27.4,65.8,68,48.1,106.1c-8.6,18.2-25.2,34.9-48.1,48.1
				C2047.6,696.6,2001.1,706.8,1954.6,706.8z M1954.6,501.4c-44.7,0-89.3,9.8-123.4,29.5c-43.1,24.9-59.5,59.6-44,93
				c7.7,16.3,22.9,31.4,44,43.6c68,39.3,178.7,39.3,246.7,0c21.1-12.2,36.3-27.3,44-43.6c15.5-33.4-0.9-68.1-44-93
				C2043.9,511.2,1999.3,501.4,1954.6,501.4z"/>
		</g>
		<g opacity="0.6">
			<path fill="#7155A3" d="M1954.6,614.8c-46.5,0-93-10.2-128.4-30.7c-22.9-13.2-39.5-29.8-48.1-48.1
				c-17.7-38.1,0.7-78.7,48.1-106.1c70.8-40.9,186-40.9,256.8,0c47.4,27.4,65.8,68,48.1,106.1c-8.6,18.2-25.2,34.9-48.1,48.1
				C2047.6,604.5,2001.1,614.8,1954.6,614.8z M1954.6,409.3c-44.7,0-89.3,9.8-123.4,29.5c-43.1,24.9-59.5,59.6-44,93
				c7.7,16.3,22.9,31.4,44,43.6c68,39.3,178.7,39.3,246.7,0c21.1-12.2,36.3-27.3,44-43.6c15.5-33.4-0.9-68.1-44-93
				C2043.9,419.1,1999.3,409.3,1954.6,409.3z"/>
		</g>
		<g opacity="0.4">
			<path fill="#7155A3" d="M1954,522.7c-46.5-0.3-93-10.7-128.3-31.4c-22.8-13.3-39.4-30.1-47.8-48.3
				c-17.5-38.2,1.1-78.7,48.7-105.8c71-40.5,186.2-39.9,256.8,1.4c47.2,27.6,65.5,68.4,47.5,106.3c-8.7,18.2-25.4,34.7-48.3,47.8
				C2047.1,512.9,2000.5,522.9,1954,522.7z M1955.1,317.2c-44.7-0.2-89.4,9.3-123.5,28.8c-43.2,24.6-59.8,59.3-44.5,92.8
				c7.6,16.4,22.7,31.5,43.7,43.8c67.8,39.7,178.5,40.2,246.7,1.3c21.2-12.1,36.5-27.1,44.2-43.4c15.7-33.3-0.5-68.1-43.5-93.2
				C2044.4,327.5,1999.8,317.4,1955.1,317.2z"/>
		</g>
		<g opacity="0.15">
			<path fill="#7155A3" d="M1954.6,430.6c-46.5,0-93-10.2-128.4-30.7c-22.9-13.2-39.5-29.8-48.1-48.1
				c-17.7-38.1,0.7-78.7,48.1-106.1c70.8-40.9,186-40.9,256.8,0c47.4,27.4,65.8,68,48.1,106.1c-8.6,18.2-25.2,34.9-48.1,48.1
				C2047.6,420.4,2001.1,430.6,1954.6,430.6z M1954.6,225.1c-44.7,0-89.3,9.8-123.4,29.5c-43.1,24.9-59.5,59.6-44,93
				c7.7,16.3,22.9,31.4,44,43.6c68,39.3,178.7,39.3,246.7,0c21.1-12.2,36.3-27.3,44-43.6c15.5-33.4-0.9-68.1-44-93
				C2043.9,234.9,1999.3,225.1,1954.6,225.1z"/>
		</g>
		<path opacity="0.2" fill="#7155A3" d="M1920.3,121.6c11.9,16.6-6.4,34.9-23,23c-0.4-0.3-0.7-0.6-1-1c-11.9-16.6,6.4-34.9,23-23
			C1919.7,120.9,1920.1,121.2,1920.3,121.6z"/>
		<path opacity="0.1" fill="#7155A3" d="M2038.4,186.4c5.9,8.3-3.2,17.4-11.5,11.5c-0.2-0.2-0.4-0.4-0.6-0.6
			c-5.9-8.3,3.2-17.4,11.5-11.5C2038.1,186,2038.3,186.2,2038.4,186.4z"/>
		<path opacity="0.6" fill="#7155A3" d="M1904.5,466.8c11.9,16.6-6.4,34.9-23,23c-0.4-0.3-0.7-0.6-1-1c-11.9-16.6,6.4-34.9,23-23
			C1903.9,466.1,1904.2,466.4,1904.5,466.8z"/>
		<path opacity="0.5" fill="#7155A3" d="M2073.1,533.8c11.9,16.6-6.4,34.9-23,23c-0.4-0.3-0.7-0.6-1-1c-11.9-16.6,6.4-34.9,23-23
			C2072.5,533.1,2072.9,533.4,2073.1,533.8z"/>
		<path opacity="0.4" fill="#7155A3" d="M1987.7,270.3c23.4,32.5-12.6,68.4-45.1,45.1c-0.7-0.5-1.4-1.2-1.9-1.9
			c-23.4-32.5,12.6-68.5,45.1-45.1C1986.5,268.9,1987.2,269.6,1987.7,270.3z"/>
	</g>
	<g>
		<path fill="#202F60" d="M716,3211.5c0,9.4,6.7,20.9,15,25.7c8.3,4.7,15,0.9,15-8.5c0-9.4-6.7-21-15-25.7
			C722.7,3198.3,716,3202.1,716,3211.5z"/>
		<path fill="#202F60" d="M663.3,3181.3c0,9.4,6.7,20.9,15,25.7c8.3,4.7,15,0.9,15-8.5c0-9.4-6.7-20.9-15-25.7
			C670,3168,663.3,3171.8,663.3,3181.3z"/>
		<path fill="#EE579D" d="M610.7,3151c0,9.4,6.7,21,15,25.7c8.3,4.8,15,0.9,15-8.5s-6.7-20.9-15-25.7
			C617.4,3137.7,610.7,3141.5,610.7,3151z"/>
		<path fill="#EE579D" d="M558,3120.7c0,9.4,6.7,20.9,15,25.7c8.3,4.7,15,0.9,15-8.5c0-9.4-6.7-20.9-15-25.7
			C564.7,3107.5,558,3111.3,558,3120.7z"/>
		<path fill="#EE579D" d="M505.4,3090.4c0,9.4,6.7,20.9,15,25.7c8.3,4.8,15,0.9,15-8.5c0-9.4-6.7-20.9-15-25.7
			C512.1,3077.2,505.4,3081,505.4,3090.4z"/>
		<path fill="#202F60" d="M452.7,3060.1c0,9.4,6.7,20.9,15,25.7c8.3,4.7,15,0.9,15-8.5s-6.7-20.9-15-25.7
			C459.4,3046.9,452.7,3050.7,452.7,3060.1z"/>
		<path fill="#202F60" d="M400.1,3029.9c0,9.4,6.7,20.9,15,25.7c8.3,4.8,15,0.9,15-8.5c0-9.4-6.7-20.9-15-25.7
			C406.8,3016.6,400.1,3020.4,400.1,3029.9z"/>
	</g>
</g>
<g id="Layer_2">
</g>
</svg>
