<?xml version="1.0" encoding="utf-8"?>
<!-- Generator: Adobe Illustrator 18.1.1, SVG Export Plug-In . SVG Version: 6.00 Build 0)  -->
<svg version="1.1" id="Layer_1" xmlns="http://www.w3.org/2000/svg" xmlns:xlink="http://www.w3.org/1999/xlink" x="0px" y="0px"
	 viewBox="0 0 769.4 793.4" enable-background="new 0 0 769.4 793.4" xml:space="preserve">
<g>
	<path fill="#F1F0F8" d="M63.8,357.3L3.6,391.9c-3.4,2-3.4,6.9,0,8.8l60.5,34.8c5,2.9,11.2,2.9,16.2,0l61.2-35.2
		c3.3-1.9,3.3-6.6,0-8.5l-60-34.5C76,354.2,69.3,354.2,63.8,357.3z"/>
	
		<linearGradient id="SVGID_1_" gradientUnits="userSpaceOnUse" x1="-140.6423" y1="-736.8881" x2="-303.3948" y2="-736.8881" gradientTransform="matrix(-1 0 0 -1 -150.709 -320.9664)">
		<stop  offset="0.4222" style="stop-color:#FFFFFF"/>
		<stop  offset="0.4462" style="stop-color:#F5F5FA"/>
		<stop  offset="0.4805" style="stop-color:#E0E2F2"/>
		<stop  offset="0.521" style="stop-color:#C2C7E4"/>
		<stop  offset="0.5663" style="stop-color:#9BA5D3"/>
		<stop  offset="0.6116" style="stop-color:#7283C0"/>
	</linearGradient>
	<path fill="url(#SVGID_1_)" d="M3.6,396.1l60.6,34.7c5,2.9,11.2,2.9,16.2,0l61.4-35.1c0.8-0.4,1.4-1.1,1.8-1.8
		c1.3,2.2,0.7,5.3-1.8,6.7l-61.4,35.1c-5,2.9-11.2,2.9-16.2,0L3.6,401.1c-2.6-1.5-3.2-4.6-1.9-6.9C2.1,394.9,2.7,395.6,3.6,396.1z"
		/>
</g>
<g>
	<path fill="#F5959C" d="M62.8,292.7c1.5-2.6,6.1-0.3,4.7,2.3c-2.7,4.8-5.5,9.6-8.2,14.5l-5.4-1.5C56.4,302.7,59.9,297.7,62.8,292.7
		z"/>
	<path fill="#2B4381" d="M66.9,391.1c-1.6-0.8-4.3-0.7-6.1,0.2l-2.4,1.1c-1.8,0.9-2,2.2-0.4,2.9c1.6,0.8,4.3,0.7,6.1-0.2l2.4-1.1
		C68.3,393.2,68.5,391.8,66.9,391.1z"/>
	<path fill="#2B4381" d="M80.2,397.8c-1.6-0.7-4.3-0.7-6.1,0.2l-2.4,1.1c-1.8,0.9-2,2.2-0.4,2.9c1.6,0.8,4.3,0.7,6.1-0.2l2.4-1.1
		C81.6,399.9,81.8,398.6,80.2,397.8z"/>
	<g>
		<path fill="#F5959C" d="M65,356.3c0.6,10.7,0.9,23.2,1.5,33.9c0.2,2.9-5.2,2.9-5.4,0c-0.6-10.7-1.3-21.5-1.9-32.2
			c-0.2-2.9,5.2-2.9,5.4,0L65,356.3z"/>
	</g>
	<g>
		<path fill="#F5959C" d="M79.2,361.3c0.3,12.1,0.5,24.1,0.8,36.2c0.1,2.9-5.3,2.9-5.4,0c-0.3-12.1-2-26.2-2.3-38.3
			C72.2,356.3,79.1,358.4,79.2,361.3L79.2,361.3z"/>
	</g>
	<linearGradient id="SVGID_2_" gradientUnits="userSpaceOnUse" x1="93.2807" y1="304.7344" x2="68.8037" y2="342.3913">
		<stop  offset="1.081080e-02" style="stop-color:#A4AED8"/>
		<stop  offset="1" style="stop-color:#E8F6FE"/>
	</linearGradient>
	<path fill="url(#SVGID_2_)" d="M61,300.3c-1.3,5.2-1.1,21.7-2.2,27c-3,14.1-5.3,17.7-0.8,33.2c0.4,1.3,1.1,2.6,2.2,3.7
		c4.5,4.6,24.6,9.4,28.1,6.9c1.8-1.2,0.9-4-0.3-6.2c-1.9-3.6-11.5-16.9-10.7-32c0.5-8.9,3.2-17.8,3.7-26.7c0.2-3.4,0.3-7.1-1.7-10.6
		c-2.1-3.6-9.9-5.8-13.9-4.6C61,292.3,61.9,296.7,61,300.3z"/>
	<g>
		<path fill="#F5959C" d="M80.5,298.3c0.8,4.2,1.6,8.3,2.4,12.5c0.6,3.1,2.8,8.4,0.4,11.3c-4.7,5.7-9.7-0.7-23.6-10.4
			c-2.7-1.9,0-4.4,2.7-2.6c2.8,2,5.7,3.9,8.5,5.9c1.8,1.2,3.6,2.9,5.6,3.9c1.3,0.6,1.8,1.3,2.4-0.2c0.4-1-0.3-3.3-0.5-4.3
			c-1.8-9.3-1.4-5.5-3.2-14.9C74.8,296.7,80,295.5,80.5,298.3L80.5,298.3z"/>
	</g>
	<path fill="#F5959C" d="M53.8,307.9l5.4,1.5c-0.3,0.5-0.6,1.1-0.9,1.6c-0.2,0.4-1.1,1.4-0.8,1.7c0.3,0.3,3.9,0.2,4.4,0.2
		c3.5,0.2,6.9,0.4,10.4,0.5c3.4,0.2,3.2,3.1-0.2,2.9c-5.5-0.3-23,2.8-19.4-5.7C52.9,309.8,53.4,308.8,53.8,307.9z"/>
	<path fill="#F5959C" d="M74.1,293.8c1.1-0.5,1-1.4-0.3-2.1l-1.6-0.8c-1.3-0.6-3.2-0.7-4.3-0.1c-1.1,0.5-1,1.4,0.3,2.1l1.6,0.8
		C71.1,294.3,73,294.4,74.1,293.8z"/>
	<g>
		<path fill="#F5959C" d="M70.8,280.2c0.4-0.1,0.5,0.6,0.6,0.9c0.2,0.5,0,1.2,0.6,1.6c0.1-0.1,0.1-0.2,0.1-0.4c0-0.8,0.4-1.4,1-1.4
			c0.5,0,1,0.6,1,1.4c0,0.7-0.4,1.3-0.8,1.4c0.1,0.5,0.1,0.6,0.1,0.7c0,2.3,0.1,4.7,0.1,7c0,1.7-4.3,1.7-4.4,0
			c0-1.4-0.1-2.8-0.1-4.2h-0.5c-2.5,0-4.5-1.7-4.5-3.7v-5.6C67.4,277.2,64.9,281.1,70.8,280.2z"/>
		<path fill="#202F60" d="M65.1,275.6c1.1-0.9,2.2-1.2,3.8-1.2c0.6-0.2,0.7-0.3,0.8-0.4c0.5-0.3,0.2-1,0-1.5
			c-0.4-0.9-0.3-1.9,0.4-2.6c0.7-0.6,1.7-0.7,2.7-0.5c1.8,0.3,3.6,1.6,3.5,3.2c-0.1,1.4-1.5,2.5-1.2,3.9c0.1,0.3,0.2,0.6,0.3,0.9
			c0.3,1,0.2,2.3-0.2,3.4c0,0.2-0.1,0.4-0.2,0.6c-0.1,0.2-0.2,0.4-0.3,0.6c-0.2,0.5-0.4,1-0.7,1.4c-0.2,0.3-0.5,0.6-0.8,0.9
			c0-0.1,0-0.3,0-0.4c0.4-0.4,0.8-1,0.8-1.7c0-0.8-0.4-1.4-1-1.4c-0.5,0-1,0.6-1,1.4c0,0.2,0,0.3,0.1,0.5c-0.7-0.4-0.5-1.1-0.7-1.6
			c-0.1-0.3-0.2-1-0.6-0.9c-6,0.9-3.4-3-6.7-2.3C63.4,277.9,64.6,276,65.1,275.6z"/>
	</g>
	<path fill="#F5959C" d="M73.8,312.2c1.4,0,2.6,0.9,2.7,2.1c0,1.2-1.1,2.2-2.5,2.2l-4.1,0.1c-1.4,0-2.6-0.9-2.7-2.1
		c0-1.2,1.1-2.2,2.5-2.2L73.8,312.2z"/>
	<path fill="#F5959C" d="M59,307.7c1.4,0,2.6,0.9,2.7,2.1c0,1.2-1.1,2.2-2.5,2.2l-4.1,0.1c-1.4,0-2.6-0.9-2.7-2.1
		c0-1.2,1.1-2.2,2.5-2.2L59,307.7z"/>
</g>
<g>
	<g>
		<g>
			<linearGradient id="SVGID_3_" gradientUnits="userSpaceOnUse" x1="257.5155" y1="410.8453" x2="476.0056" y2="410.8453">
				<stop  offset="0.2919" style="stop-color:#EAE9F5"/>
				<stop  offset="0.3893" style="stop-color:#E2E2F1"/>
				<stop  offset="0.5285" style="stop-color:#CFCEE8"/>
				<stop  offset="0.627" style="stop-color:#BFBDDF"/>
			</linearGradient>
			<path fill="url(#SVGID_3_)" d="M532.1,332.4v72.1c0,3.5-1.7,7-5.2,9l-122.7,71c-11.2,6.5-25,6.5-36.2,0l-122.2-70.7
				c-3.5-2-5.2-5.7-5-9.3H240v-72.1H532.1z"/>
			<path fill="#FFFFFF" d="M404.1,411.6l122.7-71c6.9-4,6.9-14.1,0-18.1l-123.3-71.3c-10.2-5.9-22.7-5.9-32.9,0l-124.9,72.2
				c-6.7,3.9-6.7,13.6,0,17.4l122.2,70.7C379.1,418.1,392.9,418.1,404.1,411.6z"/>
		</g>
		<path fill="#212F60" d="M419.3,431.9c-2.4,1.4-4.3,5.1-4.3,8.2c0,3.2,1.9,4.6,4.3,3.3l79.1-45.8l0.1-11.5L419.3,431.9z"/>
		<path fill="#212F60" d="M509.6,379.7l-11.1,6.4l-0.1,11.5l11.2-6.5c2.4-1.4,4.3-5.1,4.3-8.2C513.9,379.8,512,378.3,509.6,379.7z"
			/>
	</g>
	<g>
		<path fill="#212F60" d="M359.4,440.5c0,3.2,2.2,7,5,8.6c2.7,1.6,5,0.3,5-2.8c0-3.2-2.2-7-5-8.6
			C361.7,436.1,359.4,437.3,359.4,440.5z"/>
		<path fill="#212F60" d="M342,430.4c0,3.2,2.2,7,5,8.6c2.7,1.6,5,0.3,5-2.8c0-3.2-2.2-7-5-8.6C344.2,425.9,342,427.2,342,430.4z"/>
		<path fill="#B759A2" d="M324.5,420.3c0,3.2,2.2,7,5,8.6c2.7,1.6,5,0.3,5-2.8c0-3.2-2.2-7-5-8.6
			C326.7,415.8,324.5,417.1,324.5,420.3z"/>
		<path fill="#B759A2" d="M307,410.1c0,3.2,2.2,7,5,8.6c2.7,1.6,5,0.3,5-2.8c0-3.2-2.2-7-5-8.6C309.2,405.7,307,407,307,410.1z"/>
		<path fill="#B759A2" d="M289.5,400c0,3.2,2.2,7,5,8.6c2.7,1.6,5,0.3,5-2.8c0-3.2-2.2-7-5-8.6C291.8,395.6,289.5,396.9,289.5,400z"
			/>
		<path fill="#212F60" d="M272.1,389.9c0,3.2,2.2,7,5,8.6c2.7,1.6,5,0.3,5-2.8c0-3.2-2.2-7-5-8.6
			C274.3,385.5,272.1,386.8,272.1,389.9z"/>
		<path fill="#212F60" d="M254.6,379.8c0,3.2,2.2,7,5,8.6c2.7,1.6,5,0.3,5-2.8c0-3.2-2.2-7-5-8.6
			C256.8,375.4,254.6,376.7,254.6,379.8z"/>
	</g>
</g>
<g id="g2953" transform="matrix(0.82115644,0,0,-0.82115644,728.59448,389.28316)">
	<g id="g2955">
		<g>
			<defs>
				<rect id="SVGID_4_" x="-533.4" y="31.1" width="196.4" height="169.3"/>
			</defs>
			<clipPath id="SVGID_5_">
				<use xlink:href="#SVGID_4_"  overflow="visible"/>
			</clipPath>
			<g id="g2957" clip-path="url(#SVGID_5_)">
				<g id="g2963" transform="translate(52.9192,10.7748)">
					<path id="path2965" fill="#F1F0F8" d="M-432.5,37.5l11.7,57.2l-27.8-37.2l-1.3-6.2c-0.9-4.1,1-8.4,4.6-10.5l14.6-8.5
						C-432.2,33.6-433,35.4-432.5,37.5"/>
				</g>
			</g>
		</g>
	</g>
	<g id="g2967">
		<g>
			<defs>
				<path id="SVGID_6_" d="M-357,199.5c10.7-12.9,17.9-30.2,17.7-45.2l0,0c-0.1-6-1.3-11-3.5-14.8l0,0c-0.9-1.6-2-3-3.2-4.2l0,0
					c0-0.1-22.1-29.7-22.1-29.7l0,0l-11.7-57.2c-0.4-2.1,0.4-3.9,1.8-5.1l0,0c1.7-1.4,4.2-1.8,6.3-0.4l0,0l8.8,5.9
					c2.5,1.7,4.3,4.3,4.9,7.3l0,0l9.9,48.3c-1.6-0.8-3-0.9-4.1-0.3l0,0l-3,1.6c-0.1,0-0.3,0.1-0.3,0.1l0,0c-1,0.7-1.6,2-1.6,3.8l0,0
					c0,3.9,2.7,8.6,6.1,10.5l0,0c1.7,1,3.3,1.1,4.4,0.4l0,0l1.5-0.8l4.8,23.4v0.1l5.8,3.2c3.3,1.8,5.3,5.3,5.3,9l0,0v16.5l10.8,14.4
					c0.4,0.5,0.9,1,1.2,1.7l0,0c0.8,1.5,1.3,3.4,1.4,5.8l0,0v0.3c-0.1,6.4-3.5,13.9-8.3,18.9l0,0L-357,199.5z"/>
			</defs>
			<clipPath id="SVGID_7_">
				<use xlink:href="#SVGID_6_"  overflow="visible"/>
			</clipPath>
			<g id="g2969" clip-path="url(#SVGID_7_)">
				<g id="g2975">
					<g id="g2977">
						
							<linearGradient id="path2987_1_" gradientUnits="userSpaceOnUse" x1="-883.9044" y1="-240.569" x2="-880.5946" y2="-240.569" gradientTransform="matrix(0 44.1728 44.1728 0 10278.9102 38950.8477)">
							<stop  offset="0" style="stop-color:#E8E8F5"/>
							<stop  offset="0.3328" style="stop-color:#E8E8F5"/>
							<stop  offset="1" style="stop-color:#BFBDDF"/>
						</linearGradient>
						<path id="path2987" fill="url(#path2987_1_)" d="M-357,199.5c10.7-12.9,17.9-30.2,17.7-45.2l0,0c-0.1-6-1.3-11-3.5-14.8l0,0
							c-0.9-1.6-2-3-3.2-4.2l0,0c0-0.1-22.1-29.7-22.1-29.7l0,0l-11.7-57.2c-0.4-2.1,0.4-3.9,1.8-5.1l0,0c1.7-1.4,4.2-1.8,6.3-0.4
							l0,0l8.8,5.9c2.5,1.7,4.3,4.3,4.9,7.3l0,0l9.9,48.3c-1.6-0.8-3-0.9-4.1-0.3l0,0l-3,1.6c-0.1,0-0.3,0.1-0.3,0.1l0,0
							c-1,0.7-1.6,2-1.6,3.8l0,0c0,3.9,2.7,8.6,6.1,10.5l0,0c1.7,1,3.3,1.1,4.4,0.4l0,0l1.5-0.8l4.8,23.4v0.1l5.8,3.2
							c3.3,1.8,5.3,5.3,5.3,9l0,0v16.5l10.8,14.4c0.4,0.5,0.9,1,1.2,1.7l0,0c0.8,1.5,1.3,3.4,1.4,5.8l0,0v0.3
							c-0.1,6.4-3.5,13.9-8.3,18.9l0,0L-357,199.5z"/>
					</g>
				</g>
			</g>
		</g>
	</g>
	<g id="g2989">
		<g>
			<defs>
				<path id="SVGID_8_" d="M-334.7,218.7c-1,0-1.9-0.2-2.7-0.5l0,0l-32.1-6.9c0.9-0.6,1.8-1.3,2.6-1.9l0,0c3.6-2.8,6.9-6.2,10-9.9
					l0,0l33,13.6c-1.5,1.5-3.1,2.8-4.7,3.8l0,0c-1.9,1.1-3.7,1.7-5.3,1.9l0,0c-0.2,0-0.4,0-0.6,0l0,0H-334.7z"/>
			</defs>
			<clipPath id="SVGID_9_">
				<use xlink:href="#SVGID_8_"  overflow="visible"/>
			</clipPath>
			<g id="g2991" clip-path="url(#SVGID_9_)">
				<g id="g2997">
					<g id="g2999">
						
							<linearGradient id="path3009_1_" gradientUnits="userSpaceOnUse" x1="-926.5342" y1="-270.2708" x2="-923.2244" y2="-270.2708" gradientTransform="matrix(11.3198 0 0 -11.3198 10118.5781 -2850.3101)">
							<stop  offset="0" style="stop-color:#E8E8F5"/>
							<stop  offset="0.3328" style="stop-color:#E8E8F5"/>
							<stop  offset="1" style="stop-color:#BFBDDF"/>
						</linearGradient>
						<path id="path3009" fill="url(#path3009_1_)" d="M-334.7,218.7c-1,0-1.9-0.2-2.7-0.5l0,0l-32.1-6.9c0.9-0.6,1.8-1.3,2.6-1.9
							l0,0c3.6-2.8,6.9-6.2,10-9.9l0,0l33,13.6c-1.5,1.5-3.1,2.8-4.7,3.8l0,0c-1.9,1.1-3.7,1.7-5.3,1.9l0,0c-0.2,0-0.4,0-0.6,0l0,0
							H-334.7z"/>
					</g>
				</g>
			</g>
		</g>
	</g>
	<g id="g3011">
		<g>
			<defs>
				<path id="SVGID_10_" d="M-394.9,216.6l-125.7-26.9c2.2,0.2,4.5,0.2,6.8,0.1l0,0c8.5-0.6,17.9-3.6,27.7-9.3l0,0
					c4.4-2.6,8.8-5.6,13-8.9l0,0c31.8-25.4,55.8-71.5,55.8-110.1l0,0c0-12.2-2.5-22.3-6.8-30.2l0,0c-1.4-2.6-3-4.9-4.8-7l0,0
					l0.1-0.2l33.1,44.3l27.8,37.2l22.1,29.6c1.2,1.3,2.2,2.7,3.1,4.3l0,0c2.1,3.8,3.4,8.8,3.5,14.8l0,0c0.1,15-7.1,32.3-17.7,45.2
					l0,0c-3.1,3.7-6.5,7.1-10,9.9l0,0c-0.9,0.7-1.7,1.3-2.6,1.9l0,0c-1,0.7-1.9,1.3-2.9,1.9l0,0c-4.8,2.9-9.4,4.4-13.6,4.7l0,0
					c-0.6,0-1.1,0.1-1.7,0.1l0,0C-390.4,218-392.7,217.5-394.9,216.6"/>
			</defs>
			<clipPath id="SVGID_11_">
				<use xlink:href="#SVGID_10_"  overflow="visible"/>
			</clipPath>
			<g id="g3013" clip-path="url(#SVGID_11_)">
				<g id="g3019">
					<g id="g3021">
						
							<linearGradient id="path3035_1_" gradientUnits="userSpaceOnUse" x1="-906.0878" y1="-228.0443" x2="-902.778" y2="-228.0443" gradientTransform="matrix(23.0883 -30.4611 -30.4611 -23.0883 13506.0537 -32655.2559)">
							<stop  offset="0" style="stop-color:#F37226"/>
							<stop  offset="0.18" style="stop-color:#F37226"/>
							<stop  offset="0.2077" style="stop-color:#F37226"/>
							<stop  offset="0.4612" style="stop-color:#EF413A"/>
							<stop  offset="1" style="stop-color:#EF413A"/>
						</linearGradient>
						<path id="path3035" fill="url(#path3035_1_)" d="M-394.9,216.6l-125.7-26.9c2.2,0.2,4.5,0.2,6.8,0.1l0,0
							c8.5-0.6,17.9-3.6,27.7-9.3l0,0c4.4-2.6,8.8-5.6,13-8.9l0,0c31.8-25.4,55.8-71.5,55.8-110.1l0,0c0-12.2-2.5-22.3-6.8-30.2l0,0
							c-1.4-2.6-3-4.9-4.8-7l0,0l0.1-0.2l33.1,44.3l27.8,37.2l22.1,29.6c1.2,1.3,2.2,2.7,3.1,4.3l0,0c2.1,3.8,3.4,8.8,3.5,14.8l0,0
							c0.1,15-7.1,32.3-17.7,45.2l0,0c-3.1,3.7-6.5,7.1-10,9.9l0,0c-0.9,0.7-1.7,1.3-2.6,1.9l0,0c-1,0.7-1.9,1.3-2.9,1.9l0,0
							c-4.8,2.9-9.4,4.4-13.6,4.7l0,0c-0.6,0-1.1,0.1-1.7,0.1l0,0C-390.4,218-392.7,217.5-394.9,216.6"/>
					</g>
				</g>
			</g>
		</g>
	</g>
	<g id="g3049">
		<g>
			<defs>
				<path id="SVGID_12_" d="M-520.5,188.3c-4.3-1.9-8.2-4.7-11.4-8.5l0,0c-6.9-8-11-20-11-35.5l0,0c0-42,29.6-93.2,66-114.3l0,0
					c12.6-7.3,24.3-10.1,34.3-8.8l0,0c3.2,0.4,6.3,1.2,9.1,2.5l0,0c1.2,0.5,2.3,1,3.4,1.7l0,0c0.6,0.4,1.2,0.7,1.8,1.1l0,0
					c4.4,3,8.1,7.2,10.9,12.4l0,0c4.1,7.5,6.5,17.2,6.5,29l0,0c0,13.9-3.3,28.9-8.9,43.4l0,0l-41-26.3c-3.9-3.6-10.1-3.9-17,0.2l0,0
					c-11.9,6.9-21.5,23.5-21.5,37.2l0,0c0,6.4,2.1,11,5.6,13.4l0,0l-0.1,0.1l43.3,24.7c-8.1,8.8-17.1,16.3-26.5,21.7l0,0
					c-9.5,5.5-18.5,8.4-26.6,8.9l0,0c-1,0.1-2,0.1-2.9,0.1l0,0C-511.5,191.1-516.2,190.1-520.5,188.3"/>
			</defs>
			<clipPath id="SVGID_13_">
				<use xlink:href="#SVGID_12_"  overflow="visible"/>
			</clipPath>
			<g id="g3051" clip-path="url(#SVGID_13_)">
				<g id="g3057">
					<g id="g3059">
						
							<linearGradient id="path3073_1_" gradientUnits="userSpaceOnUse" x1="-908.2603" y1="-244.4063" x2="-904.4385" y2="-244.4063" gradientTransform="matrix(28.3668 0 0 -28.3668 25221.6348 -6827.0439)">
							<stop  offset="0" style="stop-color:#F37226"/>
							<stop  offset="0.18" style="stop-color:#F37226"/>
							<stop  offset="0.2077" style="stop-color:#F37226"/>
							<stop  offset="0.4612" style="stop-color:#EF413A"/>
							<stop  offset="1" style="stop-color:#EF413A"/>
						</linearGradient>
						<path id="path3073" fill="url(#path3073_1_)" d="M-520.5,188.3c-4.3-1.9-8.2-4.7-11.4-8.5l0,0c-6.9-8-11-20-11-35.5l0,0
							c0-42,29.6-93.2,66-114.3l0,0c12.6-7.3,24.3-10.1,34.3-8.8l0,0c3.2,0.4,6.3,1.2,9.1,2.5l0,0c1.2,0.5,2.3,1,3.4,1.7l0,0
							c0.6,0.4,1.2,0.7,1.8,1.1l0,0c4.4,3,8.1,7.2,10.9,12.4l0,0c4.1,7.5,6.5,17.2,6.5,29l0,0c0,13.9-3.3,28.9-8.9,43.4l0,0
							l-41-26.3c-3.9-3.6-10.1-3.9-17,0.2l0,0c-11.9,6.9-21.5,23.5-21.5,37.2l0,0c0,6.4,2.1,11,5.6,13.4l0,0l-0.1,0.1l43.3,24.7
							c-8.1,8.8-17.1,16.3-26.5,21.7l0,0c-9.5,5.5-18.5,8.4-26.6,8.9l0,0c-1,0.1-2,0.1-2.9,0.1l0,0
							C-511.5,191.1-516.2,190.1-520.5,188.3"/>
					</g>
				</g>
			</g>
		</g>
	</g>
	<g id="g3075">
		<g>
			<defs>
				<path id="SVGID_14_" d="M-497.5,134.4l0.1-0.1c3.9,2.7,9.6,2.5,15.8-1.1l0,0c11.9-6.9,21.5-23.5,21.5-37.2l0,0
					c0-5.7-1.7-9.9-4.5-12.5l0,0l41,26.3c-7,17.9-17.7,35.2-30.6,49.2l0,0L-497.5,134.4z"/>
			</defs>
			<clipPath id="SVGID_15_">
				<use xlink:href="#SVGID_14_"  overflow="visible"/>
			</clipPath>
			<g id="g3077" clip-path="url(#SVGID_15_)">
				<g id="g3083">
					<g id="g3085">
						
							<linearGradient id="path3095_1_" gradientUnits="userSpaceOnUse" x1="-921.2773" y1="-255.3803" x2="-917.4554" y2="-255.3803" gradientTransform="matrix(15.8825 0 0 -15.8825 14134.6211 -3934.7888)">
							<stop  offset="0" style="stop-color:#E8E8F5"/>
							<stop  offset="3.764724e-02" style="stop-color:#E8E8F5"/>
							<stop  offset="1" style="stop-color:#BFBDDF"/>
						</linearGradient>
						<path id="path3095" fill="url(#path3095_1_)" d="M-497.5,134.4l0.1-0.1c3.9,2.7,9.6,2.5,15.8-1.1l0,0
							c11.9-6.9,21.5-23.5,21.5-37.2l0,0c0-5.7-1.7-9.9-4.5-12.5l0,0l41,26.3c-7,17.9-17.7,35.2-30.6,49.2l0,0L-497.5,134.4z"/>
					</g>
				</g>
			</g>
		</g>
	</g>
	<g id="g3097">
		<g>
			<defs>
				<rect id="SVGID_16_" x="-531.3" y="31.1" width="228.6" height="185.1"/>
			</defs>
			<clipPath id="SVGID_17_">
				<use xlink:href="#SVGID_16_"  overflow="visible"/>
			</clipPath>
			<g id="g3099" clip-path="url(#SVGID_17_)">
				<g id="g3105" transform="translate(25.0818,23.7129)">
					<path id="path3107" fill="#F1F0F8" d="M-484.6,73c0,12.9-9.7,28.7-21.6,35.2c-6.3,3.4-12,3.6-16,1c-3.5-2.2-5.7-6.6-5.7-12.7
						c0-12.9,9.7-28.7,21.6-35.2c7-3.8,13.2-3.6,17.1-0.2C-486.3,63.6-484.6,67.7-484.6,73"/>
				</g>
				<g id="g3109" transform="translate(60.2683,28.132)">
					<path id="path3111" fill="#D9BCC3" d="M-384.2,84.6l0.2-0.1C-384,84.5-384.1,84.6-384.2,84.6L-384.2,84.6z"/>
				</g>
			</g>
		</g>
	</g>
	<g id="g3117">
		<g>
			<defs>
				<path id="SVGID_18_" d="M-345.3,119.2c-0.7-0.1-1.6-0.3-2.4-0.8l0,0c-3.3-1.9-6.1-6.6-6.1-10.5l0,0c0-1.1,0.2-2,0.6-2.7l0,0
					c0.3-0.5,0.7-1,1.2-1.2l0,0c1-0.6,2.5-0.5,4.1,0.3l0,0c0.1,0,0.2,0.1,0.2,0.1l0,0c3.3,1.9,6.1,6.6,6.1,10.5l0,0
					c0,2.1-0.8,3.5-2.1,4l0,0c-0.4,0.2-0.8,0.3-1.3,0.3l0,0C-345.2,119.2-345.2,119.2-345.3,119.2"/>
			</defs>
			<clipPath id="SVGID_19_">
				<use xlink:href="#SVGID_18_"  overflow="visible"/>
			</clipPath>
			<g id="g3119" clip-path="url(#SVGID_19_)">
				<g id="g3125">
					<g id="g3127">
						
							<linearGradient id="path3137_1_" gradientUnits="userSpaceOnUse" x1="-1026.5629" y1="-355.294" x2="-1023.2523" y2="-355.294" gradientTransform="matrix(3.0064 0 0 -3.0064 2731.6636 -956.7518)">
							<stop  offset="0" style="stop-color:#F37226"/>
							<stop  offset="0.6596" style="stop-color:#EF413A"/>
							<stop  offset="1" style="stop-color:#EF413A"/>
						</linearGradient>
						<path id="path3137" fill="url(#path3137_1_)" d="M-345.3,119.2c-0.7-0.1-1.6-0.3-2.4-0.8l0,0c-3.3-1.9-6.1-6.6-6.1-10.5l0,0
							c0-1.1,0.2-2,0.6-2.7l0,0c0.3-0.5,0.7-1,1.2-1.2l0,0c1-0.6,2.5-0.5,4.1,0.3l0,0c0.1,0,0.2,0.1,0.2,0.1l0,0
							c3.3,1.9,6.1,6.6,6.1,10.5l0,0c0,2.1-0.8,3.5-2.1,4l0,0c-0.4,0.2-0.8,0.3-1.3,0.3l0,0C-345.2,119.2-345.2,119.2-345.3,119.2"
							/>
					</g>
				</g>
			</g>
		</g>
	</g>
</g>
<g>
	<path fill="#FFD340" d="M252.8,407.2l-4.3-2.5c-0.5-0.3-0.9-1.1-0.9-1.8s0.4-1,0.9-0.7l4.3,2.5c0.5,0.3,0.9,1.1,0.9,1.8
		C253.7,407.2,253.3,407.5,252.8,407.2z"/>
	<g>
		<path fill="#FFD340" d="M289.7,429.4l-4.3-2.5c-0.5-0.3-0.9-1.1-0.9-1.8s0.4-1,0.9-0.7l4.3,2.5c0.5,0.3,0.9,1.1,0.9,1.8
			C290.6,429.4,290.2,429.7,289.7,429.4z"/>
		<g>
			<g>
				<g>
					<linearGradient id="SVGID_20_" gradientUnits="userSpaceOnUse" x1="177.132" y1="456.9909" x2="251.2585" y2="456.9909">
						<stop  offset="0" style="stop-color:#F37365"/>
						<stop  offset="0.2684" style="stop-color:#F58A63"/>
						<stop  offset="0.8559" style="stop-color:#FDC54C"/>
						<stop  offset="1" style="stop-color:#FFD340"/>
					</linearGradient>
					<path fill="url(#SVGID_20_)" d="M179.1,510.5h-2V450c0-3.4,1.8-6.6,4.8-8.2l68.4-38.3l0.9,1.7l-68.4,38.3
						c-2.3,1.3-3.8,3.8-3.8,6.5V510.5z"/>
				</g>
				<g>
					<linearGradient id="SVGID_21_" gradientUnits="userSpaceOnUse" x1="214.0152" y1="479.246" x2="288.1488" y2="479.246">
						<stop  offset="0" style="stop-color:#F37365"/>
						<stop  offset="0.2684" style="stop-color:#F58A63"/>
						<stop  offset="0.8559" style="stop-color:#FDC54C"/>
						<stop  offset="1" style="stop-color:#FFD340"/>
					</linearGradient>
					<path fill="url(#SVGID_21_)" d="M216,532.8h-2v-61.2c0-3.4,1.9-6.6,4.9-8.3l68.3-37.6l0.9,1.7L219.8,465
						c-2.4,1.3-3.9,3.8-3.9,6.5V532.8z"/>
				</g>
				<g>
					<linearGradient id="SVGID_22_" gradientUnits="userSpaceOnUse" x1="251.228" y1="500.5219" x2="325.3617" y2="500.5219">
						<stop  offset="0" style="stop-color:#F37365"/>
						<stop  offset="0.2684" style="stop-color:#F58A63"/>
						<stop  offset="0.8559" style="stop-color:#FDC54C"/>
						<stop  offset="1" style="stop-color:#FFD340"/>
					</linearGradient>
					<path fill="url(#SVGID_22_)" d="M253.2,554h-2v-61.1c0-3.4,1.9-6.6,4.9-8.3l68.3-37.6l0.9,1.7L257,486.4
						c-2.4,1.3-3.9,3.8-3.9,6.5V554z"/>
				</g>
				<g>
					<linearGradient id="SVGID_23_" gradientUnits="userSpaceOnUse" x1="292.3573" y1="524.3121" x2="364.8232" y2="524.3121">
						<stop  offset="0" style="stop-color:#F37365"/>
						<stop  offset="0.2684" style="stop-color:#F58A63"/>
						<stop  offset="0.8559" style="stop-color:#FDC54C"/>
						<stop  offset="1" style="stop-color:#FFD340"/>
					</linearGradient>
					<path fill="url(#SVGID_23_)" d="M294.3,578.3h-2v-60.9c0-3.3,1.8-6.5,4.7-8.1l66.8-38.8l1,1.7L298,510.9
						c-2.3,1.3-3.7,3.8-3.7,6.4V578.3z"/>
				</g>
			</g>
			<g>
				<g>
					<g>
						<linearGradient id="SVGID_24_" gradientUnits="userSpaceOnUse" x1="167.6361" y1="580.1863" x2="167.6361" y2="546.9403">
							<stop  offset="0" style="stop-color:#FFD340"/>
							<stop  offset="1" style="stop-color:#F37365"/>
						</linearGradient>
						<path fill="url(#SVGID_24_)" d="M222.8,528c-0.5,7.7-5.7,15.4-15.9,21.3c-21.5,12.4-56.4,12.4-78.1-0.1
							c-6.3-3.7-10.8-7.9-13.4-12.4c-0.3-0.5-0.6-1-0.8-1.5c-0.5-1.1-0.9-2.1-1.2-3.1c-0.2-0.7-0.3-1.1-0.4-1.5
							c-0.2-0.8-0.2-1.2-0.3-1.6c-0.1-0.6-0.1-0.9-0.1-1.2c-0.1,9.7-0.1,20.6-0.1,20.6c0.6,7.8,6,15.5,16.3,21.5
							c8.1,4.6,18.1,7.6,28.6,8.8c17.4,2,36.2-0.9,49.7-8.7c10.3-6,15.6-13.8,16-21.6c0-0.7,0-1.2,0-1.7c0,0,0-9.8,0.1-18.9H222.8z"
							/>
						<path fill="#FFD340" d="M112.4,527.7c0,0.4,0.1,0.8,0.1,1.2c0.1,0.7,0.2,1,0.2,1.4c0.2,0.9,0.3,1.3,0.4,1.7
							c0.4,1.3,0.8,2.3,1.3,3.3c0.3,0.6,0.6,1.1,0.9,1.6c2.7,4.5,7.1,8.7,13.3,12.3c21.8,12.5,56.7,12.6,78.2,0.1
							c10.3-6,15.6-13.7,16-21.6c0.1-2.7-0.5-5.2-1.4-7.7c-0.4-1.2-0.8-2.3-1.4-3.5c-2.6-4.5-6.9-8.7-13-12.3
							c-9.6-5.6-21.2-8.6-33.1-9.4c-3.9-0.3-7.8-0.3-11.7-0.1c-12.3,0.7-24.4,3.7-33.8,9.2c-0.8,0.4-1.5,0.9-2.2,1.3
							c-6.4,4.2-10.5,9.1-12.4,14.3c-0.8,2.2-1.4,4.3-1.4,6.5C112.4,526.6,112.4,527.1,112.4,527.7z"/>
					</g>
					<g>
						<path fill="#F39E21" d="M161.1,509.9c0.3,0.2,0.6,0.4,0.8,0.5c0.1,0.1,0.2,0.2,0.4,0.3c0.3,0.2,0.6,0.5,0.9,0.7c0,0,0,0-0.1,0
							c0.7,0.6,1.3,1.2,1.8,1.8c0,0,0,0,0.1,0c2.1,2.5,3,5.5,2.6,8.7c-0.2,1.8-0.8,3.7-1.8,5.6c3.1-0.5,6.2-0.8,9.3-0.9
							c5.4-0.1,10.5,0.5,14.8,2l0,0c0,0,0,0,0,0c0.4,0.1,0.8,0.3,1.1,0.4c0.7,0.3,1.4,0.6,2,0.9c0,0,0,0,0,0
							c0.4,0.2,0.9,0.4,1.3,0.6c0.2,0.1,0.3,0.2,0.5,0.3c0.3,0.2,0.6,0.4,1,0.6c3,1.9,8.2,1.4,11.4-1.1l2.3-1.8l2.3-1.8l-2.1-1.3
							l-4.7,3.6c-2,1.5-5.1,1.8-6.9,0.7c-0.4-0.2-0.7-0.4-1.1-0.6c-0.2-0.1-0.4-0.2-0.5-0.3c-0.9-0.5-1.9-1-3-1.4
							c-0.2-0.1-0.3-0.1-0.5-0.2c-0.1,0-0.1,0-0.2-0.1c-0.9-0.3-1.8-0.6-2.8-0.9l0,0c-4.4-1.2-9.4-1.8-14.6-1.6
							c-1.7,0-3.5,0.2-5.3,0.3c0.4-1.1,0.6-2.2,0.7-3.2c0.4-3.2-0.4-6.2-2.1-8.7l0,0c-0.4-0.6-0.8-1.1-1.3-1.6
							c-0.1-0.1-0.2-0.2-0.3-0.3c-0.6-0.6-1.3-1.1-2-1.7c-0.1-0.1-0.3-0.2-0.4-0.3c-0.3-0.2-0.6-0.4-0.9-0.6c-1.6-1-1-2.7,1.3-3.9
							l5.5-2.9l-1.8-1.1l-2.8,1.4l-2.8,1.4C159.5,505.3,158.4,508.2,161.1,509.9z"/>
						<path fill="#F39E21" d="M188.3,536.6c-0.2-0.1-0.4-0.3-0.7-0.4c-0.5-0.3-0.9-0.5-1.4-0.7c-1.3,1.5-2.9,2.9-4.8,4.2
							c-11,7.2-28.6,7.3-38.9,0.6c-10.1-6.5-7.8-16.3,4.7-22.2c2.2-1.1,4.6-2,7-2.7c-0.3-0.3-0.7-0.5-1-0.8l0,0
							c-0.2-0.1-0.4-0.2-0.6-0.4c-0.2-0.1-0.3-0.2-0.5-0.3c-2.5,0.8-4.9,1.7-7.1,2.8c-14.3,6.6-17,17.7-5.5,25.2
							c11.9,7.8,32.1,7.7,44.5-0.5c2-1.4,3.6-2.8,5-4.4C188.7,536.8,188.5,536.7,188.3,536.6z"/>
						<path fill="#F39E21" d="M180.4,514.3c1.5,0.5,2.9,1.1,4.1,1.9c1.2,0.8,2.3,1.6,3.1,2.6c1,0.1,2.1,0.2,3.1,0.4l0.6,0.1l0,0
							c0.3,0.1,0.7,0.1,1,0.2c-1.1-1.9-2.7-3.6-5-5c-2.3-1.4-5-2.3-8-2.9c0.2,0.3,0.3,0.7,0.5,1C180,513.1,180.2,513.7,180.4,514.3z
							"/>
						<path fill="#F39E21" d="M209.3,531.5c-4.5,3.6-11.7,4.2-16,1.5c-0.3-0.2-0.6-0.4-0.9-0.5c-0.1-0.1-0.3-0.2-0.4-0.2
							c-0.9-0.5-1.9-1-2.9-1.4c0,0,0,0-0.1,0c-4.2-1.6-9.1-2.4-14.5-2.2c-5,0.1-10,0.9-14.8,2.2c2.6-2.8,4.1-5.8,4.4-8.7
							c0.4-3.2-0.6-6.1-2.9-8.5c-0.6-0.6-1.2-1.1-1.9-1.7c-0.1-0.1-0.2-0.2-0.3-0.2c-0.2-0.2-0.5-0.3-0.8-0.5
							c-3.8-2.3-2.3-6.3,3.2-9l-2-1.2c-7.3,3.5-9.3,8.7-4.2,11.7c0,0,0.1,0.1,0.1,0.1c0.2,0.1,0.4,0.2,0.5,0.3
							c0.6,0.4,1.1,0.8,1.5,1.2c2.4,2.2,3.5,5,3,8c-0.5,4.4-4.2,8.9-10.2,12.2l0,0l-0.1,0l2.5,1.6c0,0,0.1,0,0.1-0.1l0,0
							c6-3.3,13.8-5.2,21.3-5.3c4.7-0.1,9.1,0.6,12.8,2.1c0.3,0.1,0.6,0.2,0.9,0.4c0.8,0.3,1.5,0.7,2.2,1.1c0.2,0.1,0.4,0.2,0.6,0.4
							c0.1,0,0.1,0.1,0.2,0.1c5.7,3.6,15.2,2.8,21-1.9L209.3,531.5z"/>
						<path fill="#F39E21" d="M166.7,507c0.4,0.2,0.7,0.4,1,0.6c0.1,0.1,0.3,0.2,0.4,0.3c0.9,0.7,1.8,1.4,2.5,2.1
							c0.2,0.2,0.4,0.5,0.7,0.7c0.6,0.7,1.1,1.4,1.5,2.2c1.4,2.5,2,5.4,1.6,8.4c0,0.4-0.1,0.8-0.2,1.2c0.7,0,1.3-0.1,2-0.1
							c5-0.2,9.7,0.2,13.9,1.2l0,0c1.3,0.3,2.5,0.6,3.7,1c0.4,0.1,0.8,0.3,1.2,0.4c0.1,0,0.2,0.1,0.2,0.1c1.3,0.5,2.5,1,3.7,1.7
							c0.2,0.1,0.4,0.2,0.6,0.3c0.4,0.2,0.7,0.4,1.1,0.7c0.6,0.4,1.7,0.3,2.4-0.2l7-5.4l2.3-1.8l-2-1.2l-8.4,6.3
							c-0.1,0-0.2-0.1-0.2-0.1c-0.2-0.1-0.4-0.2-0.6-0.3c-1.2-0.7-2.6-1.2-3.9-1.8c-0.1,0-0.2-0.1-0.3-0.1c-1.1-0.4-2.3-0.8-3.5-1.1
							c-1.3-0.3-2.7-0.6-4.1-0.9l0,0c-3.6-0.6-7.5-0.9-11.5-0.8c0.2-2.5-0.2-4.8-1.1-7c-0.4-0.8-0.8-1.7-1.3-2.5
							c-0.5-0.7-1.1-1.4-1.7-2.1c-0.8-0.8-1.7-1.6-2.7-2.3c-0.1-0.1-0.3-0.2-0.4-0.3c-0.1,0-0.1-0.1-0.2-0.1l9.6-5.3l-1.8-1.1
							l-2.7,1.5l-8.2,4.4C166.3,506,166.1,506.7,166.7,507z"/>
						<path fill="#F39E21" d="M157.1,522c0-0.8,0-1.6-0.2-2.3c-1.9,0-4,0.4-5.6,1.2c-3,1.5-3.6,3.9-1.3,5.4c1.3,0.8,3.2,1.2,5.1,1
							c0.6-0.8,1-1.6,1.3-2.4c-1.2,0.4-2.6,0.3-3.4-0.2c-1-0.6-0.8-1.7,0.5-2.4C154.6,521.8,156.1,521.6,157.1,522z"/>
						<path fill="#F39E21" d="M170,535.4c-0.9-0.5-0.9-1.4-0.2-2.1c-1.4,0.1-2.8,0.4-4.2,0.6c-0.3,1.2,0.2,2.4,1.5,3.2
							c2.4,1.6,6.7,1.4,9.4-0.3c1.5-1,2.3-2.3,2.2-3.5c-1.3-0.2-2.6-0.3-4-0.3c0.5,0.7,0.3,1.6-0.7,2.2
							C172.9,536,171,536.1,170,535.4z"/>
					</g>
				</g>
				<g>
					<g>
						<linearGradient id="SVGID_25_" gradientUnits="userSpaceOnUse" x1="167.8074" y1="556.9926" x2="167.8074" y2="523.7466">
							<stop  offset="0" style="stop-color:#FFD340"/>
							<stop  offset="1" style="stop-color:#F37365"/>
						</linearGradient>
						<path fill="url(#SVGID_25_)" d="M223,504.8c-0.5,7.7-5.7,15.4-15.9,21.3c-21.5,12.4-56.4,12.4-78.1-0.1
							c-6.3-3.7-10.8-7.9-13.4-12.4c-0.3-0.5-0.6-1-0.8-1.5c-0.5-1.1-0.9-2.1-1.2-3.1c-0.2-0.7-0.3-1.1-0.4-1.5
							c-0.2-0.8-0.2-1.2-0.3-1.6c-0.1-0.6-0.1-0.9-0.1-1.2c-0.1,9.7-0.1,20.6-0.1,20.6c0.6,7.8,6,15.5,16.3,21.5
							c8.1,4.6,18.1,7.6,28.6,8.8c17.4,2,36.2-0.9,49.7-8.7c10.3-6,15.6-13.8,16-21.6c0-0.7,0-1.2,0-1.7c0,0,0-9.8,0.1-18.9H223z"/>
						<path fill="#FFD340" d="M112.6,504.5c0,0.4,0.1,0.8,0.1,1.2c0.1,0.7,0.2,1,0.2,1.4c0.2,0.9,0.3,1.3,0.4,1.7
							c0.4,1.3,0.8,2.3,1.3,3.3c0.3,0.6,0.6,1.1,0.9,1.6c2.7,4.5,7.1,8.7,13.3,12.3c21.8,12.5,56.7,12.6,78.2,0.1
							c10.3-6,15.6-13.7,16-21.6c0.1-2.7-0.5-5.2-1.4-7.7c-0.4-1.2-0.8-2.3-1.4-3.5c-2.6-4.5-6.9-8.7-13-12.3
							c-9.6-5.6-21.2-8.6-33.1-9.4c-3.9-0.3-7.8-0.3-11.7-0.1c-12.3,0.7-24.4,3.7-33.8,9.2c-0.8,0.4-1.5,0.9-2.2,1.3
							c-6.4,4.2-10.5,9.1-12.4,14.3c-0.8,2.2-1.4,4.3-1.4,6.5C112.5,503.4,112.6,503.9,112.6,504.5z"/>
					</g>
					<g>
						<path fill="#F39E21" d="M161.3,486.7c0.3,0.2,0.6,0.4,0.8,0.5c0.1,0.1,0.2,0.2,0.4,0.3c0.3,0.2,0.6,0.5,0.9,0.7c0,0,0,0-0.1,0
							c0.7,0.6,1.3,1.2,1.8,1.8c0,0,0,0,0.1,0c2.1,2.5,3,5.5,2.6,8.7c-0.2,1.8-0.8,3.7-1.8,5.6c3.1-0.5,6.2-0.8,9.3-0.9
							c5.4-0.1,10.5,0.5,14.8,2l0,0c0,0,0,0,0,0c0.4,0.1,0.8,0.3,1.1,0.4c0.7,0.3,1.4,0.6,2,0.9c0,0,0,0,0,0
							c0.4,0.2,0.9,0.4,1.3,0.6c0.2,0.1,0.3,0.2,0.5,0.3c0.3,0.2,0.6,0.4,1,0.6c3,1.9,8.2,1.4,11.4-1.1l2.3-1.8l2.3-1.8l-2.1-1.3
							l-4.7,3.6c-2,1.5-5.1,1.8-6.9,0.7c-0.4-0.2-0.7-0.4-1.1-0.6c-0.2-0.1-0.4-0.2-0.5-0.3c-0.9-0.5-1.9-1-3-1.4
							c-0.2-0.1-0.3-0.1-0.5-0.2c-0.1,0-0.1,0-0.2-0.1c-0.9-0.3-1.8-0.6-2.8-0.9l0,0c-4.4-1.2-9.4-1.8-14.6-1.6
							c-1.7,0-3.5,0.2-5.3,0.3c0.4-1.1,0.6-2.2,0.7-3.2c0.4-3.2-0.4-6.2-2.1-8.7l0,0c-0.4-0.6-0.8-1.1-1.3-1.6
							c-0.1-0.1-0.2-0.2-0.3-0.3c-0.6-0.6-1.3-1.1-2-1.7c-0.1-0.1-0.3-0.2-0.4-0.3c-0.3-0.2-0.6-0.4-0.9-0.6c-1.6-1-1-2.7,1.3-3.9
							l5.5-2.9l-1.8-1.1l-2.8,1.4l-2.8,1.4C159.6,482.2,158.6,485,161.3,486.7z"/>
						<path fill="#F39E21" d="M188.5,513.4c-0.2-0.1-0.4-0.3-0.7-0.4c-0.5-0.3-0.9-0.5-1.4-0.7c-1.3,1.5-2.9,2.9-4.8,4.2
							c-11,7.2-28.6,7.3-38.9,0.6c-10.1-6.5-7.8-16.3,4.7-22.2c2.2-1.1,4.6-2,7-2.7c-0.3-0.3-0.7-0.5-1-0.8l0,0
							c-0.2-0.1-0.4-0.2-0.6-0.4c-0.2-0.1-0.3-0.2-0.5-0.3c-2.5,0.8-4.9,1.7-7.1,2.8c-14.3,6.6-17,17.7-5.5,25.2
							c11.9,7.8,32.1,7.7,44.5-0.5c2-1.4,3.6-2.8,5-4.4C188.8,513.6,188.7,513.5,188.5,513.4z"/>
						<path fill="#F39E21" d="M180.6,491.1c1.5,0.5,2.9,1.1,4.1,1.9c1.2,0.8,2.3,1.6,3.1,2.6c1,0.1,2.1,0.2,3.1,0.4l0.6,0.1l0,0
							c0.3,0.1,0.7,0.1,1,0.2c-1.1-1.9-2.7-3.6-5-5c-2.3-1.4-5-2.3-8-2.9c0.2,0.3,0.3,0.7,0.5,1
							C180.2,489.9,180.4,490.5,180.6,491.1z"/>
						<path fill="#F39E21" d="M209.5,508.3c-4.5,3.6-11.7,4.2-16,1.5c-0.3-0.2-0.6-0.4-0.9-0.5c-0.1-0.1-0.3-0.2-0.4-0.2
							c-0.9-0.5-1.9-1-2.9-1.4c0,0,0,0-0.1,0c-4.2-1.6-9.1-2.4-14.5-2.2c-5,0.1-10,0.9-14.8,2.2c2.6-2.8,4.1-5.8,4.4-8.7
							c0.4-3.2-0.6-6.1-2.9-8.5c-0.6-0.6-1.2-1.1-1.9-1.7c-0.1-0.1-0.2-0.2-0.3-0.2c-0.2-0.2-0.5-0.3-0.8-0.5
							c-3.8-2.3-2.3-6.3,3.2-9l-2-1.2c-7.3,3.5-9.3,8.7-4.2,11.7c0,0,0.1,0.1,0.1,0.1c0.2,0.1,0.4,0.2,0.5,0.3
							c0.6,0.4,1.1,0.8,1.5,1.2c2.4,2.2,3.5,5,3,8c-0.5,4.4-4.2,8.9-10.2,12.2l0,0l-0.1,0l2.5,1.6c0,0,0.1,0,0.1-0.1l0,0
							c6-3.3,13.8-5.2,21.3-5.3c4.7-0.1,9.1,0.6,12.8,2.1c0.3,0.1,0.6,0.2,0.9,0.4c0.8,0.3,1.5,0.7,2.2,1.1c0.2,0.1,0.4,0.2,0.6,0.4
							c0.1,0,0.1,0.1,0.2,0.1c5.7,3.6,15.2,2.8,21-1.9L209.5,508.3z"/>
						<path fill="#F39E21" d="M166.8,483.8c0.4,0.2,0.7,0.4,1,0.6c0.1,0.1,0.3,0.2,0.4,0.3c0.9,0.7,1.8,1.4,2.5,2.1
							c0.2,0.2,0.4,0.5,0.7,0.7c0.6,0.7,1.1,1.4,1.5,2.2c1.4,2.5,2,5.4,1.6,8.4c0,0.4-0.1,0.8-0.2,1.2c0.7,0,1.3-0.1,2-0.1
							c5-0.2,9.7,0.2,13.9,1.2l0,0c1.3,0.3,2.5,0.6,3.7,1c0.4,0.1,0.8,0.3,1.2,0.4c0.1,0,0.2,0.1,0.2,0.1c1.3,0.5,2.5,1,3.7,1.7
							c0.2,0.1,0.4,0.2,0.6,0.3c0.4,0.2,0.7,0.4,1.1,0.7c0.6,0.4,1.7,0.3,2.4-0.2l7-5.4l2.3-1.8l-2-1.2l-8.4,6.3
							c-0.1,0-0.2-0.1-0.2-0.1c-0.2-0.1-0.4-0.2-0.6-0.3c-1.2-0.7-2.6-1.2-3.9-1.8c-0.1,0-0.2-0.1-0.3-0.1c-1.1-0.4-2.3-0.8-3.5-1.1
							c-1.3-0.3-2.7-0.6-4.1-0.9l0,0c-3.6-0.6-7.5-0.9-11.5-0.8c0.2-2.5-0.2-4.8-1.1-7c-0.4-0.8-0.8-1.7-1.3-2.5
							c-0.5-0.7-1.1-1.4-1.7-2.1c-0.8-0.8-1.7-1.6-2.7-2.3c-0.1-0.1-0.3-0.2-0.4-0.3c-0.1,0-0.1-0.1-0.2-0.1l9.6-5.3l-1.8-1.1
							l-2.7,1.5l-8.2,4.4C166.5,482.8,166.3,483.5,166.8,483.8z"/>
						<path fill="#F39E21" d="M157.3,498.8c0-0.8,0-1.6-0.2-2.3c-1.9,0-4,0.4-5.6,1.2c-3,1.5-3.6,3.9-1.3,5.4c1.3,0.8,3.2,1.2,5.1,1
							c0.6-0.8,1-1.6,1.3-2.4c-1.2,0.4-2.6,0.3-3.4-0.2c-1-0.6-0.8-1.7,0.5-2.4C154.8,498.6,156.3,498.4,157.3,498.8z"/>
						<path fill="#F39E21" d="M170.2,512.2c-0.9-0.5-0.9-1.4-0.2-2.1c-1.4,0.1-2.8,0.4-4.2,0.6c-0.3,1.2,0.2,2.4,1.5,3.2
							c2.4,1.6,6.7,1.4,9.4-0.3c1.5-1,2.3-2.3,2.2-3.5c-1.3-0.2-2.6-0.3-4-0.3c0.5,0.7,0.3,1.6-0.7,2.2
							C173,512.8,171.2,512.9,170.2,512.2z"/>
					</g>
				</g>
			</g>
			<g>
				<g>
					<g>
						<linearGradient id="SVGID_26_" gradientUnits="userSpaceOnUse" x1="251.2232" y1="629.9816" x2="251.2232" y2="595.6506">
							<stop  offset="0" style="stop-color:#FFD340"/>
							<stop  offset="1" style="stop-color:#F37365"/>
						</linearGradient>
						<path fill="url(#SVGID_26_)" d="M308.2,576.1c-0.5,8-5.9,15.9-16.5,22c-22.2,12.8-58.2,12.8-80.6-0.1
							c-6.6-3.8-11.1-8.1-13.9-12.8c-0.3-0.5-0.6-1-0.8-1.5c-0.5-1.1-1-2.1-1.3-3.2c-0.2-0.8-0.3-1.2-0.4-1.6
							c-0.2-0.9-0.3-1.2-0.3-1.6c-0.1-0.6-0.1-0.9-0.1-1.2c-0.1,10-0.1,21.3-0.1,21.3c0.7,8,6.2,16,16.8,22.2
							c8.4,4.8,18.7,7.8,29.5,9.1c18,2.1,37.4-0.9,51.3-9c10.7-6.2,16.1-14.2,16.5-22.3c0-0.7,0-1.2,0-1.7c0,0,0-10.2,0.1-19.5
							H308.2z"/>
						<path fill="#FFD340" d="M194.2,575.7c0,0.4,0.1,0.9,0.1,1.3c0.1,0.7,0.2,1.1,0.2,1.4c0.2,0.9,0.3,1.3,0.4,1.7
							c0.4,1.4,0.8,2.4,1.3,3.4c0.3,0.6,0.6,1.2,0.9,1.7c2.7,4.7,7.3,9,13.7,12.7c22.5,13,58.6,13,80.8,0.2
							c10.6-6.2,16.1-14.2,16.5-22.3c0.1-2.8-0.5-5.4-1.5-8c-0.4-1.2-0.8-2.4-1.5-3.6c-2.7-4.6-7.1-8.9-13.4-12.7
							c-9.9-5.7-21.9-8.9-34.2-9.7c-4-0.3-8-0.3-12.1-0.1c-12.7,0.7-25.1,3.8-34.9,9.5c-0.8,0.5-1.5,0.9-2.3,1.4
							c-6.6,4.3-10.8,9.4-12.9,14.8c-0.8,2.2-1.4,4.5-1.5,6.7C194.2,574.7,194.2,575.2,194.2,575.7z"/>
					</g>
					<g>
						<path fill="#F39E21" d="M244.5,557.4c0.3,0.2,0.6,0.4,0.9,0.6c0.1,0.1,0.3,0.2,0.4,0.3c0.3,0.2,0.7,0.5,1,0.7c0,0,0,0-0.1,0
							c0.7,0.6,1.3,1.2,1.9,1.8c0,0,0,0,0.1,0c2.2,2.6,3.1,5.7,2.7,9c-0.2,1.9-0.8,3.8-1.9,5.7c3.2-0.6,6.4-0.9,9.6-0.9
							c5.6-0.1,10.8,0.5,15.3,2l0,0c0,0,0,0,0,0c0.4,0.1,0.8,0.3,1.2,0.4c0.7,0.3,1.4,0.6,2.1,0.9c0,0,0,0,0,0
							c0.5,0.2,0.9,0.4,1.3,0.7c0.2,0.1,0.3,0.2,0.5,0.3c0.3,0.2,0.6,0.4,1,0.6c3.1,2,8.4,1.5,11.8-1.1l2.4-1.9l2.4-1.9l-2.1-1.3
							l-4.8,3.7c-2.1,1.6-5.3,1.9-7.1,0.7c-0.4-0.2-0.7-0.5-1.1-0.6c-0.2-0.1-0.4-0.2-0.5-0.3c-1-0.5-2-1-3.1-1.4
							c-0.2-0.1-0.3-0.1-0.5-0.2c-0.1,0-0.1,0-0.2-0.1c-0.9-0.3-1.9-0.6-2.8-0.9l0,0c-4.5-1.3-9.7-1.8-15.1-1.7
							c-1.8,0-3.6,0.2-5.5,0.4c0.4-1.1,0.6-2.2,0.7-3.3c0.4-3.3-0.4-6.4-2.2-9l0,0c-0.4-0.6-0.9-1.1-1.4-1.7
							c-0.1-0.1-0.2-0.2-0.3-0.3c-0.6-0.6-1.3-1.2-2-1.7c-0.1-0.1-0.3-0.2-0.4-0.3c-0.3-0.2-0.6-0.4-0.9-0.6c-1.7-1-1-2.8,1.4-4.1
							l5.7-3l-1.9-1.1l-2.9,1.5l-2.9,1.5C242.8,552.7,241.7,555.7,244.5,557.4z"/>
						<path fill="#F39E21" d="M272.6,585c-0.2-0.1-0.5-0.3-0.7-0.4c-0.5-0.3-1-0.5-1.5-0.8c-1.3,1.6-3,3-5,4.4
							c-11.3,7.4-29.5,7.5-40.2,0.6c-10.4-6.7-8-16.8,4.8-22.9c2.3-1.1,4.7-2,7.2-2.8c-0.3-0.3-0.7-0.5-1-0.8l0,0
							c-0.2-0.1-0.4-0.3-0.6-0.4c-0.2-0.1-0.3-0.2-0.5-0.3c-2.6,0.8-5,1.8-7.4,2.9c-14.8,6.8-17.6,18.3-5.6,26
							c12.3,8,33.1,8,45.9-0.6c2-1.4,3.7-2.9,5.1-4.5C272.9,585.2,272.8,585.1,272.6,585z"/>
						<path fill="#F39E21" d="M264.4,561.9c1.5,0.5,3,1.1,4.2,1.9c1.3,0.8,2.3,1.7,3.2,2.6c1.1,0.1,2.1,0.2,3.2,0.4l0.6,0.1l0,0
							c0.4,0.1,0.7,0.1,1.1,0.2c-1.1-2-2.8-3.8-5.2-5.2c-2.3-1.4-5.2-2.4-8.3-3c0.2,0.3,0.3,0.7,0.5,1
							C264,560.7,264.2,561.3,264.4,561.9z"/>
						<path fill="#F39E21" d="M294.3,579.7c-4.6,3.7-12.1,4.3-16.5,1.5c-0.3-0.2-0.6-0.4-0.9-0.5c-0.2-0.1-0.3-0.2-0.5-0.3
							c-0.9-0.5-2-1-3-1.4c0,0,0,0-0.1,0c-4.3-1.6-9.4-2.4-14.9-2.3c-5.1,0.1-10.4,0.9-15.3,2.3c2.7-2.9,4.2-6,4.6-9
							c0.4-3.3-0.6-6.3-3-8.8c-0.6-0.6-1.2-1.2-2-1.7c-0.1-0.1-0.2-0.2-0.3-0.2c-0.2-0.2-0.5-0.3-0.8-0.5c-3.9-2.4-2.4-6.5,3.3-9.3
							l-2.1-1.2c-7.6,3.6-9.6,8.9-4.4,12.1c0,0,0.1,0.1,0.1,0.1c0.2,0.1,0.4,0.2,0.5,0.4c0.6,0.4,1.1,0.8,1.6,1.2
							c2.5,2.3,3.6,5.1,3.1,8.2c-0.5,4.6-4.3,9.2-10.5,12.6l0,0l-0.1,0l2.6,1.7c0,0,0.1,0,0.1-0.1l0,0c6.2-3.4,14.2-5.4,22-5.5
							c4.9-0.1,9.4,0.6,13.2,2.1c0.3,0.1,0.6,0.3,0.9,0.4c0.8,0.3,1.5,0.7,2.2,1.1c0.2,0.1,0.4,0.2,0.6,0.4c0.1,0,0.1,0.1,0.2,0.1
							c5.9,3.7,15.7,2.9,21.7-2L294.3,579.7z"/>
						<path fill="#F39E21" d="M250.2,554.4c0.4,0.2,0.7,0.4,1,0.6c0.1,0.1,0.3,0.2,0.4,0.3c0.9,0.7,1.8,1.4,2.6,2.2
							c0.2,0.2,0.5,0.5,0.7,0.8c0.6,0.7,1.1,1.5,1.5,2.2c1.5,2.6,2,5.5,1.7,8.6c0,0.4-0.1,0.8-0.2,1.2c0.7,0,1.4-0.1,2-0.1
							c5.1-0.2,10,0.2,14.4,1.2l0,0c1.3,0.3,2.6,0.6,3.9,1.1c0.4,0.1,0.8,0.3,1.2,0.4c0.1,0,0.2,0.1,0.2,0.1
							c1.3,0.5,2.6,1.1,3.8,1.7c0.2,0.1,0.4,0.2,0.6,0.3c0.4,0.2,0.8,0.4,1.2,0.7c0.6,0.4,1.8,0.3,2.5-0.3l7.3-5.6l2.4-1.9l-2.1-1.3
							l-8.6,6.5c-0.1,0-0.2-0.1-0.3-0.1c-0.2-0.1-0.4-0.2-0.6-0.3c-1.3-0.7-2.6-1.3-4.1-1.8c-0.1,0-0.2-0.1-0.3-0.1
							c-1.2-0.4-2.4-0.8-3.7-1.1c-1.4-0.4-2.8-0.7-4.3-0.9l0,0c-3.7-0.6-7.7-0.9-11.9-0.8c0.2-2.6-0.2-5-1.2-7.2
							c-0.4-0.9-0.8-1.7-1.4-2.5c-0.5-0.8-1.1-1.5-1.7-2.2c-0.8-0.8-1.7-1.6-2.7-2.4c-0.1-0.1-0.3-0.2-0.5-0.3
							c-0.1,0-0.1-0.1-0.2-0.1l9.9-5.4l-1.9-1.1l-2.8,1.5l-8.5,4.5C249.8,553.4,249.6,554.1,250.2,554.4z"/>
						<path fill="#F39E21" d="M240.4,569.9c0-0.8,0-1.6-0.2-2.4c-1.9,0-4.1,0.4-5.8,1.3c-3.1,1.6-3.7,4-1.3,5.6
							c1.3,0.8,3.3,1.2,5.3,1.1c0.6-0.8,1-1.6,1.4-2.5c-1.2,0.4-2.7,0.3-3.5-0.2c-1-0.6-0.8-1.7,0.6-2.4
							C237.8,569.7,239.3,569.5,240.4,569.9z"/>
						<path fill="#F39E21" d="M253.7,583.8c-0.9-0.6-0.9-1.5-0.2-2.2c-1.4,0.1-2.9,0.4-4.3,0.7c-0.3,1.2,0.2,2.4,1.6,3.3
							c2.5,1.6,6.9,1.5,9.7-0.3c1.6-1,2.4-2.3,2.3-3.6c-1.3-0.2-2.7-0.3-4.1-0.3c0.6,0.7,0.3,1.6-0.7,2.3
							C256.6,584.4,254.7,584.5,253.7,583.8z"/>
					</g>
				</g>
				<g>
					<g>
						<linearGradient id="SVGID_27_" gradientUnits="userSpaceOnUse" x1="251.4001" y1="606.0309" x2="251.4001" y2="571.6999">
							<stop  offset="0" style="stop-color:#FFD340"/>
							<stop  offset="1" style="stop-color:#F37365"/>
						</linearGradient>
						<path fill="url(#SVGID_27_)" d="M308.4,552.2c-0.5,8-5.9,15.9-16.5,22c-22.2,12.8-58.2,12.8-80.6-0.1
							c-6.6-3.8-11.1-8.1-13.9-12.8c-0.3-0.5-0.6-1-0.8-1.5c-0.5-1.1-1-2.1-1.3-3.2c-0.2-0.8-0.3-1.2-0.4-1.6
							c-0.2-0.9-0.3-1.2-0.3-1.6c-0.1-0.6-0.1-0.9-0.1-1.2c-0.1,10-0.1,21.3-0.1,21.3c0.7,8,6.2,16,16.8,22.2
							c8.4,4.8,18.7,7.8,29.5,9.1c18,2.1,37.4-0.9,51.3-9c10.7-6.2,16.1-14.2,16.5-22.3c0-0.7,0-1.2,0-1.7c0,0,0-10.2,0.1-19.5
							H308.4z"/>
						<path fill="#FFD340" d="M194.4,551.8c0,0.4,0.1,0.9,0.1,1.3c0.1,0.7,0.2,1.1,0.2,1.4c0.2,0.9,0.3,1.3,0.4,1.7
							c0.4,1.4,0.8,2.4,1.3,3.4c0.3,0.6,0.6,1.2,0.9,1.7c2.7,4.7,7.3,9,13.7,12.7c22.5,13,58.6,13,80.8,0.2
							c10.6-6.2,16.1-14.2,16.5-22.3c0.1-2.8-0.5-5.4-1.5-8c-0.4-1.2-0.8-2.4-1.5-3.6c-2.7-4.6-7.1-8.9-13.4-12.7
							c-9.9-5.7-21.9-8.9-34.2-9.7c-4-0.3-8-0.3-12.1-0.1c-12.7,0.7-25.1,3.8-34.9,9.5c-0.8,0.5-1.5,0.9-2.3,1.4
							c-6.6,4.3-10.8,9.4-12.9,14.8c-0.8,2.2-1.4,4.5-1.5,6.7C194.3,550.7,194.4,551.3,194.4,551.8z"/>
					</g>
					<g>
						<path fill="#F39E21" d="M244.7,533.4c0.3,0.2,0.6,0.4,0.9,0.6c0.1,0.1,0.3,0.2,0.4,0.3c0.3,0.2,0.7,0.5,1,0.7c0,0,0,0-0.1,0
							c0.7,0.6,1.3,1.2,1.9,1.8c0,0,0,0,0.1,0c2.2,2.6,3.1,5.7,2.7,9c-0.2,1.9-0.8,3.8-1.9,5.7c3.2-0.6,6.4-0.9,9.6-0.9
							c5.6-0.1,10.8,0.5,15.3,2l0,0c0,0,0,0,0,0c0.4,0.1,0.8,0.3,1.2,0.4c0.7,0.3,1.4,0.6,2.1,0.9c0,0,0,0,0,0
							c0.5,0.2,0.9,0.4,1.3,0.7c0.2,0.1,0.3,0.2,0.5,0.3c0.3,0.2,0.6,0.4,1,0.6c3.1,2,8.4,1.5,11.8-1.1l2.4-1.9l2.4-1.9l-2.1-1.3
							l-4.8,3.7c-2.1,1.6-5.3,1.9-7.1,0.7c-0.4-0.2-0.7-0.5-1.1-0.6c-0.2-0.1-0.4-0.2-0.5-0.3c-1-0.5-2-1-3.1-1.4
							c-0.2-0.1-0.3-0.1-0.5-0.2c-0.1,0-0.1,0-0.2-0.1c-0.9-0.3-1.9-0.6-2.8-0.9l0,0c-4.5-1.3-9.7-1.8-15.1-1.7
							c-1.8,0-3.6,0.2-5.5,0.4c0.4-1.1,0.6-2.2,0.7-3.3c0.4-3.3-0.4-6.4-2.2-9l0,0c-0.4-0.6-0.9-1.1-1.4-1.7
							c-0.1-0.1-0.2-0.2-0.3-0.3c-0.6-0.6-1.3-1.2-2-1.7c-0.1-0.1-0.3-0.2-0.4-0.3c-0.3-0.2-0.6-0.4-0.9-0.6c-1.7-1-1-2.8,1.4-4.1
							l5.7-3l-1.9-1.1l-2.9,1.5l-2.9,1.5C243,528.7,241.9,531.7,244.7,533.4z"/>
						<path fill="#F39E21" d="M272.7,561c-0.2-0.1-0.5-0.3-0.7-0.4c-0.5-0.3-1-0.5-1.5-0.8c-1.3,1.6-3,3-5,4.4
							c-11.3,7.4-29.5,7.5-40.2,0.6c-10.4-6.7-8-16.8,4.8-22.9c2.3-1.1,4.7-2,7.2-2.8c-0.3-0.3-0.7-0.5-1-0.8l0,0
							c-0.2-0.1-0.4-0.3-0.6-0.4c-0.2-0.1-0.3-0.2-0.5-0.3c-2.6,0.8-5,1.8-7.4,2.9c-14.8,6.8-17.6,18.3-5.6,26
							c12.3,8,33.1,8,45.9-0.6c2-1.4,3.7-2.9,5.1-4.5C273.1,561.3,272.9,561.2,272.7,561z"/>
						<path fill="#F39E21" d="M264.6,538c1.5,0.5,3,1.1,4.2,1.9c1.3,0.8,2.3,1.7,3.2,2.6c1.1,0.1,2.1,0.2,3.2,0.4l0.6,0.1l0,0
							c0.4,0.1,0.7,0.1,1.1,0.2c-1.1-2-2.8-3.8-5.2-5.2c-2.3-1.4-5.2-2.4-8.3-3c0.2,0.3,0.3,0.7,0.5,1
							C264.2,536.7,264.4,537.3,264.6,538z"/>
						<path fill="#F39E21" d="M294.5,555.8c-4.6,3.7-12.1,4.3-16.5,1.5c-0.3-0.2-0.6-0.4-0.9-0.5c-0.2-0.1-0.3-0.2-0.5-0.3
							c-0.9-0.5-2-1-3-1.4c0,0,0,0-0.1,0c-4.3-1.6-9.4-2.4-14.9-2.3c-5.1,0.1-10.4,0.9-15.3,2.3c2.7-2.9,4.2-6,4.6-9
							c0.4-3.3-0.6-6.3-3-8.8c-0.6-0.6-1.2-1.2-2-1.7c-0.1-0.1-0.2-0.2-0.3-0.2c-0.2-0.2-0.5-0.3-0.8-0.5c-3.9-2.4-2.4-6.5,3.3-9.3
							l-2.1-1.2c-7.6,3.6-9.6,8.9-4.4,12.1c0,0,0.1,0.1,0.1,0.1c0.2,0.1,0.4,0.2,0.5,0.4c0.6,0.4,1.1,0.8,1.6,1.2
							c2.5,2.3,3.6,5.1,3.1,8.2c-0.5,4.6-4.3,9.2-10.5,12.6l0,0l-0.1,0l2.6,1.7c0,0,0.1,0,0.1-0.1l0,0c6.2-3.4,14.2-5.4,22-5.5
							c4.9-0.1,9.4,0.6,13.2,2.1c0.3,0.1,0.6,0.3,0.9,0.4c0.8,0.3,1.5,0.7,2.2,1.1c0.2,0.1,0.4,0.2,0.6,0.4c0.1,0,0.1,0.1,0.2,0.1
							c5.9,3.7,15.7,2.9,21.7-2L294.5,555.8z"/>
						<path fill="#F39E21" d="M250.4,530.5c0.4,0.2,0.7,0.4,1,0.6c0.1,0.1,0.3,0.2,0.4,0.3c0.9,0.7,1.8,1.4,2.6,2.2
							c0.2,0.2,0.5,0.5,0.7,0.8c0.6,0.7,1.1,1.5,1.5,2.2c1.5,2.6,2,5.5,1.7,8.6c0,0.4-0.1,0.8-0.2,1.2c0.7,0,1.4-0.1,2-0.1
							c5.1-0.2,10,0.2,14.4,1.2l0,0c1.3,0.3,2.6,0.6,3.9,1.1c0.4,0.1,0.8,0.3,1.2,0.4c0.1,0,0.2,0.1,0.2,0.1
							c1.3,0.5,2.6,1.1,3.8,1.7c0.2,0.1,0.4,0.2,0.6,0.3c0.4,0.2,0.8,0.4,1.2,0.7c0.6,0.4,1.8,0.3,2.5-0.3l7.3-5.6l2.4-1.9l-2.1-1.3
							l-8.6,6.5c-0.1,0-0.2-0.1-0.3-0.1c-0.2-0.1-0.4-0.2-0.6-0.3c-1.3-0.7-2.6-1.3-4.1-1.8c-0.1,0-0.2-0.1-0.3-0.1
							c-1.2-0.4-2.4-0.8-3.7-1.1c-1.4-0.4-2.8-0.7-4.3-0.9l0,0c-3.7-0.6-7.7-0.9-11.9-0.8c0.2-2.6-0.2-5-1.2-7.2
							c-0.4-0.9-0.8-1.7-1.4-2.5c-0.5-0.8-1.1-1.5-1.7-2.2c-0.8-0.8-1.7-1.6-2.7-2.4c-0.1-0.1-0.3-0.2-0.5-0.3
							c-0.1,0-0.1-0.1-0.2-0.1l9.9-5.4l-1.9-1.1l-2.8,1.5l-8.5,4.5C250,529.5,249.8,530.1,250.4,530.5z"/>
						<path fill="#F39E21" d="M240.5,545.9c0-0.8,0-1.6-0.2-2.4c-1.9,0-4.1,0.4-5.8,1.3c-3.1,1.6-3.7,4-1.3,5.6
							c1.3,0.8,3.3,1.2,5.3,1.1c0.6-0.8,1-1.6,1.4-2.5c-1.2,0.4-2.7,0.3-3.5-0.2c-1-0.6-0.8-1.7,0.6-2.4
							C238,545.7,239.5,545.6,240.5,545.9z"/>
						<path fill="#F39E21" d="M253.8,559.8c-0.9-0.6-0.9-1.5-0.2-2.2c-1.4,0.1-2.9,0.4-4.3,0.7c-0.3,1.2,0.2,2.4,1.6,3.3
							c2.5,1.6,6.9,1.5,9.7-0.3c1.6-1,2.4-2.3,2.3-3.6c-1.3-0.2-2.7-0.3-4.1-0.3c0.6,0.7,0.3,1.6-0.7,2.3
							C256.8,560.4,254.9,560.5,253.8,559.8z"/>
					</g>
				</g>
			</g>
			<path fill="#FFD340" d="M327.2,449.5l-4.3-2.5c-0.5-0.3-0.9-1.1-0.9-1.8s0.4-1,0.9-0.7l4.3,2.5c0.5,0.3,0.9,1.1,0.9,1.8
				C328.1,449.5,327.7,449.8,327.2,449.5z"/>
			<path fill="#FFD340" d="M366.7,473.6l-4.3-2.5c-0.5-0.3-0.9-1.1-0.9-1.8s0.4-1,0.9-0.7l4.3,2.5c0.5,0.3,0.9,1.1,0.9,1.8
				C367.7,473.6,367.2,473.9,366.7,473.6z"/>
		</g>
	</g>
</g>
<g>
	<path fill="#F1F0F8" d="M689,466.7l-60.2,34.6c-3.4,2-3.4,6.9,0,8.8l60.5,34.8c5,2.9,11.2,2.9,16.2,0l61.2-35.2
		c3.3-1.9,3.3-6.6,0-8.5l-60-34.5C701.3,463.6,694.5,463.6,689,466.7z"/>
	
		<linearGradient id="SVGID_28_" gradientUnits="userSpaceOnUse" x1="-765.8954" y1="-846.2766" x2="-928.6479" y2="-846.2766" gradientTransform="matrix(-1 0 0 -1 -150.709 -320.9664)">
		<stop  offset="0.4222" style="stop-color:#FFFFFF"/>
		<stop  offset="0.4462" style="stop-color:#F5F5FA"/>
		<stop  offset="0.4805" style="stop-color:#E0E2F2"/>
		<stop  offset="0.521" style="stop-color:#C2C7E4"/>
		<stop  offset="0.5663" style="stop-color:#9BA5D3"/>
		<stop  offset="0.6116" style="stop-color:#7283C0"/>
	</linearGradient>
	<path fill="url(#SVGID_28_)" d="M628.8,505.5l60.6,34.7c5,2.9,11.2,2.9,16.2,0l61.4-35.1c0.8-0.4,1.4-1.1,1.8-1.8
		c1.3,2.2,0.7,5.3-1.8,6.7l-61.4,35.1c-5,2.9-11.2,2.9-16.2,0l-60.6-34.7c-2.6-1.5-3.2-4.6-1.9-6.9C627.3,504.3,628,505,628.8,505.5
		z"/>
</g>
<g>
	<path fill="#6370A6" d="M685.1,503.4c1.6-0.9,4.4-0.8,6.2,0.3l2.4,1.4c1.8,1.1,2,2.7,0.4,3.6c-1.6,0.9-4.4,0.8-6.2-0.3l-2.4-1.4
		C683.7,505.9,683.5,504.3,685.1,503.4z"/>
	<path fill="#6370A6" d="M699.9,494.6c1.6-0.9,4.4-0.8,6.2,0.3l2.4,1.4c1.8,1.1,2,2.7,0.4,3.6c-1.6,0.9-4.4,0.8-6.2-0.3l-2.4-1.4
		C698.5,497.2,698.3,495.5,699.9,494.6z"/>
	
		<linearGradient id="SVGID_29_" gradientUnits="userSpaceOnUse" x1="635.9296" y1="500.7521" x2="635.9296" y2="448.0104" gradientTransform="matrix(1 0 0 1 64.4158 0)">
		<stop  offset="1.081080e-02" style="stop-color:#2D348A"/>
		<stop  offset="0.141" style="stop-color:#382E7B"/>
		<stop  offset="0.3818" style="stop-color:#422465"/>
		<stop  offset="0.6114" style="stop-color:#441C56"/>
		<stop  offset="0.8232" style="stop-color:#44174D"/>
		<stop  offset="1" style="stop-color:#44154A"/>
	</linearGradient>
	<path fill="url(#SVGID_29_)" d="M705.6,422.9c-0.6,4.4-1.3,8.7-2,13.1c-0.1,0-0.3,0.1-0.5,0.2l-5.8,3.4c0.5-4.8,1-9.6,1.5-14.4
		c0.5-5.6-8.3-5.6-8.8,0c-1.2,13.1-3.1,26.3-3.4,39.4c-0.3,13,0.6,26,1,39c0.2,5.7,8.9,5.7,8.8,0c-0.4-12.9-1.4-26-1-39
		c0.2-6.9,0.8-13.7,1.5-20.6c0.3-0.1,6.1-3.5,6.1-3.5c-1.1,8.1-1.9,16.2-1.6,24.4c0.3,9.8,0.6,19.7,0.9,29.5c0.2,5.7,9,5.7,8.8,0
		c-0.3-9.8-0.6-19.6-0.9-29.4c-0.5-13.4,1.9-26.5,3.9-39.7C714.9,419.7,706.4,417.3,705.6,422.9z"/>
	<g>
		<g>
			<g>
				<path fill="#F5959C" d="M709.9,373.5c-0.1,2.7-0.1,5.5-0.2,8.2c0,1.9-5,1.9-4.9,0c0.1-2.7,0.1-5.5,0.2-8.2
					C705,371.6,709.9,371.6,709.9,373.5L709.9,373.5z"/>
			</g>
			<path fill="#F5959C" d="M707.9,375.7c0.5,0,0.9-0.2,1.2-0.5c2.2-2.4,2.1-7.2,0.6-10.6c-0.9-2.2-1.8-3.2-5.6-3.3
				c-0.9,0-3.6-0.2-4.5,1c-0.3,0.1-0.6,0.2-0.8,0.4v6.9c0,3.4,3,6.2,6.7,6.2H707.9z"/>
			
				<linearGradient id="SVGID_30_" gradientUnits="userSpaceOnUse" x1="633.106" y1="366.7959" x2="648.4766" y2="366.7959" gradientTransform="matrix(1 0 0 1 64.4158 0)">
				<stop  offset="0.2865" style="stop-color:#6156A4"/>
				<stop  offset="0.821" style="stop-color:#4A2F89"/>
			</linearGradient>
			<path fill="url(#SVGID_30_)" d="M711.8,361.6c-1.4-2.4-6.4-2.7-9.8-2c-0.5-0.3-0.9-0.7-1.5-0.8c-0.3-0.1-0.5-0.1-0.8,0
				c-0.8,0.1-1.6,0.3-2,0.9c-0.2,0.3-0.2,0.5-0.2,0.8c0,0.9,0.3,2,0.9,2.9c0.3,1.5,1.5,3,2.5,3.8c1.2,0.9,2.6,1.6,3.5,2.8
				c0.7,1,1,2.3,1.7,3.4c0.7,1.1,2.1,1.9,3.2,1.3C711.6,373.6,714.5,366.1,711.8,361.6z"/>
			<path fill="#492A1A" d="M702.1,370h1.2c0,0,0,0,0,0v-2.9c0,0,0,0,0,0h-1.2c0,0,0,0,0,0L702.1,370C702.1,370,702.1,370,702.1,370z
				"/>
			<ellipse fill="#F17992" cx="704.2" cy="369.5" rx="1.2" ry="2"/>
		</g>
		<path fill="#F17992" d="M702.7,385c-1.3-0.7-1.1-2,0.4-2.9l1.9-1.1c1.5-0.9,3.7-0.9,5-0.2c1.3,0.7,1.1,2-0.4,2.9l-1.9,1.1
			C706.3,385.6,704,385.7,702.7,385z"/>
	</g>
	<path fill="#2C1C3B" d="M704.3,373l-3,1.4c-1.4,0.7-3.1,0-3.8-1.4c-0.8-1.7-0.1-3.4,1.3-4l3-1.4c1.4-0.7,3.1,0,3.8,1.4
		C706.4,370.6,705.7,372.3,704.3,373z"/>
	<path fill="#F5959C" d="M694.8,373.5c-0.5-1.3,0.2-2.8,1.5-3.2l2.9-1c1.3-0.5,2.7,0.2,3.2,1.5c0.5,1.3-0.2,2.8-1.5,3.2l-2.9,1
		C696.7,375.5,695.2,374.8,694.8,373.5z"/>
	<path fill="#F5959C" d="M716.2,439.1c-1.4-0.1-2.5-1.2-2.4-2.6l0.1-3.1c0.1-1.4,1.2-2.5,2.6-2.4c1.4,0.1,2.5,1.2,2.4,2.6l-0.1,3.1
		C718.7,438.1,717.6,439.2,716.2,439.1z"/>
	
		<linearGradient id="SVGID_31_" gradientUnits="userSpaceOnUse" x1="634.2644" y1="438.0053" x2="634.2644" y2="387.913" gradientTransform="matrix(1 0 0 1 64.4158 0)">
		<stop  offset="1.081080e-02" style="stop-color:#A4AED8"/>
		<stop  offset="1" style="stop-color:#E8F6FE"/>
	</linearGradient>
	<path fill="url(#SVGID_31_)" d="M715.3,383c-0.3-0.6-0.7-1.1-1.3-1.3c-2.8-2.7-7-1.4-8.7-0.9c-4.6,1.3-6.7,3.2-8.2,5.8
		c-2.2,0.9-4.4,1.8-6.7,2.6c-2.1,0.7-4.2,1.4-6.4,2c-0.6,0.1-1.2,0.2-1.8,0.3c5.2-5.7,10.4-11.4,15.6-17.1c1.9-2.1-1.2-5.2-3.1-3.1
		c-6.1,6.7-12.3,13.4-18.4,20.1c-0.5,0.5-0.9,1.4-0.6,2.1c1.9,4.6,8.7,2.2,12.1,1.1c2.3-0.7,4.6-1.5,6.8-2.4
		c-1.4,4.5-1.3,8.7-2.3,17.6c-1.2,11.5-10.7,28.6,4.6,29.9c8.5,0.7,17.4-4.2,18.2-11.7c0.2-2.3-1.2-9.5-0.4-16.7
		c0.2-2.2,0.6-7.1,0.9-11.2c1.9,10.5,1.8,21.6-1.3,31.7c-0.8,2.7,3.4,3.9,4.2,1.2C723.6,417,721.7,398.3,715.3,383z"/>
</g>
</svg>
