<svg xmlns="http://www.w3.org/2000/svg" xmlns:xlink="http://www.w3.org/1999/xlink" width="1200" height="1099.21" viewBox="0 0 1200 1099.21"><defs><style>.cls-1{fill:url(#_ÂÁ_Ï_ÌÌ_È_ËÂÌÚ_438);}.cls-2{fill:#f0eff7;}.cls-3{fill:#30439b;opacity:0.43;}.cls-4{fill:url(#_ÂÁ_Ï_ÌÌ_È_ËÂÌÚ_438-2);}.cls-5{fill:#fff;}.cls-6{fill:url(#_ÂÁ_Ï_ÌÌ_È_ËÂÌÚ_438-3);}.cls-7{fill:url(#_ÂÁ_Ï_ÌÌ_È_ËÂÌÚ_227);}.cls-8{fill:#f4949b;}.cls-9{fill:url(#_ÂÁ_Ï_ÌÌ_È_ËÂÌÚ_432);}.cls-10{fill:url(#_ÂÁ_Ï_ÌÌ_È_ËÂÌÚ_436);}.cls-11{fill:#2a4280;}.cls-12{fill:#212e60;}.cls-13{fill:#f8a983;}.cls-14{fill:#19264f;}.cls-15{fill:#4c51a3;}.cls-16{fill:url(#_ÂÁ_Ï_ÌÌ_È_ËÂÌÚ_436-2);}.cls-17{fill:url(#_ÂÁ_Ï_ÌÌ_È_ËÂÌÚ_432-2);}.cls-18{fill:url(#_ÂÁ_Ï_ÌÌ_È_ËÂÌÚ_438-4);}.cls-19{fill:url(#_ÂÁ_Ï_ÌÌ_È_ËÂÌÚ_227-2);}.cls-20{fill:#77d1f6;}.cls-21{fill:url(#_ÂÁ_Ï_ÌÌ_È_ËÂÌÚ_215);}.cls-22{fill:url(#_ÂÁ_Ï_ÌÌ_È_ËÂÌÚ_216);}.cls-23{fill:#f17992;}.cls-24{fill:url(#_ÂÁ_Ï_ÌÌ_È_ËÂÌÚ_432-3);}.cls-25{fill:url(#_ÂÁ_Ï_ÌÌ_È_ËÂÌÚ_39);}.cls-26,.cls-29{fill:#a3acd7;}.cls-26,.cls-39{opacity:0.38;}.cls-27{fill:url(#_ÂÁ_Ï_ÌÌ_È_ËÂÌÚ_2642);}.cls-28{opacity:0.36;}.cls-30{fill:url(#_ÂÁ_Ï_ÌÌ_È_ËÂÌÚ_2642-2);}.cls-31{fill:url(#_ÂÁ_Ï_ÌÌ_È_ËÂÌÚ_438-5);}.cls-32{fill:url(#_ÂÁ_Ï_ÌÌ_È_ËÂÌÚ_227-3);}.cls-33{fill:url(#_ÂÁ_Ï_ÌÌ_È_ËÂÌÚ_432-4);}.cls-34{fill:url(#_ÂÁ_Ï_ÌÌ_È_ËÂÌÚ_436-3);}.cls-35{fill:#f37366;}.cls-36{fill:url(#_ÂÁ_Ï_ÌÌ_È_ËÂÌÚ_436-4);}.cls-37{fill:url(#_ÂÁ_Ï_ÌÌ_È_ËÂÌÚ_432-5);}.cls-38{fill:url(#_ÂÁ_Ï_ÌÌ_È_ËÂÌÚ_440);}.cls-39{fill:#9996c9;}.cls-40{fill:#ffd33f;}.cls-41{fill:url(#_ÂÁ_Ï_ÌÌ_È_ËÂÌÚ_440-2);}.cls-42{fill:url(#_ÂÁ_Ï_ÌÌ_È_ËÂÌÚ_436-5);}.cls-43{fill:url(#_ÂÁ_Ï_ÌÌ_È_ËÂÌÚ_432-6);}.cls-44{fill:#ed2e70;}.cls-45{fill:url(#_ÂÁ_Ï_ÌÌ_È_ËÂÌÚ_188);}.cls-46{fill:url(#_ÂÁ_Ï_ÌÌ_È_ËÂÌÚ_188-2);}.cls-47{fill:url(#_ÂÁ_Ï_ÌÌ_È_ËÂÌÚ_188-3);}.cls-48{fill:url(#_ÂÁ_Ï_ÌÌ_È_ËÂÌÚ_188-4);}.cls-49{fill:url(#_ÂÁ_Ï_ÌÌ_È_ËÂÌÚ_188-5);}.cls-50{fill:url(#_ÂÁ_Ï_ÌÌ_È_ËÂÌÚ_188-6);}.cls-51{fill:url(#_ÂÁ_Ï_ÌÌ_È_ËÂÌÚ_188-7);}.cls-52{fill:url(#_ÂÁ_Ï_ÌÌ_È_ËÂÌÚ_188-8);}.cls-53{fill:url(#_ÂÁ_Ï_ÌÌ_È_ËÂÌÚ_440-3);}.cls-54{fill:#e98824;}.cls-55{fill:#f89d1d;}.cls-56{fill:url(#_ÂÁ_Ï_ÌÌ_È_ËÂÌÚ_438-6);}.cls-57{fill:url(#_ÂÁ_Ï_ÌÌ_È_ËÂÌÚ_438-7);}.cls-58{fill:url(#_ÂÁ_Ï_ÌÌ_È_ËÂÌÚ_440-4);}.cls-59{fill:url(#_ÂÁ_Ï_ÌÌ_È_ËÂÌÚ_440-5);}.cls-60{fill:url(#_ÂÁ_Ï_ÌÌ_È_ËÂÌÚ_440-6);}.cls-61{fill:url(#_ÂÁ_Ï_ÌÌ_È_ËÂÌÚ_438-8);}.cls-62{fill:url(#_ÂÁ_Ï_ÌÌ_È_ËÂÌÚ_440-7);}.cls-63{fill:url(#_ÂÁ_Ï_ÌÌ_È_ËÂÌÚ_440-8);}</style><linearGradient id="_ÂÁ_Ï_ÌÌ_È_ËÂÌÚ_438" x1="-117.96" y1="776.61" x2="1123.42" y2="776.61" gradientTransform="translate(-25.55)" gradientUnits="userSpaceOnUse"><stop offset="0.29" stop-color="#eae9f5"/><stop offset="0.39" stop-color="#e3e2f2"/><stop offset="0.53" stop-color="#d1cfe8"/><stop offset="0.63" stop-color="#bfbddf"/></linearGradient><linearGradient id="_ÂÁ_Ï_ÌÌ_È_ËÂÌÚ_438-2" x1="656.8" y1="306.01" x2="824.04" y2="306.01" gradientTransform="matrix(1, 0, 0, 1, 0, 0)" xlink:href="#_ÂÁ_Ï_ÌÌ_È_ËÂÌÚ_438"/><linearGradient id="_ÂÁ_Ï_ÌÌ_È_ËÂÌÚ_438-3" x1="6184.29" y1="461.99" x2="6379.09" y2="461.99" gradientTransform="matrix(-1, 0, 0, 1, 6508.13, 0)" xlink:href="#_ÂÁ_Ï_ÌÌ_È_ËÂÌÚ_438"/><linearGradient id="_ÂÁ_Ï_ÌÌ_È_ËÂÌÚ_227" x1="222.96" y1="310.62" x2="361" y2="310.62" gradientUnits="userSpaceOnUse"><stop offset="0" stop-color="#f27024"/><stop offset="1" stop-color="#ee3f39"/></linearGradient><linearGradient id="_ÂÁ_Ï_ÌÌ_È_ËÂÌÚ_432" x1="6218.66" y1="314.51" x2="6281.8" y2="314.51" gradientTransform="matrix(-1, 0, 0, 1, 6482.58, 0)" gradientUnits="userSpaceOnUse"><stop offset="0.01" stop-color="#a4add8"/><stop offset="1" stop-color="#e7f6fd"/></linearGradient><linearGradient id="_ÂÁ_Ï_ÌÌ_È_ËÂÌÚ_436" x1="6221.79" y1="372.4" x2="6288.62" y2="372.4" gradientTransform="matrix(-1, 0, 0, 1, 6482.58, 0)" gradientUnits="userSpaceOnUse"><stop offset="0.01" stop-color="#2c3e99"/><stop offset="0.02" stop-color="#2c3e99"/><stop offset="0.38" stop-color="#323381"/><stop offset="0.72" stop-color="#352c72"/><stop offset="1" stop-color="#362a6d"/></linearGradient><linearGradient id="_ÂÁ_Ï_ÌÌ_È_ËÂÌÚ_436-2" x1="6199.05" y1="383.78" x2="6270.02" y2="383.78" xlink:href="#_ÂÁ_Ï_ÌÌ_È_ËÂÌÚ_436"/><linearGradient id="_ÂÁ_Ï_ÌÌ_È_ËÂÌÚ_432-2" x1="6245.64" y1="391.54" x2="6242.93" y2="317.64" xlink:href="#_ÂÁ_Ï_ÌÌ_È_ËÂÌÚ_432"/><linearGradient id="_ÂÁ_Ï_ÌÌ_È_ËÂÌÚ_438-4" x1="7117.84" y1="698.76" x2="7314.93" y2="698.76" gradientTransform="matrix(-1, 0, 0, 1, 7851.41, 0)" xlink:href="#_ÂÁ_Ï_ÌÌ_È_ËÂÌÚ_438"/><linearGradient id="_ÂÁ_Ï_ÌÌ_È_ËÂÌÚ_227-2" x1="7054.62" y1="545.61" x2="7194.44" y2="545.61" gradientTransform="matrix(-1, 0, 0, 1, 7825.87, 0)" xlink:href="#_ÂÁ_Ï_ÌÌ_È_ËÂÌÚ_227"/><linearGradient id="_ÂÁ_Ï_ÌÌ_È_ËÂÌÚ_215" x1="764.93" y1="609.83" x2="832.56" y2="609.83" gradientTransform="matrix(-1, 0, 0, 1, 1442.25, 0)" gradientUnits="userSpaceOnUse"><stop offset="0" stop-color="#6055a3"/><stop offset="0.28" stop-color="#492d8a"/></linearGradient><linearGradient id="_ÂÁ_Ï_ÌÌ_È_ËÂÌÚ_216" x1="740.77" y1="624.15" x2="807.73" y2="624.15" gradientTransform="matrix(-1, 0, 0, 1, 1442.25, 0)" gradientUnits="userSpaceOnUse"><stop offset="0.13" stop-color="#6055a3"/><stop offset="0.78" stop-color="#492d8a"/></linearGradient><linearGradient id="_ÂÁ_Ï_ÌÌ_È_ËÂÌÚ_432-3" x1="813.42" y1="641.97" x2="813.42" y2="558.1" gradientTransform="matrix(-1, 0, 0, 1, 1442.25, 0)" xlink:href="#_ÂÁ_Ï_ÌÌ_È_ËÂÌÚ_432"/><linearGradient id="_ÂÁ_Ï_ÌÌ_È_ËÂÌÚ_39" x1="227.06" y1="529.58" x2="284.57" y2="529.58" gradientTransform="translate(361.14)" gradientUnits="userSpaceOnUse"><stop offset="0.12" stop-color="#faa65a"/><stop offset="0.67" stop-color="#ed326f"/><stop offset="1" stop-color="#ee2d70"/></linearGradient><linearGradient id="_ÂÁ_Ï_ÌÌ_È_ËÂÌÚ_2642" x1="696.93" y1="471.39" x2="731.8" y2="471.39" gradientTransform="matrix(-1, 0, 0, 1, 1442.25, 0)" gradientUnits="userSpaceOnUse"><stop offset="0" stop-color="#faa65a"/><stop offset="1" stop-color="#ee2d70"/></linearGradient><linearGradient id="_ÂÁ_Ï_ÌÌ_È_ËÂÌÚ_2642-2" x1="1559.45" y1="2241.2" x2="1634.33" y2="2241.2" gradientTransform="matrix(-0.87, -0.5, 0, 1.15, 1717.11, -1560.78)" xlink:href="#_ÂÁ_Ï_ÌÌ_È_ËÂÌÚ_2642"/><linearGradient id="_ÂÁ_Ï_ÌÌ_È_ËÂÌÚ_438-5" x1="-1564.53" y1="578.16" x2="-1369.04" y2="578.16" gradientTransform="matrix(-1, 0, 0, 1, -1037.69, 0)" xlink:href="#_ÂÁ_Ï_ÌÌ_È_ËÂÌÚ_438"/><linearGradient id="_ÂÁ_Ï_ÌÌ_È_ËÂÌÚ_227-3" x1="156.98" y1="426.25" x2="295.9" y2="426.25" gradientTransform="translate(268.44)" xlink:href="#_ÂÁ_Ï_ÌÌ_È_ËÂÌÚ_227"/><linearGradient id="_ÂÁ_Ï_ÌÌ_È_ËÂÌÚ_432-4" x1="-1529.95" y1="430.16" x2="-1466.58" y2="430.16" gradientTransform="matrix(-1, 0, 0, 1, -1063.23, 0)" xlink:href="#_ÂÁ_Ï_ÌÌ_È_ËÂÌÚ_432"/><linearGradient id="_ÂÁ_Ï_ÌÌ_È_ËÂÌÚ_436-3" x1="-1526.81" y1="488.26" x2="-1459.74" y2="488.26" gradientTransform="matrix(-1, 0, 0, 1, -1063.23, 0)" xlink:href="#_ÂÁ_Ï_ÌÌ_È_ËÂÌÚ_436"/><linearGradient id="_ÂÁ_Ï_ÌÌ_È_ËÂÌÚ_436-4" x1="-1549.63" y1="499.67" x2="-1478.41" y2="499.67" gradientTransform="matrix(-1, 0, 0, 1, -1063.23, 0)" xlink:href="#_ÂÁ_Ï_ÌÌ_È_ËÂÌÚ_436"/><linearGradient id="_ÂÁ_Ï_ÌÌ_È_ËÂÌÚ_432-5" x1="-1502.87" y1="507.47" x2="-1505.6" y2="433.31" gradientTransform="matrix(-1, 0, 0, 1, -1063.23, 0)" xlink:href="#_ÂÁ_Ï_ÌÌ_È_ËÂÌÚ_432"/><linearGradient id="_ÂÁ_Ï_ÌÌ_È_ËÂÌÚ_440" x1="823.35" y1="344.25" x2="859.44" y2="344.25" gradientTransform="matrix(-1, 0, 0, 1, 1398.07, 0)" gradientUnits="userSpaceOnUse"><stop offset="0" stop-color="#ffd33f"/><stop offset="1" stop-color="#f37366"/></linearGradient><linearGradient id="_ÂÁ_Ï_ÌÌ_È_ËÂÌÚ_440-2" x1="981.65" y1="413.99" x2="981.65" y2="319.16" gradientTransform="matrix(1, 0, 0, 1, 0, 0)" xlink:href="#_ÂÁ_Ï_ÌÌ_È_ËÂÌÚ_440"/><linearGradient id="_ÂÁ_Ï_ÌÌ_È_ËÂÌÚ_436-5" x1="586.82" y1="102.69" x2="585.41" y2="208.6" gradientTransform="matrix(1, 0, 0, 1, 0, 0)" xlink:href="#_ÂÁ_Ï_ÌÌ_È_ËÂÌÚ_436"/><linearGradient id="_ÂÁ_Ï_ÌÌ_È_ËÂÌÚ_432-6" x1="583.17" y1="127.66" x2="589.19" y2="49.38" gradientTransform="matrix(1, 0, 0, 1, 0, 0)" xlink:href="#_ÂÁ_Ï_ÌÌ_È_ËÂÌÚ_432"/><linearGradient id="_ÂÁ_Ï_ÌÌ_È_ËÂÌÚ_188" x1="850.72" y1="1015.48" x2="880.71" y2="1015.48" gradientUnits="userSpaceOnUse"><stop offset="0" stop-color="#f37366"/><stop offset="0.37" stop-color="#f79459"/><stop offset="1" stop-color="#ffd33f"/></linearGradient><linearGradient id="_ÂÁ_Ï_ÌÌ_È_ËÂÌÚ_188-2" x1="925.74" y1="975.53" x2="955.72" y2="975.53" xlink:href="#_ÂÁ_Ï_ÌÌ_È_ËÂÌÚ_188"/><linearGradient id="_ÂÁ_Ï_ÌÌ_È_ËÂÌÚ_188-3" x1="996.63" y1="934.73" x2="1026.62" y2="934.73" xlink:href="#_ÂÁ_Ï_ÌÌ_È_ËÂÌÚ_188"/><linearGradient id="_ÂÁ_Ï_ÌÌ_È_ËÂÌÚ_188-4" x1="1068.1" y1="893.19" x2="1098.09" y2="893.19" xlink:href="#_ÂÁ_Ï_ÌÌ_È_ËÂÌÚ_188"/><linearGradient id="_ÂÁ_Ï_ÌÌ_È_ËÂÌÚ_188-5" x1="827.74" y1="1018.52" x2="827.74" y2="785.83" xlink:href="#_ÂÁ_Ï_ÌÌ_È_ËÂÌÚ_188"/><linearGradient id="_ÂÁ_Ï_ÌÌ_È_ËÂÌÚ_188-6" x1="903.85" y1="975.53" x2="903.85" y2="742.85" xlink:href="#_ÂÁ_Ï_ÌÌ_È_ËÂÌÚ_188"/><linearGradient id="_ÂÁ_Ï_ÌÌ_È_ËÂÌÚ_188-7" x1="974.04" y1="934.73" x2="974.04" y2="702.05" xlink:href="#_ÂÁ_Ï_ÌÌ_È_ËÂÌÚ_188"/><linearGradient id="_ÂÁ_Ï_ÌÌ_È_ËÂÌÚ_188-8" x1="1045.79" y1="893.62" x2="1045.79" y2="660.93" xlink:href="#_ÂÁ_Ï_ÌÌ_È_ËÂÌÚ_188"/><linearGradient id="_ÂÁ_Ï_ÌÌ_È_ËÂÌÚ_440-3" x1="696.03" y1="221.49" x2="780.87" y2="221.49" gradientTransform="matrix(1, 0, 0, 1, 0, 0)" xlink:href="#_ÂÁ_Ï_ÌÌ_È_ËÂÌÚ_440"/><linearGradient id="_ÂÁ_Ï_ÌÌ_È_ËÂÌÚ_438-6" x1="758.08" y1="267.46" x2="917.62" y2="267.46" gradientTransform="translate(-2.52)" xlink:href="#_ÂÁ_Ï_ÌÌ_È_ËÂÌÚ_438"/><linearGradient id="_ÂÁ_Ï_ÌÌ_È_ËÂÌÚ_438-7" x1="1349.08" y1="368.06" x2="1500.49" y2="368.06" gradientTransform="translate(-515.4)" xlink:href="#_ÂÁ_Ï_ÌÌ_È_ËÂÌÚ_438"/><linearGradient id="_ÂÁ_Ï_ÌÌ_È_ËÂÌÚ_440-4" x1="795.9" y1="345.31" x2="795.9" y2="250.48" gradientTransform="matrix(1, 0, 0, 1, 0, 0)" xlink:href="#_ÂÁ_Ï_ÌÌ_È_ËÂÌÚ_440"/><linearGradient id="_ÂÁ_Ï_ÌÌ_È_ËÂÌÚ_440-5" x1="887.23" y1="413.99" x2="887.23" y2="319.16" gradientTransform="matrix(1, 0, 0, 1, 0, 0)" xlink:href="#_ÂÁ_Ï_ÌÌ_È_ËÂÌÚ_440"/><linearGradient id="_ÂÁ_Ï_ÌÌ_È_ËÂÌÚ_440-6" x1="890.7" y1="247.98" x2="975.54" y2="247.98" gradientTransform="matrix(1, 0, 0, 1, 0, 0)" xlink:href="#_ÂÁ_Ï_ÌÌ_È_ËÂÌÚ_440"/><linearGradient id="_ÂÁ_Ï_ÌÌ_È_ËÂÌÚ_438-8" x1="945.84" y1="368.68" x2="1105.39" y2="368.68" gradientTransform="translate(-2.52)" xlink:href="#_ÂÁ_Ï_ÌÌ_È_ËÂÌÚ_438"/><linearGradient id="_ÂÁ_Ï_ÌÌ_È_ËÂÌÚ_440-7" x1="980.4" y1="192.41" x2="1065.24" y2="192.41" gradientTransform="matrix(1, 0, 0, 1, 0, 0)" xlink:href="#_ÂÁ_Ï_ÌÌ_È_ËÂÌÚ_440"/><linearGradient id="_ÂÁ_Ï_ÌÌ_È_ËÂÌÚ_440-8" x1="799.4" y1="88.41" x2="884.24" y2="88.41" gradientTransform="matrix(1, 0, 0, 1, 0, 0)" xlink:href="#_ÂÁ_Ï_ÌÌ_È_ËÂÌÚ_440"/></defs><title>reservations-new</title><g id="Layer_2" data-name="Layer 2"><g id="Layer_1-2" data-name="Layer 1"><path class="cls-1" d="M0,454V750.33a42.69,42.69,0,0,0,21.46,37.19l503.87,291.69a148.48,148.48,0,0,0,148.83,0l502.2-290.73c14.52-8.4,24.41-23.47,23.6-38.16V454Z"/><path class="cls-2" d="M525.91,779.74,22,488c-28.55-16.53-28.55-57.84,0-74.36L528.65,120.4a135,135,0,0,1,135.33,0l513,297c27.51,15.92,27.51,55.73,0,71.65L674.74,779.74A148.48,148.48,0,0,1,525.91,779.74Z"/><path class="cls-3" d="M836.88,296.55l-61.65-35.88a19.62,19.62,0,0,0-19.71,0l-79,45.71L746,347.66h29.85l61.23-37.81A7.76,7.76,0,0,0,836.88,296.55Z"/><path class="cls-4" d="M819.61,264v38.58a5.56,5.56,0,0,1-2.79,4.84l-65.6,38a19.34,19.34,0,0,1-19.38,0l-65.38-37.85a5.34,5.34,0,0,1-2.67-5c-.41,0-.41-38.58-.41-38.58Z"/><path class="cls-5" d="M751.14,306.41l65.6-38a5.6,5.6,0,0,0,0-9.68l-66-38.19a17.58,17.58,0,0,0-17.62,0l-66.78,38.66a5.39,5.39,0,0,0,0,9.33l65.38,37.85A19.33,19.33,0,0,0,751.14,306.41Z"/><path class="cls-6" d="M301.32,411.36v46.5A6.7,6.7,0,0,1,298,463.7l-79.07,45.78a23.31,23.31,0,0,1-23.36,0l-78.81-45.63a6.43,6.43,0,0,1-3.22-6c-.49,0-.49-46.5-.49-46.5Z"/><path class="cls-5" d="M218.79,462.48l79.07-45.77a6.75,6.75,0,0,0,0-11.67l-79.5-46a21.2,21.2,0,0,0-21.24,0l-80.5,46.6a6.5,6.5,0,0,0,0,11.25l78.81,45.62A23.3,23.3,0,0,0,218.79,462.48Z"/><path class="cls-7" d="M311.26,349.3l-85.41-49.45a5.05,5.05,0,0,1-2.88-4.29c0-2,1.44-4,3.94-5.41l30.46-17.62c4.52-2.62,11.41-2.89,15.35-.61l85.41,49.45a5.05,5.05,0,0,1,2.89,4.29c0,2-1.44,4-3.94,5.4l-30.46,17.63a17.71,17.71,0,0,1-8.64,2.16A13.65,13.65,0,0,1,311.26,349.3ZM258,273.74l-30.45,17.62c-2.06,1.19-3.25,2.72-3.25,4.21a3.74,3.74,0,0,0,2.19,3.08l85.41,49.45c3.55,2.07,9.82,1.8,14-.61l30.46-17.63c2.06-1.19,3.25-2.72,3.25-4.2a3.73,3.73,0,0,0-2.19-3.08L272,273.13a12.22,12.22,0,0,0-6-1.38A16.31,16.31,0,0,0,258,273.74Z"/><path class="cls-8" d="M283.84,307.54a4.51,4.51,0,1,1,6.4,6.36l-5,5.09a4.51,4.51,0,0,1-6.4-6.36Z"/><path class="cls-8" d="M261.93,301.81a4.51,4.51,0,1,1,6.4,6.36l-5,5.09a4.51,4.51,0,0,1-6.4-6.36Z"/><path class="cls-9" d="M261.64,315l-17,9.59c-4.86,2.74-11.25,7.84-17.19,7.58-7.1-.32-10.41-6.73-14-11.84l-11.8-16.66c-3.48-4.92,4.6-9.59,8.05-4.72l8.72,12.31c2.52,3.56,6.16,12.17,11.35,11,4.86-1.08,10.62-6,14.95-8.44l12.23-6.9c5.24-3,9.94,5.12,4.71,8.07Z"/><path class="cls-10" d="M237,355.17c-13.52,6.3-26.34,14.84-39.34,22.17-8.38,4.72-.85,17.64,7.53,12.92l34.05-19.19c.76-.42,1.73-1.15,2.72-1.79.05-.63.65-.85,2.48-1.15a7.26,7.26,0,0,0-2.48,1.15,16.69,16.69,0,0,0,.75,3.07c.08.31.13.61.2.91l17.91,10.3C258.4,364.39,251.92,348.19,237,355.17Z"/><path class="cls-11" d="M241.93,369.29a7.26,7.26,0,0,1,2.48-1.15C242.58,368.43,242,368.66,241.93,369.29Z"/><path class="cls-12" d="M204,259c1.11-.52,2.43-.79,3.19-1.75s.75-2,1.46-2.74c1.75-1.88,5.18.27,7.38-1a12.74,12.74,0,0,1,1.64-1.16c2.15-.85,4.08,2.51,6.34,2.06a7.68,7.68,0,0,1,1.8-.49,2.32,2.32,0,0,1,1.38.72,9.34,9.34,0,0,1,2.12,3.29,2.59,2.59,0,0,1,1.18,1,3.23,3.23,0,0,1,.33,1.42,9.82,9.82,0,0,1-1.34,5,8.65,8.65,0,0,1-.63,2.07,11.51,11.51,0,0,1-3.33,4.35c-.59.45-1.21.88-1.82,1.32v2.56a1,1,0,0,1-1,1,1,1,0,0,1-.57-.2,6,6,0,0,0,.06-.8c0-1.85-.81-3.36-1.81-3.36s-1.81,1.5-1.81,3.36a4.94,4.94,0,0,0,.6,2.48,41.05,41.05,0,0,1-1.85,4.13c-1.07,1.81-3.21,3.25-5,2.28a4.2,4.2,0,0,1-.88-.69,8.77,8.77,0,0,1-1.16-1.42,1.75,1.75,0,0,1-.78-.56c-.35-.47-.45-1.09-.77-1.58-.75-1.17-2.58-1.49-2.92-2.84-.21-.82.26-1.71.07-2.54-.3-1.3-2-1.79-2.53-3s.16-2.46.4-3.7c.41-2.15-.53-4.3-1.45-6.28C201.87,260.78,202.93,259.54,204,259Z"/><path class="cls-8" d="M212.4,284.51c1.77,1,3.91-.47,5-2.28a41.05,41.05,0,0,0,1.85-4.13,4.94,4.94,0,0,1-.6-2.48c0-1.85.81-3.36,1.81-3.36s1.81,1.5,1.81,3.36a6,6,0,0,1-.06.8c1.11.2,1.55-.24,1.55-.78v-2.56c.61-.44,1.23-.87,1.82-1.32a11.51,11.51,0,0,0,3.33-4.35v8.2a10.57,10.57,0,0,1-9.57,10.53l.21,10.35c.06,3.2-7.69,3.2-7.75,0q-.13-6.35-.26-12.68A4.2,4.2,0,0,0,212.4,284.51Z"/><path class="cls-13" d="M219.71,300.18c1.78-1,1.55-2.84-.5-4l-2.65-1.53a7.75,7.75,0,0,0-7-.29c-1.78,1-1.55,2.84.5,4l2.65,1.53A7.75,7.75,0,0,0,219.71,300.18Z"/><path class="cls-14" d="M252,234.86l166,96.08a7.47,7.47,0,0,0,11.2-6.49V229.62a13.87,13.87,0,0,0-6.92-12l-170.8-98.88a2.13,2.13,0,0,0-3.2,1.85V228.38A7.5,7.5,0,0,0,252,234.86Z"/><polygon class="cls-15" points="274.15 159.78 254.64 148.49 254.64 150.52 274.15 161.81 274.15 159.78"/><polygon class="cls-15" points="274.15 167.1 254.64 155.81 254.64 157.84 274.15 169.13 274.15 167.1"/><polygon class="cls-15" points="254.64 136.56 254.64 138.59 261.46 142.54 261.46 140.5 254.64 136.56"/><polygon class="cls-15" points="254.64 140.53 254.64 142.57 261.46 146.52 261.46 144.48 254.64 140.53"/><polygon class="cls-15" points="254.64 168.58 254.64 170.62 260.37 173.93 260.37 171.9 254.64 168.58"/><polygon class="cls-15" points="254.64 172.56 254.64 174.59 260.37 177.91 260.37 175.87 254.64 172.56"/><polygon class="cls-15" points="254.64 184.49 254.64 186.52 267.86 194.18 267.86 192.14 254.64 184.49"/><polygon class="cls-15" points="254.64 192.44 254.64 194.47 267.86 202.13 267.86 200.09 254.64 192.44"/><polygon class="cls-15" points="254.64 196.68 254.64 198.71 259.61 201.59 259.61 199.55 254.64 196.68"/><polygon class="cls-15" points="254.64 208.61 254.64 210.65 259.61 213.52 259.61 211.49 254.64 208.61"/><polygon class="cls-15" points="254.64 216.56 254.64 218.6 259.61 221.47 259.61 219.44 254.64 216.56"/><path class="cls-11" d="M262.83,379.47a5.6,5.6,0,0,1,1.42-.57C263.12,379.14,262.75,379.07,262.83,379.47Z"/><path class="cls-16" d="M215.88,389.94c9.07-5.32,18.07-11.16,27.24-16.54,4.57-2.68,9.17-5.28,13.87-7.58,14.8-7.24,20.4,8.67,23.77,19.8,1.1,3.65,2,7.32,2.78,11l-18.35-10.56c-.44-1.33-.83-2.69-1.32-4-.58-1.58-1-2.26-1-2.61a5.5,5.5,0,0,1,1.42-.57c-1.13.24-1.5.17-1.42.57-1.34.72-2.75,1.88-3.83,2.51-12.14,7.14-22.52,13.6-34.22,20.47C216.47,407.32,207.59,394.81,215.88,389.94Z"/><path class="cls-17" d="M194.91,322.31c.69-11.38,4.78-31.82,14.83-28.89,9.15,2.67,16.76,4.63,20.32,11.49a4.72,4.72,0,0,1,.84.8c2.91,4.1,14.88,24.48,20.07,23.32,4.76-1.06,4.27-2.41,27.18-15.33,5.24-3,9.94,5.12,4.71,8.07-27,15.22-28.66,17.41-34.17,17.17-5.81-.26-8.1-3.1-16.78-15.56-.49,8.85-1.18,25.45-.6,61.83,0,2.93,1.21,12.84-.32,15.28-1.72,2.73-2.92,4.82-6,4.7a20.28,20.28,0,0,1-8.86-2.55c-22.43-12.24-22.62-14.69-23.33-28.71C191.93,356.75,193.87,339.48,194.91,322.31Z"/><path class="cls-3" d="M731.85,687.23l-75.18-43.75a23.93,23.93,0,0,0-24,0l-96.29,55.74L621,749.56h36.4l74.67-46.11A9.46,9.46,0,0,0,731.85,687.23Z"/><path class="cls-18" d="M710.79,647.54v47a6.77,6.77,0,0,1-3.41,5.9l-80,46.31a23.57,23.57,0,0,1-23.63,0L524,700.65a6.51,6.51,0,0,1-3.25-6.06c-.49,0-.49-47-.49-47Z"/><path class="cls-5" d="M627.29,699.26l80-46.31a6.82,6.82,0,0,0,0-11.81l-80.44-46.56a21.43,21.43,0,0,0-21.49,0l-81.44,47.15a6.58,6.58,0,0,0,0,11.38l79.74,46.16A23.57,23.57,0,0,0,627.29,699.26Z"/><path class="cls-19" d="M727.62,586.4a13.88,13.88,0,0,1-6.83-1.57l-86.41-50a5.18,5.18,0,0,1-3-4.4c0-2,1.47-4.05,4-5.53L666.26,507c4.6-2.66,11.6-2.94,15.61-.62l86.41,50a5.18,5.18,0,0,1,3,4.4c0,2-1.46,4.05-4,5.53l-30.81,17.84A18,18,0,0,1,727.62,586.4Zm-6.05-2.92c3.58,2.07,9.89,1.8,14.06-.62L766.44,565c2.06-1.19,3.25-2.72,3.25-4.19a3.72,3.72,0,0,0-2.18-3.06l-86.41-50c-3.58-2.07-9.89-1.79-14.06.62l-30.81,17.84c-2.06,1.19-3.25,2.72-3.25,4.18a3.71,3.71,0,0,0,2.18,3.06Z"/><path class="cls-14" d="M660.93,469l167.92,97.21a7.56,7.56,0,0,0,11.33-6.56v-96a14,14,0,0,0-7-12.15l-172.81-100a2.16,2.16,0,0,0-3.24,1.88V462.41A7.58,7.58,0,0,0,660.93,469Z"/><polygon class="cls-20" points="683.29 393.01 663.55 381.58 663.55 383.64 683.29 395.07 683.29 393.01"/><polygon class="cls-20" points="683.29 400.42 663.55 388.99 663.55 391.05 683.29 402.47 683.29 400.42"/><polygon class="cls-20" points="663.55 369.51 663.55 371.57 670.46 375.57 670.46 373.51 663.55 369.51"/><polygon class="cls-20" points="663.55 373.54 663.55 375.6 670.46 379.59 670.46 377.53 663.55 373.54"/><polygon class="cls-20" points="663.55 401.91 663.55 403.97 669.35 407.33 669.35 405.27 663.55 401.91"/><polygon class="cls-20" points="663.55 405.94 663.55 408 669.35 411.35 669.35 409.29 663.55 405.94"/><polygon class="cls-20" points="663.55 418.01 663.55 420.07 676.93 427.81 676.93 425.75 663.55 418.01"/><polygon class="cls-20" points="663.55 426.05 663.55 428.11 676.93 435.86 676.93 433.8 663.55 426.05"/><polygon class="cls-20" points="663.55 430.34 663.55 432.4 668.58 435.31 668.58 433.25 663.55 430.34"/><polygon class="cls-20" points="663.55 442.41 663.55 444.47 668.58 447.38 668.58 445.32 663.55 442.41"/><polygon class="cls-20" points="663.55 450.46 663.55 452.52 668.58 455.43 668.58 453.37 663.55 450.46"/><path class="cls-21" d="M615.15,609.89,646.92,598c10.55-3.94,27.23-10.12,29.92,7,.89,5.7.38,12-.34,18.12l-16.13-9.37c.08-2,.15-3.64.15-3.64l-14.62,5.44-26.46,9.89C609.69,629.13,605.52,613.5,615.15,609.89Z"/><path class="cls-22" d="M640,623.94l31.57-11.8c3.86-1.44,7.86-3.45,12-3.84A16.34,16.34,0,0,1,701,621.76c.82,4.8.4,10.16-.35,15.5l-15.74-9.17c0-.2,0-.44,0-.63-.41-2.78.59-2-1.94-2.41-3-.5-10.31,3.85-13.11,4.9l-25.61,9.57C634.51,643.17,630.34,627.54,640,623.94Z"/><path class="cls-23" d="M635.09,539.09c2.47-1.43,2.15-3.94-.7-5.59l-4.82-2.79c-2.85-1.65-7.2-1.83-9.66-.4s-2.15,3.94.69,5.59l4.82,2.79C628.28,540.34,632.63,540.52,635.09,539.09Z"/><path class="cls-8" d="M690.61,553.45l-12.84,7.24c-5,2.83-11.29,8.11-16.89,9.53-3.43.87-6.65-1.5-9.54-5.17l-6.15,4.34c3.23,5.47,6.83,10.79,14.3,9.83,6-.76,12.22-5.84,17.24-8.67l17.95-10.12C699.2,557.88,695.14,550.9,690.61,553.45Z"/><path class="cls-24" d="M607.27,592c2-16.81,3.25-30.9,7.48-47.12,5.16-19.77,13.38-17.54,19.5-13.4,8.66,5.86,12.55,11.18,12.68,26.77a51.93,51.93,0,0,0,4.4,6.83l-4.75,3.35c-.06,1-.12,1.9-.19,2.91-1.76,23-3.63,21.15,1.35,54.46.61,4.08,1.12,8.59-.74,12.1-3.06,5.77-9.41,5.34-14.86,4C608.63,635.89,603.94,620,607.27,592Z"/><path class="cls-8" d="M625.81,517q.15,7.54.3,15.08c.07,3.45,8.45,3.47,8.38,0q-.15-7.54-.3-15.08c-.07-3.45-8.45-3.47-8.38,0Z"/><path class="cls-8" d="M629.19,520.95a2.59,2.59,0,0,1-2-.95c-3.67-4.43-3.53-13.29-1.08-19.45,1.6-4,3-5.88,9.43-6.09,1.6-.05,6-.43,7.67,1.75q.72.33,1.38.69v12.62a11.41,11.41,0,0,1-11.4,11.43Z"/><path class="cls-23" d="M641,505.35c-2.08,1.57-4.42,2.87-5.91,5.1-1.26,1.88-1.78,4.25-2.94,6.2s-3.47,3.51-5.38,2.47C623,517.06,618,503.41,622.54,495c3.18-5.86,17.61-5,21.24-1.53S644,503.1,641,505.35Z"/><path class="cls-25" d="M615.32,503.51c-.83,4.66.42,10-2.28,13.83-2.93,4.19-13.67,6.93-20.06,14.67-10.72,13-2.68,34.12,16.47,37.64,19,3.49,28.61-14.3,18.94-30.07-4.87-7.94,3-7.29,5.72-11.35,1.37-2,2.89-6.24,1.86-8.47A33,33,0,0,1,634,515c-3.5-10.47,9.45-6.25,11.4-14.88C648.85,485.14,618.73,484.52,615.32,503.51Z"/><path class="cls-8" d="M688.58,558.83a4.65,4.65,0,0,1,1.85-6.28l5-2.73a4.63,4.63,0,0,1,4.41,8.14l-5,2.73A4.62,4.62,0,0,1,688.58,558.83Z"/><path class="cls-26" d="M745.14,488.53c13.11,7.59,23.78,1.49,23.78-13.6s-10.67-33.54-23.78-41.13c-.28-.15-.28-13.23-.28-13.23,19.66,11.37,35.42,38.64,35.42,60.94s-15.77,31.31-35.15,20.09c-.28-.17-.28-13.25-.28-13.25Z"/><path class="cls-27" d="M721.82,447.41c0,15.23,10.51,33.52,23.49,41.21V501.7c-19.25-11.32-34.87-38.42-34.87-60.61C710.45,441,721.82,447.41,721.82,447.41Z"/><g class="cls-28"><path class="cls-29" d="M304.65,211.9c0-19,13.43-26.67,29.94-17.12s29.94,32.79,29.94,51.78-13.43,26.68-29.94,17.12S304.65,230.9,304.65,211.9Zm2,1.14c0,17.74,12.55,39.44,28,48.37s28,1.75,28-16S350,206,334.59,197.06,306.62,195.3,306.62,213Z"/></g><path class="cls-30" d="M301.78,210.05c0-2.21,1.56-3.1,3.47-2a7.68,7.68,0,0,1,3.48,6c.17,16.34,11.53,35.87,25.49,44s25.5,1.6,25.5-14.58c0-16-11.23-35.58-25.11-43.86a7.9,7.9,0,0,1-3.59-6.06c0-2.1,1.41-3,3.2-2.12,18.21,10.94,32.41,35.73,32.41,56,0,20.56-14.54,28.87-32.41,18.53-17.68-10.24-32.09-35-32.39-55.4A4.76,4.76,0,0,1,301.78,210.05Z"/><path class="cls-3" d="M516.86,568.58,445.24,526.9a22.79,22.79,0,0,0-22.89,0L330.63,580l80.63,48h34.67L517.06,584A9,9,0,0,0,516.86,568.58Z"/><path class="cls-31" d="M504.25,527.36V574a6.72,6.72,0,0,1-3.38,5.86l-79.35,45.94a23.39,23.39,0,0,1-23.44,0L319,580a6.46,6.46,0,0,1-3.23-6c-.49,0-.49-46.67-.49-46.67Z"/><path class="cls-5" d="M421.42,578.66l79.35-45.94a6.77,6.77,0,0,0,0-11.71L421,474.82a21.26,21.26,0,0,0-21.31,0l-80.79,46.77a6.53,6.53,0,0,0,0,11.29L398,578.66A23.39,23.39,0,0,0,421.42,578.66Z"/><path class="cls-32" d="M521,466.85a13.89,13.89,0,0,1-6.85-1.61L428.4,415.62a5.26,5.26,0,0,1-3-4.47c0-2.06,1.48-4.11,4-5.59L460,387.87c4.67-2.7,11.52-3,15.6-.61l85.72,49.63a5.26,5.26,0,0,1,3,4.47c0,2.06-1.48,4.1-4,5.59l-30.56,17.7A17.87,17.87,0,0,1,521,466.85Zm-6-3.15c3.51,2,9.72,1.76,13.83-.61l30.56-17.7c2-1.16,3.16-2.63,3.16-4a3.53,3.53,0,0,0-2.1-2.93L474.74,388.8c-3.51-2-9.72-1.76-13.83.61L430.35,407.1c-2,1.16-3.16,2.64-3.16,4.05a3.52,3.52,0,0,0,2.1,2.93Z"/><path class="cls-8" d="M486.7,423.16a4.53,4.53,0,1,1,6.42,6.39l-5.05,5.11a4.53,4.53,0,1,1-6.42-6.39Z"/><path class="cls-8" d="M464.71,417.42a4.53,4.53,0,0,1,6.42,6.39l-5.05,5.11a4.53,4.53,0,0,1-6.42-6.39Z"/><path class="cls-33" d="M464.42,430.63l-17,9.62c-4.88,2.75-11.29,7.87-17.25,7.61-7.13-.32-10.45-6.76-14.08-11.88l-11.85-16.72c-3.5-4.93,4.62-9.63,8.08-4.74L421,426.86c2.53,3.57,6.18,12.21,11.39,11.06,4.88-1.09,10.66-6,15-8.47l12.27-6.92c5.26-3,10,5.14,4.72,8.1Z"/><path class="cls-34" d="M439.66,471c-13.56,6.33-26.43,14.9-39.48,22.25-8.41,4.74-.85,17.71,7.56,13l34.17-19.26c.76-.43,1.74-1.16,2.73-1.79,0-.63.65-.86,2.49-1.15a7.29,7.29,0,0,0-2.49,1.15,16.64,16.64,0,0,0,.75,3.08c.08.31.13.61.2.92l18,10.34C461.17,480.22,454.67,464,439.66,471Z"/><path class="cls-11" d="M444.64,485.13a7.29,7.29,0,0,1,2.49-1.15C445.3,484.27,444.69,484.5,444.64,485.13Z"/><path class="cls-13" d="M422.35,415.78c1.78-1,1.56-2.85-.5-4l-2.66-1.54a7.77,7.77,0,0,0-7-.29c-1.79,1-1.56,2.85.5,4l2.66,1.54A7.78,7.78,0,0,0,422.35,415.78Z"/><path class="cls-14" d="M454.79,350.23l166.57,96.43a7.5,7.5,0,0,0,11.24-6.51V345a13.92,13.92,0,0,0-6.94-12L454.26,233.69a2.14,2.14,0,0,0-3.21,1.86V343.72A7.52,7.52,0,0,0,454.79,350.23Z"/><polygon class="cls-35" points="476.97 274.88 457.4 263.55 457.4 265.59 476.97 276.92 476.97 274.88"/><polygon class="cls-20" points="476.97 282.23 457.4 270.89 457.4 272.94 476.97 284.27 476.97 282.23"/><polygon class="cls-35" points="457.4 251.58 457.4 253.62 464.24 257.58 464.24 255.54 457.4 251.58"/><polygon class="cls-35" points="457.4 255.57 457.4 257.61 464.24 261.57 464.24 259.53 457.4 255.57"/><polygon class="cls-35" points="457.4 283.71 457.4 285.75 463.15 289.08 463.15 287.04 457.4 283.71"/><polygon class="cls-35" points="457.4 287.7 457.4 289.75 463.15 293.07 463.15 291.03 457.4 287.7"/><polygon class="cls-35" points="457.4 299.68 457.4 301.72 470.67 309.4 470.67 307.36 457.4 299.68"/><polygon class="cls-35" points="457.4 307.66 457.4 309.7 470.67 317.38 470.67 315.34 457.4 307.66"/><polygon class="cls-20" points="457.4 311.91 457.4 313.95 462.38 316.84 462.38 314.8 457.4 311.91"/><polygon class="cls-35" points="457.4 323.88 457.4 325.93 462.38 328.81 462.38 326.77 457.4 323.88"/><polygon class="cls-20" points="457.4 331.87 457.4 333.91 462.38 336.79 462.38 334.75 457.4 331.87"/><path class="cls-11" d="M465.62,495.35a5.65,5.65,0,0,1,1.42-.57C465.91,495,465.54,495,465.62,495.35Z"/><path class="cls-36" d="M418.5,505.86c9.1-5.34,18.13-11.2,27.33-16.6,4.59-2.69,9.21-5.3,13.92-7.61,14.85-7.27,20.47,8.7,23.85,19.88,1.1,3.66,2,7.35,2.79,11.06L468,502c-.44-1.34-.83-2.7-1.32-4-.58-1.59-1-2.27-1-2.62a5.67,5.67,0,0,1,1.42-.57c-1.13.24-1.5.17-1.42.57-1.35.72-2.76,1.88-3.84,2.52-12.18,7.16-22.6,13.65-34.34,20.54C419.1,523.3,410.18,510.74,418.5,505.86Z"/><path class="cls-37" d="M397.46,438c.69-11.42,4.8-31.93,14.88-29,9.19,2.68,16.82,4.64,20.39,11.53a4.73,4.73,0,0,1,.84.8c2.92,4.12,14.93,24.56,20.14,23.4,4.77-1.06,4.28-2.42,27.27-15.39,5.26-3,10,5.14,4.72,8.1-27.07,15.27-28.75,17.47-34.29,17.23-5.83-.26-8.13-3.11-16.84-15.62-.5,8.88-1.18,25.54-.61,62.05,0,2.94,1.22,12.89-.32,15.34-1.72,2.74-2.93,4.84-6,4.72a20.4,20.4,0,0,1-8.9-2.55c-22.5-12.29-22.7-14.74-23.41-28.81C394.46,472.55,396.42,455.22,397.46,438Z"/><path class="cls-8" d="M428.52,390.65c-.65.39-1.31.77-2,1.15V394a1,1,0,0,1-1.06.86,1.21,1.21,0,0,1-.62-.18,4.28,4.28,0,0,0,.06-.7c0-1.62-.88-2.92-2-2.92s-2,1.31-2,2.92a3.65,3.65,0,0,0,.65,2.16,33,33,0,0,1-2,3.6c-1.17,1.58-3.49,2.83-5.4,2a4.66,4.66,0,0,1-.95-.61q.14,5.52.28,11c.07,2.78,8.49,2.79,8.41,0q-.11-4.51-.23-9c5.83-.43,10.39-4.37,10.39-9.17v-7.15A10.71,10.71,0,0,1,428.52,390.65Z"/><path class="cls-12" d="M414.23,401.75c1.92.84,4.24-.42,5.4-2a33,33,0,0,0,2-3.6A3.65,3.65,0,0,1,421,394c0-1.62.88-2.92,2-2.92s2,1.31,2,2.92a4.28,4.28,0,0,1-.06.7,1.2,1.2,0,0,0,.62.18,1,1,0,0,0,1.07-.86V391.8c.66-.38,1.33-.76,2-1.15a10.71,10.71,0,0,0,3.61-3.79,6.46,6.46,0,0,0,.68-1.81,7.28,7.28,0,0,0,1.45-4.34,2.37,2.37,0,0,0-.36-1.23c-.6-.87-2-1.25-3.33-1.33a5.15,5.15,0,0,0-1.4.07,11.69,11.69,0,0,0-2.52,1.21c-5.77-1.09-14.33-.59-16.69,2.91-4.19,6.19-.3,16,3.31,18.8A4.66,4.66,0,0,0,414.23,401.75Z"/><path class="cls-38" d="M538.91,369.75c13.36,7.74,24.23,1.52,24.23-13.85S552.27,321.73,538.91,314c-.28-.15-.28-13.48-.28-13.48,20,11.59,36.09,39.37,36.09,62.09s-16.07,31.9-35.81,20.47c-.28-.17-.28-13.5-.28-13.5Z"/><path class="cls-39" d="M539.12,300.8v13.33c-13.15-7.44-23.81-1.33-23.94,13.74l-11.59-6.56C503.65,298.79,519.54,289.64,539.12,300.8Z"/><polygon class="cls-40" points="745.47 438.47 733.65 455.13 744.99 485.51 756.98 468.96 745.47 438.47"/><path class="cls-12" d="M987.17,296.65c0-4.06-2.48-8.81-5.51-10.57s-5.51.13-5.51,4.18v16.29l11,6.42Z"/><path class="cls-41" d="M976.14,306.55V446.36c0,4.06,2.48,8.81,5.51,10.57s5.51-.13,5.51-4.18V313Z"/><path class="cls-8" d="M600.29,12.47c-.64.39-1.31.77-2,1.15v2.22a1,1,0,0,1-1.06.85,1.2,1.2,0,0,1-.62-.18,4.28,4.28,0,0,0,.06-.7c0-1.61-.88-2.92-2-2.92s-2,1.31-2,2.92a3.64,3.64,0,0,0,.65,2.15,33.22,33.22,0,0,1-2,3.59c-1.16,1.57-3.48,2.82-5.39,2a4.49,4.49,0,0,1-.95-.61q.14,5.51.28,11c.07,2.78,8.46,2.79,8.39,0q-.11-4.5-.23-9c5.81-.43,10.36-4.36,10.36-9.14V8.7A10.69,10.69,0,0,1,600.29,12.47Z"/><path class="cls-40" d="M586,23.55c1.91.84,4.23-.42,5.39-2a33.22,33.22,0,0,0,2-3.59,3.64,3.64,0,0,1-.65-2.15c0-1.61.88-2.92,2-2.92s2,1.31,2,2.92a4.28,4.28,0,0,1-.06.7,1.2,1.2,0,0,0,.61.18,1,1,0,0,0,1.07-.85V13.62c.66-.38,1.33-.75,2-1.15a10.69,10.69,0,0,0,3.6-3.77,6.51,6.51,0,0,0,.68-1.8A7.24,7.24,0,0,0,606,2.57a2.33,2.33,0,0,0-.36-1.23c-.6-.87-2-1.24-3.32-1.32a5.24,5.24,0,0,0-1.4.07,11.6,11.6,0,0,0-2.51,1.2C592.68.2,584.14.7,581.78,4.19c-4.18,6.17-.3,15.91,3.3,18.75A4.49,4.49,0,0,0,586,23.55Z"/><path class="cls-8" d="M581.79,98.32l-20.49-41-2.18,2.18,1.3-4,.88,1.77,2-2-7.34-5.54-3.95,4c-1.06,1.06-2,2.54-1.3,4l21.37,42.78C574.45,105.27,584.22,103.17,581.79,98.32Z"/><path class="cls-5" d="M566.64,52l-7-5.92-3.74,3.75,7.34,5.54Z"/><path class="cls-8" d="M559.12,59.48l2.18-2.18-.88-1.77Z"/><path class="cls-12" d="M611.14,222.4c-2.93-1.36-8.08-1.19-11.46.38l-4.45,2.07c-3.38,1.57-3.75,4-.82,5.33s8.08,1.19,11.46-.38l4.45-2.07C613.7,226.16,614.06,223.76,611.14,222.4Z"/><path class="cls-12" d="M592.81,209.13c-2.92-1.36-8.08-1.19-11.46.38l-4.45,2.07c-3.38,1.57-3.75,4-.82,5.33s8.08,1.18,11.46-.38l4.45-2.07C595.36,212.89,595.73,210.49,592.81,209.13Z"/><path class="cls-42" d="M607.47,112.55c.53-8.36-15.61-8.34-16.15,0-.21,3.27-.33,6.54-.51,9.8L583,118.72c-.28-4.87-.54-9.73-.83-14.6-.5-8.32-16.65-8.37-16.15,0,2.1,35,3.84,69.9,4.41,104.89.14,8.36,16.28,8.38,16.15,0-.44-26.8-1.56-53.58-3-80.35l6.75,3.14c-1.42,30.13-1.71,60.24-.58,90.41.31,8.35,16.46,8.38,16.15,0A1085.59,1085.59,0,0,1,607.47,112.55Z"/><path class="cls-5" d="M608.74,65.14l2.16,4,9.52-3.42c-.87-1.35-1.74-2.62-2.43-3.76Z"/><path class="cls-43" d="M608.74,65.14,618,62c-.22-.36-.42-.71-.6-1l-9.74-18.07a3.68,3.68,0,0,0-.58-.67c-2.14-3.78-6.22-6.92-11.2-9.09.64-1.57-.34-3-2.07-3.47l-7.41-1.8a3.48,3.48,0,0,0-4.09,1.76,7.09,7.09,0,0,1-2.7.35,11,11,0,0,0-8.74,4.89L559.68,46l6.05,5.15V108.5c1.53,6.38,6.25,9.56,25.33,17.64a27.94,27.94,0,0,0,9.93,2.22c3.45.11,4.8-1.71,6.72-4.08,1.72-2.12.4-10.73.34-13.28-.52-23.94-.22-38,.2-46.77Z"/><rect class="cls-44" x="605.09" y="122.34" width="2.52" height="5.28" rx="0.06" ry="0.06"/><path class="cls-8" d="M599.86,114.26l7.37-3.43c1.81-.84,3.07-3.42,2.81-5.74s-2-3.52-3.78-2.68l-7.37,3.43c-1.81.84-3.07,3.42-2.81,5.74S598,115.1,599.86,114.26Z"/><path class="cls-8" d="M620.42,65.73l-9.52,3.42,3.28,6.08L597.7,105.81c-2.56,4.75,3.29,7.92,5.87,3.13,3.06-5.69,7.15-10.36,10.22-16C621.91,77.83,628.49,78.16,620.42,65.73Z"/><path class="cls-40" d="M999.07,670.08l16-9.24c1.88-1.09,3.42-4,3.42-6.55s-1.54-3.69-3.42-2.59l-16,9.24c-1.88,1.09-3.42,4-3.42,6.55S997.19,671.17,999.07,670.08Z"/><path class="cls-40" d="M927.86,711.9l16-9.24a8.26,8.26,0,0,0,3.42-6.56c0-2.52-1.54-3.68-3.42-2.59l-16,9.23a8.26,8.26,0,0,0-3.42,6.56C924.44,711.82,926,713,927.86,711.9Z"/><path class="cls-40" d="M857.66,752.07l16-9.24a8.26,8.26,0,0,0,3.42-6.56c0-2.52-1.54-3.68-3.42-2.59l-16,9.24c-1.88,1.09-3.42,4-3.42,6.56S855.78,753.16,857.66,752.07Z"/><path class="cls-40" d="M781.19,796.67l16-9.24a8.25,8.25,0,0,0,3.42-6.56c0-2.52-1.54-3.68-3.42-2.59l-16,9.23c-1.88,1.09-3.42,4-3.42,6.56S779.31,797.76,781.19,796.67Z"/><path class="cls-45" d="M862.36,1023.22l16.74-9.69c2.39-1.38,2.08-3.82-.67-5.42s-7-1.77-9.35-.39l-16.74,9.69c-2.39,1.38-2.09,3.82.67,5.42S860,1024.61,862.36,1023.22Z"/><path class="cls-46" d="M937.37,983.28l16.74-9.69c2.39-1.38,2.09-3.82-.67-5.42s-7-1.77-9.35-.39l-16.74,9.69c-2.39,1.38-2.08,3.82.67,5.41S935,984.66,937.37,983.28Z"/><path class="cls-47" d="M1008.27,942.48l16.74-9.69c2.39-1.38,2.08-3.82-.67-5.41s-7-1.77-9.35-.39l-16.74,9.69c-2.39,1.38-2.09,3.82.67,5.42S1005.88,943.86,1008.27,942.48Z"/><path class="cls-48" d="M1079.74,900.94l16.74-9.69c2.39-1.38,2.09-3.82-.67-5.42s-7-1.77-9.35-.39l-16.74,9.69c-2.39,1.38-2.08,3.82.67,5.42S1077.35,902.32,1079.74,900.94Z"/><path class="cls-49" d="M867.19,1018.52h-3.73V835.57A10.85,10.85,0,0,0,857.7,826l-69.41-36.85,1.75-3.3,69.41,36.85a14.57,14.57,0,0,1,7.75,12.89Z"/><path class="cls-50" d="M943.3,975.53h-3.73V792.58a10.85,10.85,0,0,0-5.77-9.59L864.4,746.15l1.75-3.3,69.41,36.85a14.57,14.57,0,0,1,7.75,12.89Z"/><path class="cls-51" d="M1013.49,934.73h-3.73V751.79a10.86,10.86,0,0,0-5.77-9.6l-69.41-36.84,1.75-3.3,69.41,36.84a14.58,14.58,0,0,1,7.75,12.9Z"/><path class="cls-52" d="M1085.24,893.62h-3.73V710.67a10.86,10.86,0,0,0-5.77-9.6l-69.41-36.84,1.75-3.3,69.41,36.84a14.58,14.58,0,0,1,7.75,12.9Z"/><polygon class="cls-40" points="536.5 318.89 524.68 335.55 536.01 365.93 548.01 349.37 536.5 318.89"/><polygon class="cls-40" points="334.74 205.72 322.92 222.38 334.26 252.75 346.26 236.2 334.74 205.72"/><path class="cls-53" d="M757.43,268c2.45-4.47,3.86-10.24,3.86-17.21,0-25-17.59-55.38-39.28-67.94a37.23,37.23,0,0,0-15.85-5.31A21.26,21.26,0,0,0,696,179.19L713,170c7.16-4.6,17.3-4.23,28.57,2.3,21.69,12.56,39.28,43,39.28,67.94,0,11.71-3.9,20.08-10.25,24.44-.38.26-.74.55-1.13.78l-19.63,10.59A20.32,20.32,0,0,0,757.43,268Z"/><path class="cls-40" d="M696,179.19a21.26,21.26,0,0,1,10.14-1.63A37.23,37.23,0,0,1,722,182.87c21.69,12.56,39.28,43,39.28,67.94,0,7-1.41,12.73-3.86,17.21a20.32,20.32,0,0,1-7.58,8c-7.11,4.11-17,3.51-27.85-2.79-21.7-12.56-39.28-43-39.28-67.94C682.73,191.84,687.89,182.76,696,179.19Z"/><path class="cls-54" d="M702.05,212.2c.33.13.64.26.93.4l.42.2q.58.28,1.16.6l0,0a25.35,25.35,0,0,1,2.6,1.64l0,0a37.33,37.33,0,0,1,9.25,10,48.26,48.26,0,0,1,3.94,7.43,15,15,0,0,1,3.55-4.39,12.28,12.28,0,0,1,8.82-2.85h0l0,.05c.29,0,.58,0,.87.08a14.61,14.61,0,0,1,1.69.3l0-.06q.57.13,1.14.31l.45.14c.28.09.59.2.92.33,3,1.16,5.26-1.21,5.12-5.27l-.1-2.9-.1-2.9-2.11-.79.19,5.78c.08,2.46-1.31,3.89-3.1,3.19-.37-.14-.71-.26-1-.36l-.49-.16a17.79,17.79,0,0,0-2.58-.59l-.39-.05-.15,0a15.28,15.28,0,0,0-2.11-.1h0a13.49,13.49,0,0,0-8.55,3.18,15.36,15.36,0,0,0-2.22,2.29c-.76-1.44-1.57-2.83-2.44-4.16a41.86,41.86,0,0,0-9-10h0q-1.1-.87-2.24-1.6l-.47-.3a26.21,26.21,0,0,0-2.62-1.44l-.46-.21c-.33-.15-.66-.29-1-.44-1.79-.71-3.32-3.18-3.39-5.5l-.18-5.46-2.11-.81.09,2.72.09,2.72C696.58,206.95,699.09,211,702.05,212.2Z"/><path class="cls-54" d="M738.1,235.23l-.62-.23a11.81,11.81,0,0,0-1.23-.36,35.17,35.17,0,0,1,.9,6.74c.42,12.55-6.76,19.45-16,15.34s-17.08-17.26-17.46-29.25a24.2,24.2,0,0,1,.49-5.89c-.4-.23-.81-.44-1.21-.63h0l-.62-.27-.54-.24a27.88,27.88,0,0,0-.43,6.06c.44,13.63,9.36,28.59,19.89,33.33s18.71-3.14,18.23-17.48a39.88,39.88,0,0,0-.86-6.91Z"/><path class="cls-54" d="M715.9,211.31a13.34,13.34,0,0,1,3.79.89,18.42,18.42,0,0,1,3.83,2.06,17,17,0,0,1,1.94-.55l.41-.09h0l.7-.12a22.85,22.85,0,0,0-7-4.4,13.94,13.94,0,0,0-6.87-.93q.58.52,1.15,1.07Q714.9,210.23,715.9,211.31Z"/><path class="cls-54" d="M745,221.88c.19,5.68-3,9-7.14,7.34l-.82-.3-.41-.13a14.28,14.28,0,0,0-2.49-.55h0a11.1,11.1,0,0,0-8.74,2.47,15.58,15.58,0,0,0-4.83,8.05,44.41,44.41,0,0,0-5.49-12.26,33.07,33.07,0,0,0-9.19-9.58,22.15,22.15,0,0,0-2.52-1.44l-.39-.18-.84-.36c-4.13-1.66-7.62-7.33-7.79-12.63L692,201.4c.22,6.93,4.8,14.36,10.21,16.57l.14.06.59.26a18.53,18.53,0,0,1,1.86,1,28.52,28.52,0,0,1,8.77,8.87,38.08,38.08,0,0,1,6.09,18.72v.1l2.33,1s0-.06,0-.1h0c-.19-6.27,1.64-11.44,5-14.21a9.7,9.7,0,0,1,7.67-2.15l.73.12a13.24,13.24,0,0,1,1.87.5l.57.21.15.06c5.41,2.16,9.61-2.16,9.35-9.63Z"/><path class="cls-54" d="M701.87,206.71c.4.16.77.31,1.12.47l.5.23a29.23,29.23,0,0,1,3.37,1.89q.52.34,1,.71a35.85,35.85,0,0,1,2.82,2.21,46.64,46.64,0,0,1,8.37,9.75c.32.5.64,1,1,1.52q.43-.41.88-.78a14.71,14.71,0,0,1,7.93-3.39h0a16,16,0,0,1,2.75-.07l.93.08.19,0A19.3,19.3,0,0,1,736,220l.54.17c.34.11.71.24,1.11.39.63.24,1.12-.26,1.09-1.12l-.29-8.65-.1-2.88-2.11-.78.34,10.21-.24-.08-.58-.18a20.65,20.65,0,0,0-3.47-.72l-.22,0a17.77,17.77,0,0,0-2.75-.09,16.28,16.28,0,0,0-2.88.37h0a16,16,0,0,0-6.47,3,51.28,51.28,0,0,0-6.85-8.21q-1.46-1.4-3-2.61t-2.92-2.1a31.52,31.52,0,0,0-3.65-2l-.54-.24-.25-.11-.31-9.75-2.11-.79.09,2.74.26,8.22A2.25,2.25,0,0,0,701.87,206.71Z"/><path class="cls-54" d="M711.65,228.78a29,29,0,0,0-2.2-2.79,4,4,0,0,0-1.37,3.54c.1,3,2,6.19,4.3,7.15a2.5,2.5,0,0,0,3.08-.6,34.28,34.28,0,0,0-1.52-3.45,1.16,1.16,0,0,1-1.67,1,3.7,3.7,0,0,1-1.88-3.12C710.38,229.42,710.9,228.74,711.65,228.78Z"/><path class="cls-54" d="M728.73,240.51a3.56,3.56,0,0,1-1.78-2.45,11.83,11.83,0,0,0-1.33,2.3,7.05,7.05,0,0,0,3.21,3.29c2.28,1,4-.76,3.94-3.84a9.58,9.58,0,0,0-1.64-4.91,8.21,8.21,0,0,0-2.08,1.08,4,4,0,0,1,1.39,2.87C730.49,240.17,729.72,240.92,728.73,240.51Z"/><polygon class="cls-54" points="692.02 201.4 691.35 202.32 692.74 203.04 692.02 201.4"/><polygon class="cls-54" points="696.29 197.69 695.61 198.61 696.53 199.13 696.29 197.69"/><polygon class="cls-54" points="700.33 193.82 699.65 194.74 700.41 195.03 700.33 193.82"/><path class="cls-54" d="M712.72,208.17l-.68.92a13.06,13.06,0,0,0,2.41,0C715,209,712.72,208.17,712.72,208.17Z"/><polygon class="cls-54" points="726.57 213.5 725.9 214.42 723.97 213.12 726.57 213.5"/><polygon class="cls-54" points="736.2 207.15 735.53 208.07 736.86 209.15 736.2 207.15"/><polygon class="cls-54" points="740.62 214.49 739.94 215.41 741.02 216.09 740.62 214.49"/><polygon class="cls-54" points="745.03 221.88 744.36 222.8 745.37 223.56 745.03 221.88"/><polygon class="cls-54" points="701.79 220.43 701.11 221.35 702.27 221.86 701.79 220.43"/><polygon class="cls-54" points="711.65 228.78 710.98 229.7 709.42 228.41 711.65 228.78"/><polygon class="cls-54" points="715.47 236.09 714.79 237.01 714.32 235.78 715.47 236.09"/><polygon class="cls-54" points="729.05 235.96 728.38 236.88 729.95 236.18 729.05 235.96"/><polygon class="cls-54" points="736.25 234.64 735.57 235.56 737.2 236.07 736.25 234.64"/><polygon class="cls-54" points="721.33 248.8 722.02 247.98 721.86 246.55 720.95 247.34 721.33 248.8"/><path class="cls-55" d="M701.37,213.12c.33.13.64.26.93.4l.42.2q.58.28,1.16.6l0,0a25.35,25.35,0,0,1,2.6,1.64l0,0a37.33,37.33,0,0,1,9.25,10,48.26,48.26,0,0,1,3.94,7.43,15,15,0,0,1,3.55-4.39,12.28,12.28,0,0,1,8.82-2.85h0l0,.05c.29,0,.58,0,.87.08a14.61,14.61,0,0,1,1.69.3l0-.06q.57.13,1.14.31l.45.14c.28.09.59.2.92.33,3,1.16,5.26-1.21,5.12-5.27l-.1-2.9-.1-2.9-2.11-.79.19,5.78c.08,2.46-1.31,3.89-3.1,3.19-.37-.14-.71-.26-1-.36l-.49-.16a17.79,17.79,0,0,0-2.58-.59l-.39-.05-.15,0a15.28,15.28,0,0,0-2.11-.1h0a13.49,13.49,0,0,0-8.55,3.18,15.36,15.36,0,0,0-2.22,2.29c-.76-1.44-1.57-2.83-2.44-4.16a41.86,41.86,0,0,0-9-10h0q-1.1-.87-2.24-1.6l-.47-.3a26.21,26.21,0,0,0-2.62-1.44l-.46-.21c-.33-.15-.66-.29-1-.44-1.79-.71-3.32-3.18-3.39-5.5l-.18-5.46-2.11-.81.09,2.72.09,2.72C695.91,207.87,698.41,211.93,701.37,213.12Z"/><path class="cls-55" d="M737.42,236.15l-.62-.23a11.81,11.81,0,0,0-1.23-.36,35.17,35.17,0,0,1,.9,6.74c.42,12.55-6.76,19.45-16,15.34S703.4,240.38,703,228.39a24.2,24.2,0,0,1,.49-5.89c-.4-.23-.81-.44-1.21-.63h0l-.62-.27-.54-.24a27.88,27.88,0,0,0-.43,6.06C701.12,241,710,256,720.57,260.74s18.71-3.14,18.23-17.48a39.88,39.88,0,0,0-.86-6.91Z"/><path class="cls-55" d="M715.22,212.23a13.34,13.34,0,0,1,3.79.89,18.42,18.42,0,0,1,3.83,2.06,17,17,0,0,1,1.94-.55l.41-.09h0l.7-.12a22.85,22.85,0,0,0-7-4.4,13.94,13.94,0,0,0-6.87-.93q.58.52,1.15,1.07Q714.22,211.15,715.22,212.23Z"/><path class="cls-55" d="M744.36,222.8c.19,5.68-3,9-7.14,7.34l-.82-.3-.41-.13a14.28,14.28,0,0,0-2.49-.55h0a11.1,11.1,0,0,0-8.74,2.47,15.58,15.58,0,0,0-4.83,8.05,44.41,44.41,0,0,0-5.49-12.26,33.07,33.07,0,0,0-9.19-9.58,22.15,22.15,0,0,0-2.52-1.44l-.39-.18-.84-.36c-4.13-1.66-7.62-7.33-7.79-12.63l-2.33-.91c.22,6.93,4.8,14.36,10.21,16.57l.14.06.59.26a18.53,18.53,0,0,1,1.86,1,28.52,28.52,0,0,1,8.77,8.87A38.08,38.08,0,0,1,719,247.79v.1l2.33,1s0-.06,0-.1h0c-.19-6.27,1.64-11.44,5-14.21a9.7,9.7,0,0,1,7.67-2.15l.73.12a13.24,13.24,0,0,1,1.87.5l.57.21.15.06c5.41,2.16,9.61-2.16,9.35-9.63Z"/><path class="cls-55" d="M701.2,207.63c.4.16.77.31,1.12.47l.5.23a29.23,29.23,0,0,1,3.37,1.89q.52.34,1,.71a35.85,35.85,0,0,1,2.82,2.21,46.64,46.64,0,0,1,8.37,9.75c.32.5.64,1,1,1.52q.43-.41.88-.78a14.71,14.71,0,0,1,7.93-3.39h0a16,16,0,0,1,2.75-.07l.93.08.19,0a19.3,19.3,0,0,1,3.22.68l.54.17c.34.11.71.24,1.11.39.63.24,1.12-.26,1.09-1.12l-.29-8.65-.1-2.88-2.11-.78.34,10.21-.24-.08L735,218a20.65,20.65,0,0,0-3.47-.72l-.22,0a17.77,17.77,0,0,0-2.75-.09,16.28,16.28,0,0,0-2.88.37h0a16,16,0,0,0-6.47,3,51.28,51.28,0,0,0-6.85-8.21q-1.46-1.4-3-2.61t-2.92-2.1a31.52,31.52,0,0,0-3.65-2l-.54-.24-.25-.11-.31-9.75-2.11-.79.09,2.74.26,8.22A2.25,2.25,0,0,0,701.2,207.63Z"/><path class="cls-55" d="M711,229.7a29,29,0,0,0-2.2-2.79,4,4,0,0,0-1.37,3.54c.1,3,2,6.19,4.3,7.15a2.5,2.5,0,0,0,3.08-.6,34.28,34.28,0,0,0-1.52-3.45,1.16,1.16,0,0,1-1.67,1,3.7,3.7,0,0,1-1.88-3.12C709.7,230.34,710.23,229.66,711,229.7Z"/><path class="cls-55" d="M728,241.43a3.56,3.56,0,0,1-1.78-2.45,11.83,11.83,0,0,0-1.33,2.3,7.05,7.05,0,0,0,3.21,3.29c2.28,1,4-.76,3.94-3.84a9.58,9.58,0,0,0-1.64-4.91,8.21,8.21,0,0,0-2.08,1.08,4,4,0,0,1,1.39,2.87C729.81,241.09,729,241.84,728,241.43Z"/><path class="cls-3" d="M950.81,334.64l-76.2-44.35a24.25,24.25,0,0,0-24.36,0L777.45,354l61,43.78h36.89L951,351.08A9.59,9.59,0,0,0,950.81,334.64Z"/><path class="cls-56" d="M915.11,136H755.56V352.56a5.67,5.67,0,0,0,2.85,4.95l67,38.78a19.74,19.74,0,0,0,19.79,0L912,357.63a5.45,5.45,0,0,0,2.72-5.07C915.11,352.56,915.11,136,915.11,136Z"/><path class="cls-5" d="M825.49,180l-67-38.78a5.72,5.72,0,0,1,0-9.89l67.36-39a18,18,0,0,1,18,0L912,131.84a5.51,5.51,0,0,1,0,9.53L845.28,180A19.75,19.75,0,0,1,825.49,180Z"/><path class="cls-3" d="M1028.09,390.63l-70.31-40.36a22.65,22.65,0,0,0-22.48,0l-68.67,39.21V414.2l57.78,33.91h34l69.84-42.53A8.67,8.67,0,0,0,1028.09,390.63Z"/><path class="cls-57" d="M851.18,288.16V405.4a5.21,5.21,0,0,0,2.62,4.54l61.46,35.58a18.11,18.11,0,0,0,18.15,0l61.26-35.46a5,5,0,0,0,2.5-4.66c.38,0,.38-116.77.38-116.77Z"/><path class="cls-5" d="M915.33,328l-61.46-35.58a5.24,5.24,0,0,1,0-9.07l61.8-35.78a16.46,16.46,0,0,1,16.51,0l62.57,36.22a5.05,5.05,0,0,1,0,8.74L933.48,328A18.11,18.11,0,0,1,915.33,328Z"/><path class="cls-12" d="M801.42,187c0-4.05-2.48-8.81-5.51-10.56s-5.51.13-5.51,4.18v42.73l11,6.29Z"/><path class="cls-58" d="M790.39,223.36V336.73c0,4.06,2.48,8.81,5.51,10.57s5.51-.13,5.51-4.18V229.65Z"/><path class="cls-12" d="M892.74,332.35c0-4.13-2.48-8.88-5.51-10.64s-5.51.12-5.51,4.18v42.6l11,6Z"/><path class="cls-59" d="M881.71,368.49v28.44c0,4.13,2.48,8.88,5.51,10.64s5.51-.13,5.51-4.18V374.51Z"/><path class="cls-60" d="M952.11,294.51C954.55,290,956,284.27,956,277.3c0-25-17.59-55.38-39.28-67.94A37.23,37.23,0,0,0,900.84,204a21.26,21.26,0,0,0-10.14,1.63l17-9.18c7.16-4.6,17.3-4.23,28.57,2.3,21.69,12.56,39.28,43,39.28,67.94,0,11.71-3.9,20.08-10.25,24.44-.38.26-.74.55-1.13.78l-19.63,10.59A20.32,20.32,0,0,0,952.11,294.51Z"/><path class="cls-40" d="M890.7,205.68A21.26,21.26,0,0,1,900.84,204a37.23,37.23,0,0,1,15.85,5.31c21.69,12.56,39.28,43,39.28,67.94,0,7-1.41,12.73-3.86,17.21a20.32,20.32,0,0,1-7.58,8c-7.11,4.11-17,3.51-27.85-2.79-21.7-12.56-39.28-43-39.28-67.94C877.4,218.33,882.56,209.25,890.7,205.68Z"/><path class="cls-54" d="M896.72,238.69c.33.13.64.26.93.4l.42.2q.58.28,1.16.6l0,0a25.35,25.35,0,0,1,2.6,1.64l0,0a37.33,37.33,0,0,1,9.25,10,48.26,48.26,0,0,1,3.94,7.43,15,15,0,0,1,3.55-4.39,12.28,12.28,0,0,1,8.82-2.85h0l0,.05c.29,0,.58,0,.87.08a14.61,14.61,0,0,1,1.69.3l0-.06q.57.13,1.14.31l.45.14c.28.09.59.2.92.33,3,1.16,5.26-1.21,5.12-5.27l-.1-2.9-.1-2.9-2.11-.79.19,5.78c.08,2.46-1.31,3.89-3.1,3.19-.37-.14-.71-.26-1-.36l-.49-.16a17.79,17.79,0,0,0-2.58-.59l-.39-.05-.15,0a15.28,15.28,0,0,0-2.11-.1h0a13.49,13.49,0,0,0-8.55,3.18,15.36,15.36,0,0,0-2.22,2.29c-.76-1.44-1.57-2.83-2.44-4.16a41.86,41.86,0,0,0-9-10h0q-1.1-.87-2.24-1.6l-.47-.3a26.21,26.21,0,0,0-2.62-1.44l-.46-.21c-.33-.15-.66-.29-1-.44-1.79-.71-3.32-3.18-3.39-5.5l-.18-5.46-2.11-.81.09,2.72.09,2.72C891.26,233.44,893.76,237.51,896.72,238.69Z"/><path class="cls-54" d="M932.77,261.73l-.62-.23a11.81,11.81,0,0,0-1.23-.36,35.17,35.17,0,0,1,.9,6.74c.42,12.55-6.76,19.45-16,15.34S898.75,266,898.36,254a24.2,24.2,0,0,1,.49-5.89c-.4-.23-.81-.44-1.21-.63h0l-.62-.27-.54-.24A27.88,27.88,0,0,0,896,253c.44,13.63,9.36,28.59,19.89,33.33s18.71-3.14,18.23-17.48a39.88,39.88,0,0,0-.86-6.91Z"/><path class="cls-54" d="M910.57,237.8a13.34,13.34,0,0,1,3.79.89,18.42,18.42,0,0,1,3.83,2.06,17,17,0,0,1,1.94-.55l.41-.09h0l.7-.12a22.85,22.85,0,0,0-7-4.4,13.94,13.94,0,0,0-6.87-.93q.58.52,1.15,1.07Q909.57,236.73,910.57,237.8Z"/><path class="cls-54" d="M939.71,248.38c.19,5.68-3,9-7.14,7.34l-.82-.3-.41-.13a14.28,14.28,0,0,0-2.49-.55h0a11.1,11.1,0,0,0-8.74,2.47,15.58,15.58,0,0,0-4.83,8.05A44.41,44.41,0,0,0,909.75,253a33.07,33.07,0,0,0-9.19-9.58A22.15,22.15,0,0,0,898,242l-.39-.18-.84-.36c-4.13-1.66-7.62-7.33-7.79-12.63l-2.33-.91c.22,6.93,4.8,14.36,10.21,16.57l.14.06.59.26a18.53,18.53,0,0,1,1.86,1,28.52,28.52,0,0,1,8.77,8.87,38.08,38.08,0,0,1,6.09,18.72v.1l2.33,1s0-.06,0-.1h0c-.19-6.27,1.64-11.44,5-14.21a9.7,9.7,0,0,1,7.67-2.15l.73.12a13.24,13.24,0,0,1,1.87.5l.57.21.15.06c5.41,2.16,9.61-2.16,9.35-9.63Z"/><path class="cls-54" d="M896.55,233.2c.4.16.77.31,1.12.47l.5.23a29.23,29.23,0,0,1,3.37,1.89q.52.34,1,.71a35.85,35.85,0,0,1,2.82,2.21,46.64,46.64,0,0,1,8.37,9.75c.32.5.64,1,1,1.52q.43-.41.88-.78a14.71,14.71,0,0,1,7.93-3.39h0a16,16,0,0,1,2.75-.07l.93.08.19,0a19.3,19.3,0,0,1,3.22.68l.54.17c.34.11.71.24,1.11.39.63.24,1.12-.26,1.09-1.12l-.29-8.65-.1-2.88-2.11-.78.34,10.21-.24-.08-.58-.18a20.65,20.65,0,0,0-3.47-.72l-.22,0a17.77,17.77,0,0,0-2.75-.09,16.28,16.28,0,0,0-2.88.37h0a16,16,0,0,0-6.47,3,51.28,51.28,0,0,0-6.85-8.21q-1.46-1.4-3-2.61t-2.92-2.1a31.52,31.52,0,0,0-3.65-2l-.54-.24-.25-.11-.31-9.75-2.11-.79.09,2.74.26,8.22A2.25,2.25,0,0,0,896.55,233.2Z"/><path class="cls-54" d="M906.33,255.27a29,29,0,0,0-2.2-2.79,4,4,0,0,0-1.37,3.54c.1,3,2,6.19,4.3,7.15a2.5,2.5,0,0,0,3.08-.6,34.28,34.28,0,0,0-1.52-3.45,1.16,1.16,0,0,1-1.67,1,3.7,3.7,0,0,1-1.88-3.12C905.05,255.92,905.58,255.24,906.33,255.27Z"/><path class="cls-54" d="M923.4,267a3.56,3.56,0,0,1-1.78-2.45,11.83,11.83,0,0,0-1.33,2.3,7.05,7.05,0,0,0,3.21,3.29c2.28,1,4-.76,3.94-3.84a9.58,9.58,0,0,0-1.64-4.91,8.21,8.21,0,0,0-2.08,1.08,4,4,0,0,1,1.39,2.87C925.16,266.67,924.39,267.42,923.4,267Z"/><polygon class="cls-54" points="886.7 227.89 886.02 228.81 887.41 229.54 886.7 227.89"/><polygon class="cls-54" points="890.96 224.18 890.28 225.1 891.21 225.63 890.96 224.18"/><polygon class="cls-54" points="895 220.32 894.33 221.24 895.08 221.53 895 220.32"/><path class="cls-54" d="M907.39,234.67l-.68.92a13.06,13.06,0,0,0,2.41,0C909.68,235.49,907.39,234.67,907.39,234.67Z"/><polygon class="cls-54" points="921.25 240 920.57 240.91 918.64 239.62 921.25 240"/><polygon class="cls-54" points="930.88 233.65 930.2 234.56 931.53 235.65 930.88 233.65"/><polygon class="cls-54" points="935.29 240.98 934.61 241.9 935.69 242.58 935.29 240.98"/><polygon class="cls-54" points="939.71 248.38 939.03 249.3 940.04 250.06 939.71 248.38"/><polygon class="cls-54" points="896.46 246.92 895.78 247.84 896.94 248.35 896.46 246.92"/><polygon class="cls-54" points="906.33 255.27 905.65 256.19 904.1 254.91 906.33 255.27"/><polygon class="cls-54" points="910.14 262.58 909.47 263.5 908.99 262.27 910.14 262.58"/><polygon class="cls-54" points="923.73 262.46 923.05 263.38 924.62 262.67 923.73 262.46"/><polygon class="cls-54" points="930.92 261.14 930.24 262.06 931.87 262.56 930.92 261.14"/><polygon class="cls-54" points="916.01 275.3 916.69 274.48 916.53 273.04 915.63 273.84 916.01 275.3"/><path class="cls-55" d="M896,239.61c.33.13.64.26.93.4l.42.2q.58.28,1.16.6l0,0a25.35,25.35,0,0,1,2.6,1.64l0,0a37.33,37.33,0,0,1,9.25,10,48.26,48.26,0,0,1,3.94,7.43,15,15,0,0,1,3.55-4.39,12.28,12.28,0,0,1,8.82-2.85h0l0,.05c.29,0,.58,0,.87.08a14.61,14.61,0,0,1,1.69.3l0-.06q.57.13,1.14.31l.45.14c.28.09.59.2.92.33,3,1.16,5.26-1.21,5.12-5.27l-.1-2.9-.1-2.9-2.11-.79.19,5.78c.08,2.46-1.31,3.89-3.1,3.19-.37-.14-.71-.26-1-.36l-.49-.16a17.79,17.79,0,0,0-2.58-.59l-.39-.05-.15,0a15.28,15.28,0,0,0-2.11-.1h0a13.49,13.49,0,0,0-8.55,3.18,15.36,15.36,0,0,0-2.22,2.29c-.76-1.44-1.57-2.83-2.44-4.16a41.86,41.86,0,0,0-9-10h0q-1.1-.87-2.24-1.6l-.47-.3a26.21,26.21,0,0,0-2.62-1.44l-.46-.21c-.33-.15-.66-.29-1-.44-1.79-.71-3.32-3.18-3.39-5.5l-.18-5.46-2.11-.81.09,2.72.09,2.72C890.58,234.36,893.09,238.43,896,239.61Z"/><path class="cls-55" d="M932.09,262.64l-.62-.23a11.81,11.81,0,0,0-1.23-.36,35.17,35.17,0,0,1,.9,6.74c.42,12.55-6.76,19.45-16,15.34s-17.08-17.26-17.46-29.25a24.2,24.2,0,0,1,.49-5.89c-.4-.23-.81-.44-1.21-.63h0l-.62-.27-.54-.24a27.88,27.88,0,0,0-.43,6.06c.44,13.63,9.36,28.59,19.89,33.33s18.71-3.14,18.23-17.48a39.88,39.88,0,0,0-.86-6.91Z"/><path class="cls-55" d="M909.9,238.72a13.34,13.34,0,0,1,3.79.89,18.42,18.42,0,0,1,3.83,2.06,17,17,0,0,1,1.94-.55l.41-.09h0l.7-.12a22.85,22.85,0,0,0-7-4.4,13.94,13.94,0,0,0-6.87-.93q.58.52,1.15,1.07Q908.9,237.64,909.9,238.72Z"/><path class="cls-55" d="M939,249.3c.19,5.68-3,9-7.14,7.34l-.82-.3-.41-.13a14.28,14.28,0,0,0-2.49-.55h0a11.1,11.1,0,0,0-8.74,2.47,15.58,15.58,0,0,0-4.83,8.05,44.41,44.41,0,0,0-5.49-12.26,33.07,33.07,0,0,0-9.19-9.58,22.15,22.15,0,0,0-2.52-1.44l-.39-.18-.84-.36c-4.13-1.66-7.62-7.33-7.79-12.63l-2.33-.91c.22,6.93,4.8,14.36,10.21,16.57l.14.06.59.26a18.53,18.53,0,0,1,1.86,1,28.52,28.52,0,0,1,8.77,8.87,38.08,38.08,0,0,1,6.09,18.72v.1l2.33,1s0-.06,0-.1h0c-.19-6.27,1.64-11.44,5-14.21a9.7,9.7,0,0,1,7.67-2.15l.73.12a13.24,13.24,0,0,1,1.87.5l.57.21.15.06c5.41,2.16,9.61-2.16,9.35-9.63Z"/><path class="cls-55" d="M895.87,234.12c.4.16.77.31,1.12.47l.5.23a29.23,29.23,0,0,1,3.37,1.89q.52.34,1,.71a35.85,35.85,0,0,1,2.82,2.21,46.64,46.64,0,0,1,8.37,9.75c.32.5.64,1,1,1.52q.43-.41.88-.78a14.71,14.71,0,0,1,7.93-3.39h0a16,16,0,0,1,2.75-.07l.93.08.19,0a19.3,19.3,0,0,1,3.22.68l.54.17c.34.11.71.24,1.11.39.63.24,1.12-.26,1.09-1.12l-.29-8.65-.1-2.88-2.11-.78.34,10.21-.24-.08-.58-.18a20.65,20.65,0,0,0-3.47-.72l-.22,0a17.77,17.77,0,0,0-2.75-.09,16.28,16.28,0,0,0-2.88.37h0a16,16,0,0,0-6.47,3,51.28,51.28,0,0,0-6.85-8.21q-1.46-1.4-3-2.61t-2.92-2.1a31.52,31.52,0,0,0-3.65-2l-.54-.24-.25-.11-.31-9.75-2.11-.79.09,2.74.26,8.22A2.25,2.25,0,0,0,895.87,234.12Z"/><path class="cls-55" d="M905.65,256.19a29,29,0,0,0-2.2-2.79,4,4,0,0,0-1.37,3.54c.1,3,2,6.19,4.3,7.15a2.5,2.5,0,0,0,3.08-.6,34.28,34.28,0,0,0-1.52-3.45,1.16,1.16,0,0,1-1.67,1,3.7,3.7,0,0,1-1.88-3.12C904.37,256.84,904.9,256.15,905.65,256.19Z"/><path class="cls-55" d="M922.72,267.92a3.56,3.56,0,0,1-1.78-2.45,11.83,11.83,0,0,0-1.33,2.3,7.05,7.05,0,0,0,3.21,3.29c2.28,1,4-.76,3.94-3.84a9.58,9.58,0,0,0-1.64-4.91,8.21,8.21,0,0,0-2.08,1.08,4,4,0,0,1,1.39,2.87C924.48,267.59,923.71,268.34,922.72,267.92Z"/><path class="cls-3" d="M1138.58,435.86l-76.2-44.35a24.25,24.25,0,0,0-24.36,0l-72.81,63.77,61,43.78h36.89l75.68-46.74A9.59,9.59,0,0,0,1138.58,435.86Z"/><path class="cls-61" d="M1102.87,237.2H943.33V453.78a5.68,5.68,0,0,0,2.85,4.95l67,38.78a19.73,19.73,0,0,0,19.79,0l66.77-38.66a5.45,5.45,0,0,0,2.72-5.07C1102.87,453.78,1102.87,237.2,1102.87,237.2Z"/><path class="cls-5" d="M1013.25,281.24l-67-38.78a5.72,5.72,0,0,1,0-9.89l67.36-39a18,18,0,0,1,18,0l68.21,39.49a5.51,5.51,0,0,1,0,9.53L1033,281.24A19.74,19.74,0,0,1,1013.25,281.24Z"/><polygon class="cls-54" points="1005.71 219.72 1006.39 218.9 1006.23 217.47 1005.33 218.26 1005.71 219.72"/><path class="cls-62" d="M1041.8,238.93c2.45-4.47,3.86-10.24,3.86-17.21,0-25-17.59-55.38-39.28-67.94a37.23,37.23,0,0,0-15.85-5.31,21.26,21.26,0,0,0-10.14,1.63l17-9.18c7.16-4.6,17.3-4.23,28.57,2.3,21.69,12.56,39.28,43,39.28,67.94,0,11.71-3.9,20.08-10.25,24.44-.38.26-.74.55-1.13.78L1034.23,247A20.32,20.32,0,0,0,1041.8,238.93Z"/><path class="cls-40" d="M980.4,150.11a21.26,21.26,0,0,1,10.14-1.63,37.23,37.23,0,0,1,15.85,5.31c21.69,12.56,39.28,43,39.28,67.94,0,7-1.41,12.73-3.86,17.21a20.32,20.32,0,0,1-7.58,8c-7.11,4.11-17,3.51-27.85-2.79-21.7-12.56-39.28-43-39.28-67.94C967.1,162.75,972.26,153.68,980.4,150.11Z"/><path class="cls-54" d="M986.42,183.12c.33.13.64.26.93.4l.42.2q.58.28,1.16.6l0,0a25.35,25.35,0,0,1,2.6,1.64l0,0a37.33,37.33,0,0,1,9.25,10,48.26,48.26,0,0,1,3.94,7.43,15,15,0,0,1,3.55-4.39,12.28,12.28,0,0,1,8.82-2.85h0l0,.05c.29,0,.58,0,.87.08a14.61,14.61,0,0,1,1.69.3l0-.06q.57.13,1.14.31l.45.14c.28.09.59.2.92.33,3,1.16,5.26-1.21,5.12-5.27l-.1-2.9-.1-2.9-2.11-.79.19,5.78c.08,2.46-1.31,3.89-3.1,3.19-.37-.14-.71-.26-1-.36l-.49-.16a17.79,17.79,0,0,0-2.58-.59l-.39-.05-.15,0a15.28,15.28,0,0,0-2.11-.1h0a13.49,13.49,0,0,0-8.55,3.18,15.36,15.36,0,0,0-2.22,2.29c-.76-1.44-1.57-2.83-2.44-4.16a41.86,41.86,0,0,0-9-10h0q-1.1-.87-2.24-1.6l-.47-.3a26.21,26.21,0,0,0-2.62-1.44l-.46-.21c-.33-.15-.66-.29-1-.44-1.79-.71-3.32-3.18-3.39-5.5l-.18-5.46-2.11-.81.09,2.72.09,2.72C981,177.87,983.46,181.93,986.42,183.12Z"/><path class="cls-54" d="M1022.47,206.15l-.62-.23a11.81,11.81,0,0,0-1.23-.36,35.17,35.17,0,0,1,.9,6.74c.42,12.55-6.76,19.45-16,15.34s-17.08-17.26-17.46-29.25a24.2,24.2,0,0,1,.49-5.89c-.4-.23-.81-.44-1.21-.63h0l-.62-.27-.54-.24a27.88,27.88,0,0,0-.43,6.06c.44,13.63,9.36,28.59,19.89,33.33s18.71-3.14,18.23-17.48a39.88,39.88,0,0,0-.86-6.91Z"/><path class="cls-54" d="M1000.27,182.23a13.34,13.34,0,0,1,3.79.89,18.42,18.42,0,0,1,3.83,2.06,17,17,0,0,1,1.94-.55l.41-.09h0l.7-.12a22.85,22.85,0,0,0-7-4.4,13.94,13.94,0,0,0-6.87-.93q.58.52,1.15,1.07Q999.27,181.15,1000.27,182.23Z"/><path class="cls-54" d="M1029.4,192.8c.19,5.68-3,9-7.14,7.34l-.82-.3-.41-.13a14.28,14.28,0,0,0-2.49-.55h0a11.1,11.1,0,0,0-8.74,2.47,15.58,15.58,0,0,0-4.83,8.05,44.41,44.41,0,0,0-5.49-12.26,33.07,33.07,0,0,0-9.19-9.58,22.15,22.15,0,0,0-2.52-1.44l-.39-.18-.84-.36c-4.13-1.66-7.62-7.33-7.79-12.63l-2.33-.91c.22,6.93,4.8,14.36,10.21,16.57l.14.06.59.26a18.53,18.53,0,0,1,1.86,1,28.52,28.52,0,0,1,8.77,8.87,38.08,38.08,0,0,1,6.09,18.72v.1l2.33,1s0-.06,0-.1h0c-.19-6.27,1.64-11.44,5-14.21a9.7,9.7,0,0,1,7.67-2.15l.73.12a13.24,13.24,0,0,1,1.87.5l.57.21.15.06c5.41,2.16,9.61-2.16,9.35-9.63Z"/><path class="cls-54" d="M986.24,177.63c.4.16.77.31,1.12.47l.5.23a29.23,29.23,0,0,1,3.37,1.89q.52.34,1,.71a35.85,35.85,0,0,1,2.82,2.21,46.64,46.64,0,0,1,8.37,9.75c.32.5.64,1,1,1.52q.43-.41.88-.78a14.71,14.71,0,0,1,7.93-3.39h0a16,16,0,0,1,2.75-.07l.93.08.19,0a19.3,19.3,0,0,1,3.22.68l.54.17c.34.11.71.24,1.11.39.63.24,1.12-.26,1.09-1.12l-.29-8.65-.1-2.88-2.11-.78.34,10.21-.24-.08-.58-.18a20.65,20.65,0,0,0-3.47-.72l-.22,0a17.77,17.77,0,0,0-2.75-.09,16.28,16.28,0,0,0-2.88.37h0a16,16,0,0,0-6.47,3,51.28,51.28,0,0,0-6.85-8.21q-1.46-1.4-3-2.61t-2.92-2.1a31.52,31.52,0,0,0-3.65-2l-.54-.24-.25-.11-.31-9.75-2.11-.79.09,2.74.26,8.22A2.25,2.25,0,0,0,986.24,177.63Z"/><path class="cls-54" d="M996,199.7a29,29,0,0,0-2.2-2.79,4,4,0,0,0-1.37,3.54c.1,3,2,6.19,4.3,7.15a2.5,2.5,0,0,0,3.08-.6,34.28,34.28,0,0,0-1.52-3.45,1.16,1.16,0,0,1-1.67,1,3.7,3.7,0,0,1-1.88-3.12C994.75,200.34,995.28,199.66,996,199.7Z"/><path class="cls-54" d="M1013.1,211.43a3.56,3.56,0,0,1-1.78-2.45,11.83,11.83,0,0,0-1.33,2.3,7.05,7.05,0,0,0,3.21,3.29c2.28,1,4-.76,3.94-3.84a9.58,9.58,0,0,0-1.64-4.91,8.21,8.21,0,0,0-2.08,1.08,4,4,0,0,1,1.39,2.87C1014.86,211.09,1014.09,211.84,1013.1,211.43Z"/><polygon class="cls-54" points="976.39 172.32 975.72 173.24 977.11 173.96 976.39 172.32"/><polygon class="cls-54" points="980.66 168.6 979.98 169.52 980.9 170.05 980.66 168.6"/><polygon class="cls-54" points="984.7 164.74 984.02 165.66 984.78 165.95 984.7 164.74"/><path class="cls-54" d="M997.09,179.09l-.68.92a13.06,13.06,0,0,0,2.41,0C999.38,179.92,997.09,179.09,997.09,179.09Z"/><polygon class="cls-54" points="1010.94 184.42 1010.27 185.34 1008.34 184.04 1010.94 184.42"/><polygon class="cls-54" points="1020.58 178.07 1019.9 178.99 1021.23 180.07 1020.58 178.07"/><polygon class="cls-54" points="1024.99 185.41 1024.31 186.32 1025.39 187.01 1024.99 185.41"/><polygon class="cls-54" points="1029.4 192.8 1028.73 193.72 1029.74 194.48 1029.4 192.8"/><polygon class="cls-54" points="986.16 191.35 985.48 192.27 986.64 192.78 986.16 191.35"/><polygon class="cls-54" points="996.02 199.7 995.35 200.62 993.79 199.33 996.02 199.7"/><polygon class="cls-54" points="999.84 207.01 999.16 207.93 998.69 206.69 999.84 207.01"/><polygon class="cls-54" points="1013.42 206.88 1012.75 207.8 1014.32 207.09 1013.42 206.88"/><polygon class="cls-54" points="1020.62 205.56 1019.94 206.48 1021.57 206.99 1020.62 205.56"/><path class="cls-55" d="M985.74,184c.33.13.64.26.93.4l.42.2q.58.28,1.16.6l0,0a25.35,25.35,0,0,1,2.6,1.64l0,0a37.33,37.33,0,0,1,9.25,10,48.26,48.26,0,0,1,3.94,7.43,15,15,0,0,1,3.55-4.39,12.28,12.28,0,0,1,8.82-2.85h0l0,.05c.29,0,.58,0,.87.08a14.61,14.61,0,0,1,1.69.3l0-.06q.57.13,1.14.31l.45.14c.28.09.59.2.92.33,3,1.16,5.26-1.21,5.12-5.27l-.1-2.9-.1-2.9-2.11-.79.19,5.78c.08,2.46-1.31,3.89-3.1,3.19-.37-.14-.71-.26-1-.36l-.49-.16a17.79,17.79,0,0,0-2.58-.59l-.39-.05-.15,0a15.28,15.28,0,0,0-2.11-.1h0a13.49,13.49,0,0,0-8.55,3.18,15.36,15.36,0,0,0-2.22,2.29c-.76-1.44-1.57-2.83-2.44-4.16a41.86,41.86,0,0,0-9-10h0q-1.1-.87-2.24-1.6l-.47-.3a26.21,26.21,0,0,0-2.62-1.44l-.46-.21c-.33-.15-.66-.29-1-.44-1.79-.71-3.32-3.18-3.39-5.5l-.18-5.46-2.11-.81.09,2.72.09,2.72C980.28,178.78,982.78,182.85,985.74,184Z"/><path class="cls-55" d="M1021.79,207.07l-.62-.23a11.81,11.81,0,0,0-1.23-.36,35.17,35.17,0,0,1,.9,6.74c.42,12.55-6.76,19.45-16,15.34s-17.08-17.26-17.46-29.25a24.2,24.2,0,0,1,.49-5.89c-.4-.23-.81-.44-1.21-.63h0l-.62-.27-.54-.24a27.88,27.88,0,0,0-.43,6.06c.44,13.63,9.36,28.59,19.89,33.33s18.71-3.14,18.23-17.48a39.88,39.88,0,0,0-.86-6.91Z"/><path class="cls-55" d="M999.59,183.15a13.34,13.34,0,0,1,3.79.89,18.42,18.42,0,0,1,3.83,2.06,17,17,0,0,1,1.94-.55l.41-.09h0l.7-.12a22.85,22.85,0,0,0-7-4.4,13.94,13.94,0,0,0-6.87-.93q.58.52,1.15,1.07Q998.6,182.07,999.59,183.15Z"/><path class="cls-55" d="M1028.73,193.72c.19,5.68-3,9-7.14,7.34l-.82-.3-.41-.13a14.28,14.28,0,0,0-2.49-.55h0a11.1,11.1,0,0,0-8.74,2.47,15.58,15.58,0,0,0-4.83,8.05,44.41,44.41,0,0,0-5.49-12.26,33.07,33.07,0,0,0-9.19-9.58,22.15,22.15,0,0,0-2.52-1.44l-.39-.18-.84-.36c-4.13-1.66-7.62-7.33-7.79-12.63l-2.33-.91c.22,6.93,4.8,14.36,10.21,16.57l.14.06.59.26a18.53,18.53,0,0,1,1.86,1,28.52,28.52,0,0,1,8.77,8.87,38.08,38.08,0,0,1,6.09,18.72v.1l2.33,1s0-.06,0-.1h0c-.19-6.27,1.64-11.44,5-14.21a9.7,9.7,0,0,1,7.67-2.15l.73.12a13.24,13.24,0,0,1,1.87.5l.57.21.15.06c5.41,2.16,9.61-2.16,9.35-9.63Z"/><path class="cls-55" d="M985.57,178.55c.4.16.77.31,1.12.47l.5.23a29.23,29.23,0,0,1,3.37,1.89q.52.34,1,.71a35.85,35.85,0,0,1,2.82,2.21,46.64,46.64,0,0,1,8.37,9.75c.32.5.64,1,1,1.52q.43-.41.88-.78a14.71,14.71,0,0,1,7.93-3.39h0a16,16,0,0,1,2.75-.07l.93.08.19,0a19.3,19.3,0,0,1,3.22.68l.54.17c.34.11.71.24,1.11.39.63.24,1.12-.26,1.09-1.12l-.29-8.65-.1-2.88-2.11-.78.34,10.21-.24-.08-.58-.18a20.65,20.65,0,0,0-3.47-.72l-.22,0a17.77,17.77,0,0,0-2.75-.09,16.28,16.28,0,0,0-2.88.37h0a16,16,0,0,0-6.47,3,51.28,51.28,0,0,0-6.85-8.21q-1.46-1.4-3-2.61t-2.92-2.1a31.52,31.52,0,0,0-3.65-2l-.54-.24-.25-.11-.31-9.75-2.11-.79.09,2.74.26,8.22A2.25,2.25,0,0,0,985.57,178.55Z"/><path class="cls-55" d="M995.35,200.62a29,29,0,0,0-2.2-2.79,4,4,0,0,0-1.37,3.54c.1,3,2,6.19,4.3,7.15a2.5,2.5,0,0,0,3.08-.6,34.28,34.28,0,0,0-1.52-3.45,1.16,1.16,0,0,1-1.67,1,3.7,3.7,0,0,1-1.88-3.12C994.07,201.26,994.6,200.58,995.35,200.62Z"/><path class="cls-55" d="M1012.42,212.35a3.56,3.56,0,0,1-1.78-2.45,11.83,11.83,0,0,0-1.33,2.3,7.05,7.05,0,0,0,3.21,3.29c2.28,1,4-.76,3.94-3.84a9.58,9.58,0,0,0-1.64-4.91,8.21,8.21,0,0,0-2.08,1.08,4,4,0,0,1,1.39,2.87C1014.18,212,1013.41,212.76,1012.42,212.35Z"/><path class="cls-63" d="M860.8,134.93c2.45-4.47,3.86-10.24,3.86-17.21,0-25-17.59-55.38-39.28-67.94a37.23,37.23,0,0,0-15.85-5.31,21.26,21.26,0,0,0-10.14,1.63l17-9.18c7.16-4.6,17.3-4.23,28.57,2.3,21.69,12.56,39.28,43,39.28,67.94,0,11.71-3.9,20.08-10.25,24.44-.38.26-.74.55-1.13.78L853.23,143A20.32,20.32,0,0,0,860.8,134.93Z"/><path class="cls-40" d="M799.4,46.11a21.26,21.26,0,0,1,10.14-1.63,37.23,37.23,0,0,1,15.85,5.31c21.69,12.56,39.28,43,39.28,67.94,0,7-1.41,12.73-3.86,17.21a20.32,20.32,0,0,1-7.58,8c-7.11,4.11-17,3.51-27.85-2.79-21.7-12.56-39.28-43-39.28-67.94C786.1,58.75,791.26,49.68,799.4,46.11Z"/><path class="cls-54" d="M805.42,79.12c.33.13.64.26.93.4l.42.2q.58.28,1.16.6l0,0a25.35,25.35,0,0,1,2.6,1.64l0,0a37.33,37.33,0,0,1,9.25,10,48.26,48.26,0,0,1,3.94,7.43A15,15,0,0,1,827.28,95a12.28,12.28,0,0,1,8.82-2.85h0l0,.05c.29,0,.58,0,.87.08a14.61,14.61,0,0,1,1.69.3l0-.06q.57.13,1.14.31l.45.14c.28.09.59.2.92.33,3,1.16,5.26-1.21,5.12-5.27l-.1-2.9-.1-2.9L844,81.41l.19,5.78c.08,2.46-1.31,3.89-3.1,3.19-.37-.14-.71-.26-1-.36l-.49-.16a17.79,17.79,0,0,0-2.58-.59l-.39-.05-.15,0a15.28,15.28,0,0,0-2.11-.1h0a13.49,13.49,0,0,0-8.55,3.18,15.36,15.36,0,0,0-2.22,2.29c-.76-1.44-1.57-2.83-2.44-4.16a41.86,41.86,0,0,0-9-10h0q-1.1-.87-2.24-1.6l-.47-.3A26.21,26.21,0,0,0,806.82,77l-.46-.21c-.33-.15-.66-.29-1-.44-1.79-.71-3.32-3.18-3.39-5.5l-.18-5.46-2.11-.81.09,2.72.09,2.72C800,73.87,802.46,77.93,805.42,79.12Z"/><path class="cls-54" d="M841.47,102.15l-.62-.23a11.81,11.81,0,0,0-1.23-.36,35.17,35.17,0,0,1,.9,6.74c.42,12.55-6.76,19.45-16,15.34s-17.08-17.26-17.46-29.25a24.2,24.2,0,0,1,.49-5.89c-.4-.23-.81-.44-1.21-.63h0l-.62-.27-.54-.24a27.88,27.88,0,0,0-.43,6.06c.44,13.63,9.36,28.59,19.89,33.33s18.71-3.14,18.23-17.48a39.88,39.88,0,0,0-.86-6.91Z"/><path class="cls-54" d="M819.27,78.23a13.34,13.34,0,0,1,3.79.89,18.42,18.42,0,0,1,3.83,2.06,17,17,0,0,1,1.94-.55l.41-.09h0l.7-.12a22.85,22.85,0,0,0-7-4.4,13.94,13.94,0,0,0-6.87-.93q.58.52,1.15,1.07Q818.27,77.15,819.27,78.23Z"/><path class="cls-54" d="M848.4,88.8c.19,5.68-3,9-7.14,7.34l-.82-.3-.41-.13a14.28,14.28,0,0,0-2.49-.55h0a11.1,11.1,0,0,0-8.74,2.47,15.58,15.58,0,0,0-4.83,8.05,44.41,44.41,0,0,0-5.49-12.26,33.07,33.07,0,0,0-9.19-9.58,22.15,22.15,0,0,0-2.52-1.44l-.39-.18-.84-.36c-4.13-1.66-7.62-7.33-7.79-12.63l-2.33-.91c.22,6.93,4.8,14.36,10.21,16.57l.14.06.59.26a18.53,18.53,0,0,1,1.86,1A28.52,28.52,0,0,1,817,95.07a38.08,38.08,0,0,1,6.09,18.72v.1l2.33,1s0-.06,0-.1h0c-.19-6.27,1.64-11.44,5-14.21a9.7,9.7,0,0,1,7.67-2.15l.73.12a13.24,13.24,0,0,1,1.87.5l.57.21.15.06c5.41,2.16,9.61-2.16,9.35-9.63Z"/><path class="cls-54" d="M805.24,73.63c.4.16.77.31,1.12.47l.5.23a29.23,29.23,0,0,1,3.37,1.89q.52.34,1,.71a35.85,35.85,0,0,1,2.82,2.21,46.64,46.64,0,0,1,8.37,9.75c.32.5.64,1,1,1.52q.43-.41.88-.78a14.71,14.71,0,0,1,7.93-3.39h0a16,16,0,0,1,2.75-.07l.93.08.19,0a19.3,19.3,0,0,1,3.22.68l.54.17c.34.11.71.24,1.11.39.63.24,1.12-.26,1.09-1.12l-.29-8.65-.1-2.88-2.11-.78.34,10.21-.24-.08L839.1,84a20.65,20.65,0,0,0-3.47-.72l-.22,0a17.77,17.77,0,0,0-2.75-.09,16.28,16.28,0,0,0-2.88.37h0a16,16,0,0,0-6.47,3,51.28,51.28,0,0,0-6.85-8.21q-1.46-1.4-3-2.61t-2.92-2.1a31.52,31.52,0,0,0-3.65-2l-.54-.24-.25-.11-.31-9.75-2.11-.79.09,2.74.26,8.22A2.25,2.25,0,0,0,805.24,73.63Z"/><path class="cls-54" d="M815,95.7a29,29,0,0,0-2.2-2.79,4,4,0,0,0-1.37,3.54c.1,3,2,6.19,4.3,7.15a2.5,2.5,0,0,0,3.08-.6,34.28,34.28,0,0,0-1.52-3.45,1.16,1.16,0,0,1-1.67,1,3.7,3.7,0,0,1-1.88-3.12C813.75,96.34,814.28,95.66,815,95.7Z"/><path class="cls-54" d="M832.1,107.43a3.56,3.56,0,0,1-1.78-2.45,11.83,11.83,0,0,0-1.33,2.3,7.05,7.05,0,0,0,3.21,3.29c2.28,1,4-.76,3.94-3.84a9.58,9.58,0,0,0-1.64-4.91,8.21,8.21,0,0,0-2.08,1.08,4,4,0,0,1,1.39,2.87C833.86,107.09,833.09,107.84,832.1,107.43Z"/><polygon class="cls-54" points="795.39 68.32 794.72 69.23 796.11 69.96 795.39 68.32"/><polygon class="cls-54" points="799.66 64.61 798.98 65.52 799.9 66.05 799.66 64.61"/><polygon class="cls-54" points="803.7 60.74 803.02 61.66 803.78 61.95 803.7 60.74"/><path class="cls-54" d="M816.09,75.09l-.68.92a13.06,13.06,0,0,0,2.41,0C818.38,75.92,816.09,75.09,816.09,75.09Z"/><polygon class="cls-54" points="829.94 80.42 829.27 81.34 827.34 80.04 829.94 80.42"/><polygon class="cls-54" points="839.58 74.07 838.9 74.99 840.23 76.07 839.58 74.07"/><polygon class="cls-54" points="843.99 81.41 843.31 82.33 844.39 83.01 843.99 81.41"/><polygon class="cls-54" points="848.4 88.8 847.73 89.72 848.74 90.48 848.4 88.8"/><polygon class="cls-54" points="805.16 87.35 804.48 88.27 805.64 88.78 805.16 87.35"/><polygon class="cls-54" points="815.02 95.7 814.35 96.62 812.79 95.33 815.02 95.7"/><polygon class="cls-54" points="818.84 103.01 818.16 103.92 817.69 102.69 818.84 103.01"/><polygon class="cls-54" points="832.42 102.88 831.75 103.8 833.32 103.09 832.42 102.88"/><polygon class="cls-54" points="839.62 101.56 838.94 102.48 840.57 102.98 839.62 101.56"/><path class="cls-55" d="M804.74,80c.33.13.64.26.93.4l.42.2q.58.28,1.16.6l0,0a25.35,25.35,0,0,1,2.6,1.64l0,0a37.33,37.33,0,0,1,9.25,10,48.26,48.26,0,0,1,3.94,7.43,15,15,0,0,1,3.55-4.39A12.28,12.28,0,0,1,835.42,93h0l0,.05c.29,0,.58,0,.87.08a14.61,14.61,0,0,1,1.69.3l0-.06q.57.13,1.14.31l.45.14c.28.09.59.2.92.33,3,1.16,5.26-1.21,5.12-5.27l-.1-2.9-.1-2.9-2.11-.79.19,5.78c.08,2.46-1.31,3.89-3.1,3.19-.37-.14-.71-.26-1-.36l-.49-.16a17.79,17.79,0,0,0-2.58-.59l-.39-.05-.15,0a15.28,15.28,0,0,0-2.11-.1h0a13.49,13.49,0,0,0-8.55,3.18,15.36,15.36,0,0,0-2.22,2.29c-.76-1.44-1.57-2.83-2.44-4.16a41.86,41.86,0,0,0-9-10h0q-1.1-.87-2.24-1.6l-.47-.3a26.21,26.21,0,0,0-2.62-1.44l-.46-.21c-.33-.15-.66-.29-1-.44-1.79-.71-3.32-3.18-3.39-5.5l-.18-5.46L799,65.52l.09,2.72.09,2.72C799.28,74.78,801.78,78.85,804.74,80Z"/><path class="cls-55" d="M840.79,103.07l-.62-.23a11.81,11.81,0,0,0-1.23-.36,35.17,35.17,0,0,1,.9,6.74c.42,12.55-6.76,19.45-16,15.34S806.77,107.3,806.38,95.3a24.2,24.2,0,0,1,.49-5.89c-.4-.23-.81-.44-1.21-.63h0L805,88.5l-.54-.24a27.88,27.88,0,0,0-.43,6.06c.44,13.63,9.36,28.59,19.89,33.33s18.71-3.14,18.23-17.48a39.88,39.88,0,0,0-.86-6.91Z"/><path class="cls-55" d="M818.59,79.15a13.34,13.34,0,0,1,3.79.89,18.42,18.42,0,0,1,3.83,2.06,17,17,0,0,1,1.94-.55l.41-.09h0l.7-.12a22.85,22.85,0,0,0-7-4.4,13.94,13.94,0,0,0-6.87-.93q.58.52,1.15,1.07Q817.6,78.07,818.59,79.15Z"/><path class="cls-55" d="M847.73,89.72c.19,5.68-3,9-7.14,7.34l-.82-.3-.41-.13a14.28,14.28,0,0,0-2.49-.55h0a11.1,11.1,0,0,0-8.74,2.47,15.58,15.58,0,0,0-4.83,8.05,44.41,44.41,0,0,0-5.49-12.26,33.07,33.07,0,0,0-9.19-9.58,22.15,22.15,0,0,0-2.52-1.44l-.39-.18-.84-.36c-4.13-1.66-7.62-7.33-7.79-12.63l-2.33-.91c.22,6.93,4.8,14.36,10.21,16.57l.14.06.59.26a18.53,18.53,0,0,1,1.86,1A28.52,28.52,0,0,1,816.29,96a38.08,38.08,0,0,1,6.09,18.72v.1l2.33,1s0-.06,0-.1h0c-.19-6.27,1.64-11.44,5-14.21a9.7,9.7,0,0,1,7.67-2.15l.73.12a13.24,13.24,0,0,1,1.87.5l.57.21.15.06c5.41,2.16,9.61-2.16,9.35-9.63Z"/><path class="cls-55" d="M804.57,74.55c.4.16.77.31,1.12.47l.5.23a29.23,29.23,0,0,1,3.37,1.89q.52.34,1,.71a35.85,35.85,0,0,1,2.82,2.21,46.64,46.64,0,0,1,8.37,9.75c.32.5.64,1,1,1.52q.43-.41.88-.78a14.71,14.71,0,0,1,7.93-3.39h0a16,16,0,0,1,2.75-.07l.93.08.19,0a19.3,19.3,0,0,1,3.22.68l.54.17c.34.11.71.24,1.11.39.63.24,1.12-.26,1.09-1.12l-.29-8.65-.1-2.88L838.9,75l.34,10.21-.24-.08-.58-.18a20.65,20.65,0,0,0-3.47-.72l-.22,0A17.77,17.77,0,0,0,832,84.1a16.28,16.28,0,0,0-2.88.37h0a16,16,0,0,0-6.47,3,51.28,51.28,0,0,0-6.85-8.21q-1.46-1.4-3-2.61t-2.92-2.1a31.52,31.52,0,0,0-3.65-2l-.54-.24-.25-.11-.31-9.75L803,61.66l.09,2.74.26,8.22A2.25,2.25,0,0,0,804.57,74.55Z"/><path class="cls-55" d="M814.35,96.62a29,29,0,0,0-2.2-2.79,4,4,0,0,0-1.37,3.54c.1,3,2,6.19,4.3,7.15a2.5,2.5,0,0,0,3.08-.6,34.28,34.28,0,0,0-1.52-3.45,1.16,1.16,0,0,1-1.67,1,3.7,3.7,0,0,1-1.88-3.12C813.07,97.26,813.6,96.58,814.35,96.62Z"/><path class="cls-55" d="M831.42,108.35a3.56,3.56,0,0,1-1.78-2.45,11.83,11.83,0,0,0-1.33,2.3,7.05,7.05,0,0,0,3.21,3.29c2.28,1,4-.76,3.94-3.84a9.58,9.58,0,0,0-1.64-4.91,8.21,8.21,0,0,0-2.08,1.08,4,4,0,0,1,1.39,2.87C833.18,108,832.41,108.76,831.42,108.35Z"/></g></g></svg>