<?xml version="1.0" encoding="UTF-8" standalone="no"?>
<svg
   xmlns:dc="http://purl.org/dc/elements/1.1/"
   xmlns:cc="http://creativecommons.org/ns#"
   xmlns:rdf="http://www.w3.org/1999/02/22-rdf-syntax-ns#"
   xmlns:svg="http://www.w3.org/2000/svg"
   xmlns="http://www.w3.org/2000/svg"
   id="svg861"
   xml:space="preserve"
   enable-background="new -226 3067 570 510"
   viewBox="-226 3067 570 510"
   y="0px"
   x="0px"
   version="1.1"><metadata
   id="metadata867"><rdf:RDF><cc:Work
       rdf:about=""><dc:format>image/svg+xml</dc:format><dc:type
         rdf:resource="http://purl.org/dc/dcmitype/StillImage" /><dc:title></dc:title></cc:Work></rdf:RDF></metadata><defs
   id="defs865" />
<g
   display="none"
   id="Layer_1">
	<g
   display="inline"
   id="Background">
		<rect
   id="rect833"
   height="510"
   width="570"
   fill-opacity="0"
   y="3067"
   x="-226" />
	</g>
	<g
   display="inline"
   id="Layer_1_1_">
		<path
   id="path836"
   d="M108.7,3321.6c0,27.7-22.5,50.2-50.2,50.2s-50.2-22.5-50.2-50.2s22.5-50.2,50.2-50.2    S108.7,3293.9,108.7,3321.6z"
   fill="#00D8FF" />
		<path
   id="path838"
   d="M58.5,3219.6c67.4,0,129.9,9.7,177.1,25.9    c56.8,19.6,91.8,49.2,91.8,76.1c0,28-37,59.5-98.1,79.7c-46.2,15.3-106.9,23.3-170.8,23.3c-65.6,0-127.6-7.5-174.3-23.4    c-59-20.2-94.6-52.1-94.6-79.6c0-26.6,33.4-56.1,89.4-75.6C-73.6,3229.5-9.5,3219.6,58.5,3219.6z"
   stroke-miterlimit="10"
   stroke-width="24"
   stroke="#00D8FF"
   fill-opacity="0" />
		<path
   id="path840"
   d="M-30.3,3270.9    c33.6-58.3,73.3-107.7,110.9-140.5c45.4-39.5,88.5-54.9,111.8-41.5c24.2,14,33,61.8,20.1,124.8c-9.8,47.6-33.2,104.2-65.2,159.6    c-32.7,56.8-70.2,106.8-107.4,139.3c-47,41.1-92.4,55.9-116.2,42.2c-23.1-13.3-31.9-56.9-20.8-115.2    C-87.7,3390.3-64.2,3329.8-30.3,3270.9z"
   stroke-miterlimit="10"
   stroke-width="24"
   stroke="#00D8FF"
   fill-opacity="0" />
		<path
   id="path842"
   d="M-30.2,3373.5    c-33.7-58.3-56.7-117.3-66.3-166.3c-11.5-59-3.4-104.1,19.9-117.6c24.2-14,70.1,2.2,118.1,44.9c36.4,32.3,73.7,80.8,105.7,136.2    c32.8,56.7,57.5,114.2,67,162.6c12.1,61.2,2.3,108-21.5,121.7c-23.1,13.3-65.2-0.8-110.2-39.5C44.6,3482.9,3.9,3432.3-30.2,3373.5    z"
   stroke-miterlimit="10"
   stroke-width="24"
   stroke="#00D8FF"
   fill-opacity="0" />
	</g>
</g>
<g
   style="fill:#ffffff;fill-opacity:1"
   id="Layer_2">
	<path
   style="fill:#ffffff;fill-opacity:1"
   id="path846"
   d="M-122.3,3236.9c3.4,0,6.5,0.1,9.5,0.2c1.5,0.1,2.9,0.1,4.3,0.2c3.9,0.3,7.8,0.6,11.8,1.1   c-0.1,0.1-0.2,0.2-0.3,0.4c8.9,1,17.8,2.6,26.4,4.8c0.1-0.1,0.2-0.2,0.3-0.3c34.3,8.5,66.1,25.4,92.5,49.1   c14.8,13.3,27.7,28.6,38.3,45.4c10.6-16.8,23.5-32.1,38.3-45.4c26.4-23.7,58.2-40.6,92.4-49.1h0c0.1,0.1,0.2,0.2,0.3,0.3   c3-0.8,6-1.4,9-2c5.7-1.2,11.6-2.1,17.4-2.8c-0.1-0.1-0.2-0.2-0.3-0.4c3.9-0.5,7.8-0.8,11.7-1.1c1.4-0.1,2.9-0.2,4.6-0.2   c2.8-0.1,6-0.2,9.4-0.2c30.3,0,54.9-24.6,54.9-54.9v-21.6v-21.6h-21.6v43.2c0,18.4-14.9,33.3-33.3,33.3c-3.7,0-7.2,0.1-10.4,0.2   c-1.8,0.1-3.5,0.2-5.1,0.3c-8.9,0.6-17.8,1.6-26.5,3.2c-1.3,0.2-2.7,0.5-4,0.8c-0.5,0.1-1,0.2-1.5,0.3c-7.4,1.5-14.6,3.3-21.8,5.5   h0c-33.1,10.1-63.7,27.4-89.7,50.7c-8.5,7.7-16.5,15.9-23.8,24.7c-7.3-8.8-15.3-17.1-23.8-24.8c-25.9-23.3-56.6-40.5-89.8-50.6h0   c-7.4-2.3-15-4.2-22.6-5.7c-1.6-0.3-3.2-0.6-4.7-0.9c-8.9-1.6-17.8-2.7-26.7-3.2c-1.5-0.1-3.1-0.2-4.7-0.2   c-3.3-0.2-6.8-0.2-10.5-0.2c-18.4,0-33.3-14.9-33.3-33.3v-43.2h-21.6v21.6v21.6C-177.2,3212.3-152.6,3236.9-122.3,3236.9"
   fill="#ffffff" />
	<path
   style="fill:#ffffff;fill-opacity:1"
   id="path848"
   d="M243.3,3303.5c-2.1,0-4.2,0.1-6.4,0.2c-4.3,0.2-8.5,0.5-12.6,1.1c4.6,15.4,7,31.7,7,48.5   c0,94.3-76.7,170.9-170.9,170.9c-94.2,0-170.9-76.7-170.9-170.9c0-16.8,2.4-33.1,7-48.5c-4.1-0.5-8.2-0.9-12.3-1l-0.2,0   c-2.1-0.1-4.1-0.2-6.3-0.2c-1.8,0-3.7,0-5.5-0.1c-4.2,15.9-6.5,32.6-6.5,49.8c0,107.4,87.4,194.7,194.7,194.7   c107.4,0,194.7-87.4,194.7-194.7c0-17.2-2.2-33.9-6.5-49.8C246.9,3303.5,245.1,3303.5,243.3,3303.5"
   fill="#ffffff" />
	<path
   style="fill:#ffffff;fill-opacity:1"
   id="path850"
   d="M21.5,3186.8c12.5-2.9,25.6-4.5,39-4.5c13.4,0,26.5,1.6,39,4.5c6.6-3.6,13.4-6.9,20.3-10l4.2-1.9h0.1   c2.4-1,4.8-2,7.3-3c-22-8.6-45.9-13.4-70.9-13.4c-25,0-48.9,4.7-70.9,13.4c3.9,1.5,7.8,3.2,11.6,4.9   C8.1,3179.9,14.9,3183.2,21.5,3186.8"
   fill="#ffffff" />
	<path
   style="fill:#ffffff;fill-opacity:1"
   id="path852"
   d="M319.8,3182c0,42.2-34.3,76.5-76.5,76.5c-3.1,0-5.9,0.1-8.4,0.2c-1.4,0.1-2.8,0.1-4.2,0.2   c-8.6,0.5-17.2,1.6-25.6,3.3c-0.2,0-0.3,0.1-0.5,0.1c-33.9,6.8-65.5,22.7-91.4,46c-23.9,21.5-41.9,48.4-52.7,78   c-10.8-29.6-28.8-56.5-52.7-78c-26.1-23.4-58-39.3-92-46.1c-8.4-1.7-17-2.8-25.6-3.4c-1.3-0.1-2.6-0.2-3.9-0.2   c-2.6-0.1-5.4-0.2-8.5-0.2c-42.2,0-76.5-34.3-76.5-76.5h-23.8c0,55.3,45,100.3,100.3,100.3c0.5,0,1,0,1.4,0c2.1,0,4.1,0.1,6,0.2   c6.4,0.3,12.7,0.9,18.9,1.9c32.5,5,63.2,19.5,87.8,41.7c35.8,32.2,56.5,78.3,56.7,126.4v0.2l0,0.5h23.8c0-0.3,0-0.5,0-0.7h0   c0.2-48.1,20.9-94.2,56.7-126.4c22.7-20.4,50.4-34.4,80.2-40.4c2.5-0.5,5-1,7.5-1.3c6.3-1,12.7-1.6,19.2-1.9   c1.8-0.1,3.7-0.1,5.8-0.2c0.5,0,1,0,1.5,0c55.3,0,100.3-45,100.3-100.3H319.8z"
   fill="#ffffff" />
	<path
   style="fill:#ffffff;fill-opacity:1"
   id="path854"
   d="M-122.3,3193.7c4.1,0,7.8,0.1,11.5,0.3c1.8,0.1,3.5,0.2,5.1,0.3c11.4,0.7,22.9,2.2,34.3,4.5   c3.5,0.7,7.1,1.5,10.6,2.4c9.7,2.4,19.2,5.3,28.5,8.7c30.6,11.3,59,28.4,83.5,50.4c3.2,2.9,6.3,5.8,9.4,8.9c3.1-3,6.2-6,9.4-8.8   c24.5-22,52.8-39.1,83.4-50.4h0c9.3-3.4,18.8-6.4,28.5-8.7c3.2-0.8,6.4-1.5,9.6-2.2c0.7-0.1,1.3-0.2,1.9-0.4   c10.9-2.1,22-3.6,33.1-4.3c1.8-0.1,3.6-0.2,5.5-0.3c3.5-0.2,7.3-0.3,11.4-0.3c6.4,0,11.7-5.2,11.7-11.7v-64.8v-21.6h-21.6v76.7   c-0.8,0-1.6,0.1-2.4,0.1c-2.1,0.1-4.1,0.2-6,0.3c-12,0.7-24,2.3-35.7,4.6c-0.7,0.1-1.5,0.3-2.3,0.4c-9.6,2-19.1,4.4-28.5,7.4   c-10.2,3.2-20.2,7-30,11.4h0c-24.5,11-47.5,25.5-68.1,43.1c-20.6-17.6-43.6-32.1-68.2-43.1c-9.8-4.4-19.8-8.2-30-11.4   c-9.7-3.1-19.5-5.6-29.6-7.6c-12.3-2.5-24.8-4.1-37.2-4.9c-1.7-0.1-3.6-0.2-5.5-0.3c-0.8,0-1.7-0.1-2.5-0.1v-76.7H-134v21.6v64.8   C-134,3188.4-128.7,3193.7-122.3,3193.7"
   fill="#ffffff" />
	<path
   style="fill:#ffffff;fill-opacity:1"
   id="path856"
   d="M-28.4,3337.3c-6.9-5.6-14.2-10.6-21.9-14.8c-9.4,7.7-15.3,19.4-15.3,32.5c0,23.2,18.9,42.1,42.2,42.1   c12.9,0,24.4-5.8,32.1-14.9c-4.2-7.7-9-15.1-14.5-22.1c-2.2,7.6-9.3,13.2-17.6,13.2c-10.1,0-18.4-8.2-18.4-18.4   C-41.8,3346.6-36.1,3339.5-28.4,3337.3"
   fill="#ffffff" />
	<path
   style="fill:#ffffff;fill-opacity:1"
   id="path858"
   d="M144.4,3373.3c-8.3,0-15.4-5.6-17.6-13.2c-5.5,6.9-10.4,14.3-14.5,22.1c7.7,9.1,19.3,14.9,32.1,14.9   c23.2,0,42.1-18.9,42.1-42.1c0-13.1-6-24.8-15.3-32.5c-7.7,4.3-15,9.2-21.9,14.8c7.7,2.2,13.4,9.3,13.4,17.7   C162.8,3365.1,154.5,3373.3,144.4,3373.3"
   fill="#ffffff" />
</g>
</svg>
